<?xml version="1.0" standalone="no"?>
<!DOCTYPE svg PUBLIC "-//W3C//DTD SVG 20010904//EN"
 "http://www.w3.org/TR/2001/REC-SVG-20010904/DTD/svg10.dtd">
<svg version="1.0" xmlns="http://www.w3.org/2000/svg"
 width="1024.000000pt" height="1024.000000pt" viewBox="0 0 1024.000000 1024.000000"
 preserveAspectRatio="xMidYMid meet">

<g transform="translate(0.000000,1024.000000) scale(0.100000,-0.100000)"
fill="#000000" stroke="none">
<path d="M0 5120 l0 -5120 5120 0 5120 0 0 5120 0 5120 -5120 0 -5120 0 0
-5120z m5170 4480 c67 -200 102 -276 132 -286 18 -5 18 -6 -1 -33 -11 -15 -23
-39 -26 -54 -4 -15 -11 -30 -16 -32 -4 -3 -31 27 -58 67 -28 40 -62 86 -75
103 -31 36 -34 34 -104 -83 l-49 -82 -32 60 c-27 51 -30 61 -17 66 37 14 91
147 142 349 24 95 33 120 39 113 1 -2 30 -86 65 -188z m-41 -311 c13 -38 15
-379 2 -379 -5 0 -23 -3 -41 -6 l-32 -7 4 185 c2 155 6 188 21 211 23 35 33
34 46 -4z m-239 -169 c0 -5 -2 -10 -4 -10 -3 0 -8 5 -11 10 -3 6 -1 10 4 10 6
0 11 -4 11 -10z m697 -34 c-4 -9 -13 -13 -22 -10 -18 7 -20 31 -2 37 17 6 31
-9 24 -27z m-978 -8 c18 -49 22 -68 14 -68 -11 1 -43 71 -37 82 8 13 14 10 23
-14z m-103 -14 c1 -11 6 -29 12 -41 12 -21 7 -33 -13 -33 -10 0 -35 68 -35 95
0 17 35 -3 36 -21z m404 -26 c0 -10 -7 -18 -15 -18 -10 0 -14 10 -13 36 1 33
3 35 15 18 7 -10 13 -26 13 -36z m784 10 c-7 -44 -19 -66 -30 -56 -11 12 8 98
22 98 11 0 13 -10 8 -42z m120 27 c3 -8 1 -15 -4 -15 -6 0 -10 -20 -10 -45 0
-36 -3 -43 -15 -38 -22 8 -8 113 15 113 4 0 10 -7 14 -15z m-1418 -15 c1 -8 6
-29 9 -47 6 -25 4 -31 -9 -29 -21 3 -22 5 -30 54 -6 37 -4 43 10 40 10 -2 18
-10 20 -18z m1513 -64 c-13 -59 -15 -61 -38 -47 -12 8 -13 14 -3 36 7 14 12
37 12 50 0 24 19 38 33 25 5 -4 3 -33 -4 -64z m-1202 42 c-3 -8 -6 -5 -6 6 -1
11 2 17 5 13 3 -3 4 -12 1 -19z m-414 -35 c11 -35 12 -52 4 -62 -9 -11 -12
-10 -18 5 -22 64 -28 88 -23 95 12 19 24 7 37 -38z m1087 22 c10 -12 10 -15
-4 -15 -9 0 -16 7 -16 15 0 8 2 15 4 15 2 0 9 -7 16 -15z m190 -11 c0 -8 -4
-14 -10 -14 -5 0 -10 9 -10 21 0 11 5 17 10 14 6 -3 10 -13 10 -21z m453 19
c4 -3 3 -11 -2 -17 -5 -6 -14 -30 -20 -53 -7 -24 -16 -43 -21 -43 -14 0 -12
20 6 73 15 46 23 54 37 40z m-1846 -57 c11 -36 11 -52 3 -60 -13 -13 -29 7
-31 42 -2 30 -3 35 -11 48 -4 6 -4 14 -1 18 14 14 27 -2 40 -48z m1963 32 c0
-28 -35 -118 -44 -115 -13 5 -9 56 9 115 5 15 35 16 35 0z m-2090 -34 c0 -8 7
-22 16 -31 17 -17 16 -54 -2 -60 -6 -2 -14 9 -17 25 -3 17 -9 41 -13 56 -4 16
-2 26 5 26 6 0 11 -7 11 -16z m2175 -64 c-17 -50 -35 -66 -35 -31 0 11 10 41
22 68 27 61 37 34 13 -37z m-2272 7 c21 -51 21 -57 4 -57 -8 0 -19 17 -26 38
-7 20 -15 43 -17 50 -3 6 0 12 8 12 7 0 21 -19 31 -43z m2387 20 c0 -23 -35
-97 -46 -97 -8 0 -14 2 -14 4 0 14 43 96 50 96 6 0 10 -1 10 -3z m-2500 -82
c6 -8 9 -19 5 -25 -11 -17 -25 -11 -25 11 0 11 -5 29 -11 40 -6 12 -7 28 -3
37 5 13 9 9 14 -15 4 -18 13 -39 20 -48z m2607 36 c-11 -55 -37 -105 -48 -94
-7 7 -3 28 11 66 23 60 47 78 37 28z m-2716 -48 c15 -36 17 -48 7 -54 -9 -6
-18 7 -30 44 -21 63 -20 57 -8 57 6 0 20 -21 31 -47z m969 37 c11 -7 4 -10
-27 -10 -23 0 -45 5 -48 10 -8 13 55 13 75 0z m1850 -25 c0 -26 -28 -85 -41
-85 -11 0 -8 25 11 75 10 27 30 34 30 10z m-2951 -17 c-5 -27 14 -69 27 -64 8
3 14 -1 14 -8 0 -32 -26 -21 -42 18 -20 48 -22 66 -8 66 6 0 10 -6 9 -12z
m721 -17 c0 -10 3 -32 6 -48 l6 -29 -89 -16 c-111 -21 -378 -105 -548 -171
-309 -122 -760 -383 -911 -528 l-31 -30 -22 27 c-29 37 -27 46 22 88 163 142
341 256 617 395 275 139 426 197 730 276 113 29 208 54 213 54 4 1 7 -7 7 -18z
m2335 -8 c-11 -47 -34 -93 -44 -93 -18 0 -13 32 11 78 26 47 44 56 33 15z
m-660 2 c82 -18 323 -87 415 -120 253 -90 646 -290 880 -448 82 -55 240 -179
240 -188 0 -3 -13 -18 -29 -33 l-29 -28 -118 90 c-218 165 -573 362 -861 478
-127 51 -328 116 -463 149 -149 37 -138 31 -142 75 -4 47 -1 48 107 25z m-230
-13 c36 -10 48 -55 18 -70 -11 -6 -269 -9 -688 -7 l-670 2 -3 30 c-2 16 3 35
11 41 8 7 68 13 153 15 262 6 1149 -2 1179 -11z m-2255 -53 c20 -42 22 -51 10
-59 -18 -11 -30 -4 -30 18 0 9 -7 30 -15 46 -14 26 -13 46 3 46 4 0 18 -23 32
-51z m-1437 -102 c42 -33 142 -95 220 -136 79 -42 154 -84 166 -93 l23 -16
-28 -39 c-56 -77 -207 -213 -236 -213 -13 0 -45 71 -68 150 -26 86 -95 229
-144 298 -50 69 -107 173 -101 183 3 4 25 -10 48 -33 23 -22 77 -68 120 -101z
m4695 113 c-5 -17 -14 -33 -19 -36 -5 -3 -9 -14 -9 -25 0 -10 -6 -19 -14 -19
-23 0 -31 22 -13 35 10 7 17 18 17 24 0 22 20 51 35 51 11 0 12 -6 3 -30z
m1512 17 c0 -7 -25 -55 -55 -107 -90 -154 -120 -218 -160 -340 -26 -81 -46
-124 -67 -145 l-29 -30 -119 125 c-66 68 -120 127 -120 131 0 3 28 21 63 39
64 34 174 101 287 177 36 24 92 70 124 103 60 60 76 71 76 47z m-4886 -74 c11
-25 16 -49 11 -60 -6 -15 -10 -12 -22 17 -19 43 -30 109 -16 95 5 -5 17 -29
27 -52z m3486 43 c0 -2 -12 -29 -26 -60 -24 -54 -33 -63 -47 -50 -6 6 25 77
45 102 10 11 28 17 28 8z m-3586 -88 c30 -63 18 -90 -13 -30 -19 37 -28 82
-16 82 2 0 15 -24 29 -52z m3657 -21 c-12 -24 -21 -49 -21 -56 0 -11 -3 -11
-15 -1 -22 18 -19 32 17 81 37 52 49 37 19 -24z m-2353 -184 c1 -126 5 -300 8
-389 6 -142 5 -162 -10 -177 -22 -21 -45 -22 -74 -1 l-22 15 0 380 c1 419 -2
398 66 399 l30 0 2 -227z m603 217 c170 -32 281 -153 295 -320 9 -100 -11
-167 -79 -267 -40 -59 -73 -94 -137 -142 -95 -71 -105 -84 -115 -158 -11 -81
5 -114 83 -172 191 -141 277 -308 259 -503 -10 -112 -91 -233 -174 -258 -54
-17 -358 -25 -410 -11 -63 17 -148 95 -184 167 -26 53 -30 71 -30 146 0 104
13 161 58 256 24 50 51 89 89 125 31 29 80 75 110 103 l54 51 0 62 c0 88 -17
122 -88 169 -87 60 -144 121 -188 204 -39 72 -39 74 -39 183 0 100 3 116 29
173 33 70 114 153 181 183 46 21 196 26 286 9z m499 -391 c0 -360 -1 -389 -17
-397 -22 -11 -83 4 -84 21 -4 35 2 520 8 634 l6 132 31 3 c59 6 56 28 56 -393z
m-2512 339 c25 -41 31 -70 15 -75 -6 -2 -22 17 -34 44 -13 26 -25 51 -27 56
-2 4 3 7 11 7 9 0 24 -15 35 -32z m3882 19 c0 -18 -38 -94 -51 -102 -28 -18
-23 29 11 83 20 33 40 42 40 19z m-3950 -137 c0 -5 -4 -12 -10 -15 -11 -7 -62
93 -54 107 6 9 64 -75 64 -92z m4056 76 c3 -8 -9 -37 -27 -63 -26 -37 -34 -44
-37 -29 -4 20 36 106 50 106 5 0 11 -7 14 -14z m-4156 -98 c24 -31 25 -38 6
-38 -23 0 -79 78 -71 98 6 15 9 14 25 -8 11 -14 28 -37 40 -52z m1018 40 c-4
-29 -38 -38 -38 -10 0 22 8 32 27 32 9 0 13 -8 11 -22z m2160 5 c-2 -10 -10
-18 -18 -18 -8 0 -16 8 -18 18 -2 12 3 17 18 17 15 0 20 -5 18 -17z m1082 -10
c0 -5 -31 -50 -57 -82 -2 -3 -9 1 -15 7 -9 9 -4 20 22 47 32 33 50 43 50 28z
m-4582 -36 c2 -18 -1 -27 -11 -27 -21 0 -40 27 -33 46 10 25 41 12 44 -19z
m4877 23 c3 -5 0 -21 -8 -35 l-13 -26 -14 26 c-12 23 -12 28 0 35 19 12 27 12
35 0z m-1645 -10 c0 -5 9 -18 21 -29 l21 -19 -21 -11 c-12 -7 -21 -21 -21 -31
0 -11 -4 -20 -10 -20 -5 0 -10 9 -10 19 0 11 -12 29 -27 40 -21 15 -24 20 -11
21 10 0 22 9 28 20 11 21 30 27 30 10z m-3042 -35 c-3 -3 -9 2 -12 12 -6 14
-5 15 5 6 7 -7 10 -15 7 -18z m1394 8 c18 -16 18 -17 -3 -39 -20 -22 -21 -22
-40 -3 -23 23 -24 28 -1 45 22 17 22 17 44 -3z m3098 2 c0 -13 -66 -95 -77
-95 -19 0 -16 9 20 56 27 36 57 57 57 39z m-4473 -47 c-3 -8 -6 -5 -6 6 -1 11
2 17 5 13 3 -3 4 -12 1 -19z m3603 -18 c0 -26 -15 -33 -30 -15 -10 12 -10 18
0 30 15 18 30 11 30 -15z m-2775 0 c7 -11 -12 -40 -25 -40 -11 0 -21 30 -14
41 7 12 31 11 39 -1z m3705 -7 c0 -5 -9 -19 -20 -33 -11 -14 -20 -31 -20 -37
0 -18 -19 -16 -27 3 -3 9 6 27 23 45 27 28 44 37 44 22z m-4590 -37 c0 -3 -4
-8 -10 -11 -5 -3 -10 -1 -10 4 0 6 5 11 10 11 6 0 10 -2 10 -4z m4649 -66
c-13 -22 -26 -40 -31 -40 -18 0 -6 49 19 76 35 38 42 17 12 -36z m-1218 -10
c9 -10 23 -20 30 -22 10 -3 4 -13 -17 -31 -18 -15 -35 -38 -38 -52 -7 -27 -26
-25 -26 2 0 23 -29 53 -52 53 -25 0 -22 15 6 28 13 6 32 25 43 42 16 28 19 29
28 14 6 -9 17 -25 26 -34z m-3567 -11 c26 -31 33 -54 18 -63 -4 -2 -20 18 -35
45 -30 55 -22 65 17 18z m1308 6 c6 -14 14 -25 17 -25 3 0 13 -4 21 -10 12 -7
9 -13 -14 -31 -15 -12 -32 -33 -38 -48 l-10 -26 -11 30 c-14 43 -26 55 -54 55
-14 0 -21 4 -18 10 3 6 15 10 26 10 12 0 27 12 37 30 21 36 29 37 44 5z m-558
-11 c6 -16 -9 -44 -25 -44 -11 0 -22 38 -14 50 10 15 32 12 39 -6z m4364 -26
c15 -26 15 -27 -35 -80 -162 -171 -399 -467 -556 -693 -65 -94 -135 -195 -156
-225 -21 -30 -116 -172 -211 -315 -95 -143 -199 -295 -231 -337 -33 -42 -64
-88 -70 -102 -14 -29 -36 -34 -46 -10 -7 18 34 97 94 179 61 84 355 513 570
830 136 202 217 314 357 490 136 172 246 297 258 293 5 -2 17 -15 26 -30z
m-1014 -11 c-7 -19 -20 -22 -29 -7 -9 15 16 43 27 32 5 -5 6 -16 2 -25z
m-4344 -9 c12 -17 62 -74 109 -127 110 -122 229 -263 269 -320 31 -43 31 -44
15 -72 -10 -16 -20 -29 -23 -29 -3 0 -25 27 -50 59 -61 80 -219 260 -304 348
-71 75 -106 120 -106 139 0 11 35 32 56 33 5 1 21 -13 34 -31z m5110 -9 c0
-33 -3 -40 -17 -37 -25 5 -28 36 -7 59 9 10 19 19 21 19 1 0 3 -18 3 -41z
m-4910 -36 c0 -7 -4 -13 -8 -13 -12 0 -42 56 -35 64 8 8 42 -33 43 -51z m4247
-17 c-9 -23 -37 -20 -37 3 0 21 20 33 34 20 5 -4 6 -15 3 -23z m-3596 4 c15 0
10 -20 -7 -27 -9 -3 -20 0 -25 8 -13 21 -11 32 7 25 9 -3 20 -6 25 -6z m412
-72 l24 -23 -26 -25 -26 -25 -27 27 c-23 25 -24 28 -8 33 10 3 21 12 24 20 7
20 11 19 39 -7z m2801 -10 c16 -18 17 -23 4 -32 -8 -6 -19 -19 -24 -29 -9 -16
-12 -14 -33 13 l-22 31 23 19 c29 24 30 24 52 -2z m-2246 -16 c3 -22 -11 -28
-41 -16 -14 5 -13 8 1 24 21 23 36 20 40 -8z m-1178 -1 c0 -13 -26 -32 -33
-24 -14 13 -6 33 13 33 11 0 20 -4 20 -9z m4710 -25 c0 -15 -18 -31 -26 -23
-7 7 7 37 17 37 5 0 9 -6 9 -14z m-5400 -22 c0 -14 -12 -19 -23 -8 -9 9 4 35
14 28 5 -3 9 -12 9 -20z m4720 6 c0 -13 -7 -20 -20 -20 -19 0 -27 20 -13 33
13 14 33 6 33 -13z m-1155 -20 c3 -5 4 -14 0 -20 -8 -13 -35 -1 -35 16 0 16
26 19 35 4z m1895 -24 c0 -27 -15 -42 -25 -26 -8 13 3 50 16 50 5 0 9 -11 9
-24z m-5520 -1 c7 -8 9 -22 6 -31 -6 -16 -8 -15 -21 2 -26 35 -13 62 15 29z
m1125 5 c7 -12 -12 -40 -26 -40 -5 0 -9 11 -9 25 0 25 23 35 35 15z m-1315
-14 c-7 -7 -14 -6 -21 1 -9 9 -7 12 9 10 14 -1 18 -5 12 -11z m5782 -33 c5
-21 -11 -63 -24 -63 -4 0 -8 11 -8 24 0 48 24 77 32 39z m-5394 -19 l34 -27
-100 -101 c-127 -130 -264 -284 -349 -394 -107 -140 -131 -162 -175 -162 -21
0 -38 5 -38 10 0 42 276 384 474 588 60 61 111 112 114 112 3 0 21 -12 40 -26z
m1386 8 c15 -18 15 -20 -3 -36 -18 -17 -20 -17 -38 1 -16 16 -16 20 -3 35 20
21 24 21 44 0z m-1650 -19 c11 -27 -5 -34 -24 -11 -10 13 -16 26 -14 30 7 11
32 -1 38 -19z m926 -29 c0 -43 1 -44 34 -44 63 0 162 -38 192 -73 37 -44 73
-123 80 -179 6 -46 8 -48 48 -55 31 -7 41 -13 41 -28 0 -16 -8 -21 -42 -23
-37 -3 -44 -7 -49 -30 -9 -45 -43 -112 -59 -119 -29 -10 -28 6 5 63 28 50 30
60 19 80 -7 13 -16 24 -21 24 -4 0 -8 7 -8 15 0 8 7 15 15 15 26 0 27 24 4 85
-28 76 -75 126 -148 159 -50 22 -70 26 -132 23 -117 -6 -186 -54 -241 -166
-30 -62 -31 -170 -1 -226 50 -94 137 -144 248 -145 64 0 165 24 165 40 0 16
-160 169 -202 194 -49 29 -62 48 -53 77 12 38 88 12 114 -40 11 -20 36 -52 56
-71 75 -71 197 -210 200 -227 1 -10 8 -17 15 -15 13 3 50 -26 50 -38 0 -4 -12
-10 -27 -13 -21 -4 -32 0 -43 16 -8 11 -33 37 -54 58 -39 38 -40 39 -60 20
-58 -53 -134 -66 -230 -39 -132 36 -200 101 -237 226 -9 30 -20 47 -36 53 -22
8 -22 11 -9 31 7 13 21 46 30 74 44 134 151 234 252 234 33 0 34 1 34 43 0 50
4 57 31 50 15 -4 19 -14 19 -49z m4561 -11 c117 -104 327 -357 458 -551 35
-51 61 -95 58 -98 -11 -11 -87 8 -112 28 -14 11 -46 50 -70 87 -76 114 -231
301 -347 419 -62 61 -116 112 -120 112 -18 0 -6 30 18 49 15 12 30 21 33 21 4
0 41 -30 82 -67z m-1485 -9 c-9 -8 -16 -20 -16 -25 0 -6 -13 2 -28 17 l-28 28
25 22 25 21 19 -23 c17 -22 17 -25 3 -40z m834 26 c0 -5 -6 -10 -14 -10 -8 0
-18 5 -21 10 -3 6 3 10 14 10 12 0 21 -4 21 -10z m893 -46 c-5 -15 -15 -30
-21 -32 -16 -5 -15 33 0 58 17 27 33 9 21 -26z m-5793 -48 c0 -6 -16 6 -36 26
-21 20 -33 41 -29 47 7 12 65 -52 65 -73z m3475 33 c19 -17 35 -39 35 -50 0
-21 -58 -69 -84 -69 -54 0 -103 61 -79 99 9 15 69 51 85 51 4 0 23 -14 43 -31z
m1009 1 c4 -25 10 -30 33 -30 16 0 48 -14 73 -30 46 -31 74 -37 85 -20 18 29
52 -18 36 -49 -8 -15 -3 -31 28 -79 21 -32 42 -73 45 -89 4 -17 17 -35 29 -41
22 -10 22 -10 -5 -21 -17 -6 -30 -21 -34 -38 -4 -15 -18 -50 -31 -77 -18 -35
-28 -45 -36 -37 -7 7 -3 24 16 60 39 70 36 88 -13 96 -22 4 -42 10 -45 15 -6
9 29 20 69 20 25 0 27 3 22 25 -11 43 -54 135 -64 135 -5 0 -17 -9 -27 -20
-36 -40 -63 -9 -30 34 8 11 15 24 15 28 0 14 -103 58 -136 58 -33 0 -44 -16
-44 -69 0 -37 -18 -13 -22 29 -3 33 -5 35 -38 32 -47 -5 -140 -41 -140 -54 0
-6 10 -26 21 -45 26 -42 20 -51 -18 -26 -54 35 -68 52 -57 70 13 21 20 25 129
67 78 30 90 38 93 61 5 37 38 34 46 -5z m-2103 -8 c31 -32 32 -59 5 -87 -34
-34 -84 -34 -126 1 -39 34 -36 61 10 92 39 26 83 24 111 -6z m-2467 -43 c24
-28 34 -59 20 -59 -6 0 -54 55 -67 76 -16 28 21 14 47 -17z m5956 -16 c-8 -15
-21 -28 -27 -31 -19 -6 -16 25 5 53 23 32 42 14 22 -22z m-2045 -71 c15 -12
36 -22 46 -22 11 0 19 -4 19 -10 0 -5 -11 -10 -24 -10 -29 0 -73 -39 -90 -82
l-14 -32 -23 49 c-20 41 -30 51 -64 60 l-40 12 37 16 c28 12 43 29 63 68 l27
52 18 -40 c9 -22 30 -49 45 -61z m-3981 7 c21 -30 25 -44 17 -52 -6 -6 -12 -9
-14 -6 -34 42 -54 77 -50 87 7 20 16 14 47 -29z m1136 6 c0 -19 -4 -35 -10
-35 -11 0 -14 53 -3 63 11 12 13 8 13 -28z m1035 -7 c10 -15 11 -24 5 -26 -6
-2 -15 -15 -21 -29 l-9 -24 -24 28 -24 27 22 23 c26 28 31 28 51 1z m3935 17
c0 -15 -34 -55 -46 -55 -19 0 -18 19 3 42 15 17 43 25 43 13z m-2750 -25 c0
-5 -5 -10 -11 -10 -5 0 -7 5 -4 10 3 6 8 10 11 10 2 0 4 -4 4 -10z m-853 -32
c12 -13 22 -30 23 -38 1 -8 2 -171 1 -362 -1 -322 -2 -348 -18 -348 -14 0 -13
-3 5 -16 45 -31 19 -84 -42 -84 -19 0 -27 7 -36 35 -14 42 -7 55 28 55 l27 0
-25 13 c-36 18 -39 50 -39 400 -1 301 -1 308 21 337 26 36 29 36 55 8z m1105
-10 l23 -33 -1 -338 c-1 -309 -3 -339 -19 -357 -16 -18 -17 -20 -2 -20 13 0
17 -9 17 -39 0 -22 -4 -42 -9 -45 -4 -3 -28 -2 -52 2 -52 9 -64 37 -28 73 13
13 17 24 11 28 -6 4 -13 139 -17 367 l-8 361 24 16 c32 23 34 22 61 -15z
m-3681 -20 c31 -37 40 -56 29 -63 -12 -7 -92 64 -84 76 9 16 35 10 55 -13z
m1079 -14 c10 -18 11 -27 3 -35 -17 -17 -30 -3 -35 35 -4 39 12 39 32 0z
m5170 23 c0 -8 -11 -24 -25 -37 -19 -18 -28 -21 -36 -13 -9 9 -4 18 17 37 33
29 44 32 44 13z m-5645 -18 c4 -6 -2 -19 -14 -30 -12 -11 -21 -27 -21 -37 0
-15 -2 -15 -10 -2 -5 8 -10 24 -10 36 0 35 40 59 55 33z m1184 -7 c6 -11 6
-24 1 -33 -13 -19 -44 0 -48 30 -4 27 33 30 47 3z m2633 -56 c-11 -39 -8 -46
22 -46 12 0 27 -4 35 -9 11 -7 6 -13 -22 -25 -29 -12 -37 -21 -37 -41 0 -26
45 -125 57 -125 4 0 17 10 30 21 20 20 23 20 29 5 3 -9 -2 -28 -11 -43 -17
-25 -17 -27 1 -41 11 -8 43 -26 73 -39 59 -28 70 -23 71 32 0 17 5 37 10 45 9
13 11 13 20 0 5 -8 10 -32 10 -54 l0 -39 46 7 c26 3 64 11 86 18 39 11 39 12
33 50 -8 46 9 51 51 15 44 -38 23 -58 -100 -98 -58 -19 -106 -39 -106 -45 0
-19 -28 -24 -45 -8 -8 9 -15 20 -15 25 0 5 -7 9 -16 9 -8 0 -46 18 -83 40 -70
42 -91 48 -91 28 0 -8 -6 -6 -17 5 -14 14 -15 20 -4 41 12 22 10 29 -18 70
-17 25 -34 59 -37 76 -4 17 -15 35 -25 41 -25 13 -24 31 1 47 11 7 20 19 20
28 0 8 8 29 17 47 21 39 29 17 15 -37z m1264 38 c9 -13 10 -23 3 -34 -9 -12
-11 -13 -16 -1 -3 7 -14 22 -24 32 -24 24 -24 26 3 24 12 -1 27 -10 34 -21z
m-916 -20 c24 -23 19 -142 -6 -161 -24 -18 -112 -12 -126 8 -12 18 -4 135 12
154 22 27 91 26 120 -1z m-4820 -42 c26 -25 29 -31 16 -41 -12 -10 -15 -8 -20
7 -4 11 -22 30 -41 43 -18 13 -31 27 -29 31 7 11 35 -5 74 -40z m6370 15 c0
-8 -11 -24 -25 -37 -20 -19 -28 -21 -38 -11 -9 10 -6 17 16 37 31 27 47 31 47
11z m-4920 -23 c0 -2 -14 -4 -31 -4 -16 0 -28 4 -25 9 5 8 56 3 56 -5z m4075
-23 c-10 -16 -25 -3 -25 22 0 20 1 20 16 5 9 -9 13 -21 9 -27z m-5570 11 c-3
-3 -11 0 -18 7 -9 10 -8 11 6 5 10 -3 15 -9 12 -12z m-31 -54 c38 -46 32 -54
-14 -17 -41 33 -50 49 -26 49 7 0 25 -14 40 -32z m6506 10 c0 -14 -40 -58 -52
-58 -15 0 -8 23 14 47 24 25 38 29 38 11z m-4211 -32 c7 -13 25 -29 39 -36
l26 -11 -25 -12 c-13 -7 -31 -27 -39 -44 -18 -39 -26 -41 -34 -7 -5 17 -19 30
-44 41 l-37 15 37 19 c20 10 39 28 43 39 8 26 19 25 34 -4z m-1751 -18 c18
-18 14 -38 -7 -38 -23 0 -35 15 -27 35 7 18 18 19 34 3z m255 -21 c4 3 10 -3
13 -13 4 -10 14 -27 22 -36 8 -10 10 -18 5 -18 -6 0 -13 7 -17 15 -8 23 -25
18 -36 -10 -9 -24 -30 -35 -30 -15 0 6 -7 10 -15 10 -20 0 -19 12 5 38 11 12
20 29 20 39 1 17 1 17 14 1 7 -10 16 -15 19 -11z m-849 -17 c41 -42 23 -57
-24 -18 -37 31 -43 48 -17 48 7 0 25 -14 41 -30z m5746 20 c0 -5 -9 -10 -21
-10 -11 0 -17 5 -14 10 3 6 13 10 21 10 8 0 14 -4 14 -10z m876 -21 c3 -6 -5
-23 -20 -37 -20 -20 -28 -24 -38 -14 -9 9 -6 17 12 37 26 28 35 31 46 14z
m-2233 -12 c8 -21 -7 -39 -26 -31 -17 6 -22 25 -10 37 11 11 31 8 36 -6z
m1382 -6 c-4 -11 -3 -12 10 -1 13 10 15 9 15 -8 0 -28 -20 -41 -52 -35 -42 8
-35 62 8 59 16 -1 22 -6 19 -15z m-75 -32 c0 -5 -7 -9 -15 -9 -8 0 -15 7 -15
15 0 9 6 12 15 9 8 -4 15 -10 15 -15z m-5790 0 c0 -11 -24 -39 -34 -39 -11 0
-6 26 6 38 15 15 28 15 28 1z m42 -61 c-17 -17 -47 14 -38 38 6 16 8 16 29 -4
17 -17 19 -24 9 -34z m4098 43 c0 -14 -18 -23 -30 -16 -6 4 -8 11 -5 16 8 12
35 12 35 0z m-2000 -20 c0 -11 -4 -22 -9 -25 -12 -8 -34 21 -26 34 11 17 35
11 35 -9z m-142 -13 c-4 -27 -28 -36 -28 -10 0 20 8 32 22 32 5 0 8 -10 6 -22z
m630 -1 c2 -10 -3 -17 -12 -17 -10 0 -16 9 -16 21 0 24 23 21 28 -4z m4155 8
c0 -6 -15 -20 -33 -33 -44 -29 -55 -9 -15 25 27 24 45 27 48 8z m-6857 -98
c22 -22 29 -38 24 -51 -5 -16 -11 -12 -33 27 -40 67 -37 74 9 24z m866 18 c0
-5 -5 -11 -11 -13 -6 -2 -11 4 -11 13 0 9 5 15 11 13 6 -2 11 -8 11 -13z
m3605 -11 c3 -8 1 -20 -4 -25 -12 -12 -48 14 -39 29 10 17 36 15 43 -4z m1621
5 c-2 -6 -8 -10 -13 -10 -5 0 -11 4 -13 10 -2 6 4 11 13 11 9 0 15 -5 13 -11z
m822 3 c0 -10 -53 -62 -63 -62 -15 0 -6 50 11 59 21 13 52 14 52 3z m-5292
-59 c44 -55 154 -215 273 -401 45 -70 103 -155 130 -188 l48 -62 -31 -6 c-41
-8 -24 -31 -283 364 -93 140 -174 269 -181 287 -29 69 -11 71 44 6z m307 -2
c3 -5 -5 -17 -17 -25 -24 -17 -35 -8 -24 19 6 17 32 20 41 6z m-655 -30 c7
-15 6 -24 -6 -36 -19 -18 -33 -16 -48 7 -7 12 -6 21 3 32 18 22 38 20 51 -3z
m-1329 -23 c24 -21 30 -33 20 -36 -7 -2 -30 12 -49 32 -47 46 -19 50 29 4z
m5725 18 c19 -15 19 -15 -3 -37 -22 -22 -23 -22 -43 -4 -19 17 -19 19 -4 37
21 22 25 22 50 4z m1294 0 c0 -12 -40 -46 -55 -46 -14 0 -2 31 17 44 28 20 38
20 38 2z m-521 -15 c89 -28 140 -62 218 -145 109 -116 135 -191 114 -327 -16
-100 -58 -174 -145 -257 -104 -99 -145 -116 -286 -120 -138 -4 -196 13 -293
86 -121 92 -184 227 -174 373 7 102 38 168 120 255 76 82 103 101 185 130 83
29 177 31 261 5z m-5017 -66 c9 -20 9 -28 -1 -38 -15 -15 -31 6 -31 41 0 30
18 28 32 -3z m856 0 c7 -14 23 -31 37 -37 l26 -12 -30 -12 c-24 -10 -33 -22
-43 -61 l-12 -48 -8 39 c-10 48 -24 66 -50 66 -16 0 -13 6 16 34 20 18 36 38
36 45 0 20 16 12 28 -14z m233 12 c-1 -12 -15 -9 -19 4 -3 6 1 10 8 8 6 -3 11
-8 11 -12z m-1656 -6 c19 -8 19 -19 20 -354 l1 -346 -325 0 -324 -1 6 182 c4
99 7 257 7 349 l0 168 103 4 c211 6 493 5 512 -2z m3835 -31 l29 -31 -25 -24
c-13 -13 -24 -32 -25 -42 0 -11 -6 -6 -15 15 -8 18 -26 37 -42 43 -27 11 -27
11 -5 20 12 4 28 17 35 29 7 11 14 20 16 20 2 0 17 -14 32 -30z m2330 23 c0
-10 -42 -53 -52 -53 -12 0 -10 34 4 48 13 13 48 17 48 5z m-1140 -19 c0 -8 -4
-12 -10 -9 -5 3 -10 10 -10 16 0 5 5 9 10 9 6 0 10 -7 10 -16z m-5985 -2 c6
-4 16 -15 24 -24 21 -28 -8 -23 -44 7 -26 21 -27 24 -10 24 11 1 25 -3 30 -7z
m5014 -18 c3 -16 1 -17 -13 -5 -19 16 -21 34 -3 29 6 -3 14 -13 16 -24z m542
-27 c-8 -8 -11 -5 -11 9 0 27 14 41 18 19 2 -9 -1 -22 -7 -28z m-5574 -48 c22
-19 16 -41 -9 -34 -25 8 -78 53 -78 67 0 9 66 -16 87 -33z m7183 13 c0 -16
-35 -41 -47 -34 -14 9 -5 26 17 35 22 8 30 8 30 -1z m-7248 -98 c35 -25 49
-44 31 -44 -16 1 -87 45 -91 58 -6 20 19 14 60 -14z m5648 -44 c0 -56 3 -70
15 -70 8 0 15 -4 15 -10 0 -5 -7 -10 -15 -10 -10 0 -15 -10 -15 -33 0 -32 -15
-57 -34 -57 -9 0 -1 224 10 241 15 25 24 2 24 -61z m1648 48 c-6 -16 -36 -34
-44 -25 -9 9 15 37 33 37 8 0 13 -5 11 -12z m-2644 -197 c125 -87 196 -147
196 -166 0 -7 -7 -29 -15 -49 l-15 -35 -65 63 c-68 66 -204 168 -292 218 -52
29 -53 31 -53 74 l0 45 68 -37 c37 -21 116 -72 176 -113z m-1790 117 c13 -49
7 -56 -79 -102 -96 -51 -184 -115 -268 -197 l-58 -56 -20 40 c-12 22 -17 42
-12 46 5 3 42 33 82 66 75 62 317 223 337 224 7 1 14 -9 18 -21z m1455 8 c7
-8 11 -29 9 -47 l-3 -33 -55 4 c-30 3 -80 4 -110 4 -30 0 -284 -2 -564 -3
-280 -2 -533 -6 -563 -10 -50 -7 -56 -6 -70 15 -18 29 -10 71 15 77 9 3 312 5
673 6 559 1 658 -1 668 -13z m-4365 -17 c35 -20 47 -39 26 -39 -6 0 -29 9 -52
21 -31 16 -38 23 -27 30 18 11 12 12 53 -12z m7396 7 c0 -17 -18 -31 -47 -39
-33 -8 -29 19 5 37 34 19 42 19 42 2z m-1810 -46 c-19 -10 -43 -32 -53 -49
-10 -17 -27 -36 -38 -41 -16 -9 -19 -7 -19 8 0 30 84 102 117 102 l28 -1 -35
-19z m1655 -111 c68 -132 147 -365 213 -634 43 -172 92 -515 92 -641 l0 -72
-40 -7 c-21 -4 -44 -4 -50 0 -6 4 -10 50 -10 113 -1 274 -106 750 -249 1124
-36 93 -41 117 -39 179 2 70 2 71 20 47 10 -12 38 -62 63 -109z m-7035 101
c14 -26 -5 -105 -70 -290 -136 -386 -186 -618 -236 -1102 l-5 -58 -50 0 -50 0
5 33 c3 17 10 86 16 152 29 324 111 678 232 1005 53 143 77 195 111 247 26 38
32 40 47 13z m5573 13 c3 -5 7 -21 8 -37 4 -30 33 -67 69 -86 27 -14 25 -27
-5 -43 -14 -7 -33 -28 -43 -47 -12 -25 -28 -39 -58 -49 l-41 -14 -7 -215 c-4
-128 -11 -221 -17 -228 -6 -7 -8 -17 -5 -23 3 -5 2 -19 -2 -32 -14 -36 -21 76
-22 321 -2 349 -3 330 19 330 15 0 20 -10 26 -48 3 -26 5 -54 3 -62 -5 -23 39
-23 72 0 21 15 30 30 30 50 0 16 5 32 10 35 6 3 10 11 10 16 0 6 -4 8 -9 5 -7
-5 -21 23 -52 102 -5 13 -9 25 -9 27 0 8 18 6 23 -2z m-5805 -65 c12 -10 17
-38 7 -38 -4 0 -19 7 -35 15 -36 19 -42 50 -7 39 12 -3 28 -11 35 -16z m4281
5 c158 -14 4 -23 -539 -28 -533 -6 -669 -2 -677 21 -5 14 1084 20 1216 7z
m3177 -4 c3 -6 0 -15 -7 -20 -18 -11 -59 -12 -59 -1 0 8 36 30 52 31 4 1 10
-4 14 -10z m-5758 -16 c5 -10 8 -52 7 -93 -3 -57 -7 -74 -17 -71 -7 3 -23 5
-35 5 -15 1 -23 7 -23 19 0 23 -26 33 -45 17 -20 -17 -35 -4 -35 31 l0 30 54
-6 c44 -6 54 -4 60 10 3 9 1 25 -4 35 -6 10 -10 23 -10 29 0 18 39 12 48 -6z
m164 -30 l3 -38 48 2 c39 1 47 -2 47 -17 0 -14 -11 -20 -41 -25 -34 -6 -44
-13 -52 -36 -12 -32 -28 -37 -46 -15 -10 11 -8 17 6 25 16 8 16 13 5 31 -10
16 -10 25 -2 35 7 8 9 19 5 25 -8 13 3 50 15 50 5 0 10 -17 12 -37z m3662 -55
c9 -12 16 -29 16 -36 0 -21 26 -42 51 -42 22 0 22 -1 7 -16 -21 -21 -68 -11
-68 15 0 10 -11 23 -25 29 -16 8 -25 20 -25 35 0 42 21 49 44 15z m-5554 -23
c21 -26 0 -35 -50 -23 -53 13 -54 14 -45 27 10 17 81 13 95 -4z m7511 -18
c-11 -12 -24 -18 -27 -14 -10 10 27 48 38 41 6 -4 1 -16 -11 -27z m-4567 -33
c3 -8 1 -25 -5 -36 -11 -21 -12 -21 -24 2 -7 13 -11 30 -8 37 7 18 30 16 37
-3z m1609 2 c3 -8 -2 -21 -12 -30 -17 -15 -19 -15 -24 -1 -8 20 2 45 18 45 7
0 15 -6 18 -14z m-2102 -26 c48 -26 66 -133 29 -170 -48 -48 -113 -46 -160 5
-30 32 -33 104 -6 134 31 34 101 50 137 31z m2697 -19 c61 -32 53 -139 -13
-169 -48 -22 -88 -15 -124 22 -30 31 -33 39 -28 73 15 90 80 120 165 74z
m-1071 -15 c-4 -9 -11 -16 -17 -16 -11 0 -14 33 -3 43 11 11 26 -10 20 -27z
m-656 3 c13 -25 0 -43 -24 -33 -25 9 -21 54 4 54 5 0 13 -9 20 -21z m-3471
-19 c0 -13 -11 -13 -30 0 -12 8 -11 10 8 10 12 0 22 -4 22 -10z m3800 -35 c0
-15 -21 -35 -37 -35 -17 0 -17 52 -1 68 10 10 15 9 25 -5 7 -9 13 -22 13 -28z
m3815 30 c-35 -17 -55 -19 -55 -6 0 13 19 19 55 19 l30 0 -30 -13z m-7644 -66
c30 -16 13 -29 -22 -17 -23 8 -27 13 -17 19 17 11 16 11 39 -2z m4909 -173
c26 -52 30 -69 30 -145 0 -81 -19 -185 -27 -150 -2 9 -15 22 -30 30 -42 22
-110 106 -127 156 -19 55 -20 114 -5 217 l11 74 59 -61 c32 -34 72 -89 89
-121z m-2031 105 c27 -165 6 -245 -91 -347 l-53 -56 -3 -100 c-7 -178 39 -428
90 -501 11 -16 18 -31 15 -34 -7 -7 -60 67 -104 145 -29 52 -34 69 -29 100 9
54 9 57 1 183 -5 80 -4 131 4 165 10 41 9 57 -4 93 -25 72 -20 166 14 236 26
55 125 185 141 185 4 0 12 -31 19 -69z m4831 60 c0 -13 -83 -32 -94 -21 -11
11 3 17 49 23 17 2 33 5 38 6 4 0 7 -3 7 -8z m-3308 -122 c-8 -20 -21 -27 -69
-37 -32 -6 -95 -29 -138 -50 -76 -37 -285 -172 -332 -215 l-23 -20 0 45 c0 58
38 112 117 166 53 36 259 143 393 204 l55 25 3 -46 c2 -26 -1 -58 -6 -72z
m-2527 -2 c15 -8 15 -10 -4 -24 -18 -12 -21 -24 -21 -94 0 -60 -3 -80 -12 -77
-8 3 -15 33 -18 84 -5 73 -7 79 -27 82 -22 3 -33 22 -14 22 18 0 41 32 41 56
0 14 5 35 12 47 11 20 13 17 19 -32 5 -35 13 -58 24 -64z m1480 52 c61 -34
163 -88 229 -120 65 -32 127 -66 138 -76 41 -36 50 -79 53 -252 3 -91 7 -216
11 -277 l6 -112 -60 58 c-69 68 -103 87 -255 141 -127 46 -441 129 -487 129
-20 0 -30 5 -30 15 0 16 -4 17 175 -11 108 -16 301 -65 392 -99 81 -31 85 -31
48 0 -64 54 -159 85 -457 150 l-77 17 33 46 c18 26 36 55 40 66 4 13 10 15 19
9 6 -5 26 -15 42 -21 154 -56 284 -106 305 -117 14 -7 66 -27 115 -44 l90 -30
-35 29 c-19 16 -82 50 -140 74 -128 55 -380 137 -393 129 -6 -4 -7 9 -1 33 4
21 7 55 7 74 l-2 35 27 -32 c22 -26 58 -43 196 -93 92 -33 209 -81 258 -106
90 -46 116 -51 84 -15 -30 33 -168 99 -329 157 -83 31 -158 63 -164 72 -7 9
-13 33 -13 54 0 32 3 38 21 38 11 0 39 -11 62 -24 23 -14 95 -48 161 -76 147
-63 192 -86 234 -117 39 -29 42 -16 6 27 -30 35 -133 90 -297 157 -62 25 -118
50 -124 55 -14 11 -18 118 -5 118 4 0 57 -28 117 -61z m-3382 -13 c40 -31 4
-35 -58 -6 l-40 19 40 0 c22 0 48 -6 58 -13z m1256 -49 c38 -68 73 -159 63
-169 -13 -13 -52 4 -52 23 0 27 -68 26 -104 -2 -26 -20 -46 -19 -46 4 -1 19
94 205 102 201 4 -3 20 -28 37 -57z m-729 34 c5 -11 10 -30 10 -42 l0 -22 -24
22 c-26 25 -61 25 -61 1 0 -8 20 -24 43 -36 24 -11 48 -27 53 -35 16 -25 9
-59 -16 -85 -23 -22 -31 -25 -68 -19 -57 10 -78 22 -70 41 5 13 15 15 54 10
27 -4 50 -2 54 3 3 6 -19 28 -50 51 -30 22 -55 48 -55 57 0 9 12 30 27 45 33
34 86 39 103 9z m229 -13 c17 -18 37 -42 45 -53 14 -19 15 -19 16 -1 0 31 64
86 100 86 42 0 70 -16 70 -40 0 -17 -5 -19 -43 -14 -39 6 -46 3 -65 -21 -28
-36 -28 -49 4 -74 19 -15 41 -21 75 -21 28 0 49 -5 49 -11 0 -14 -63 -39 -98
-39 -34 0 -77 36 -93 76 l-10 27 -17 -34 c-50 -100 -170 -99 -212 2 -16 39 -5
76 35 116 46 46 100 47 144 1z m324 -70 c7 -106 0 -131 -28 -108 -12 10 -15
34 -15 111 0 90 2 99 18 99 17 0 20 -12 25 -102z m327 16 l0 -86 53 4 c50 3
52 2 55 -23 4 -31 -14 -37 -98 -29 l-55 5 -3 108 -3 107 26 0 c25 0 25 -1 25
-86z m6350 81 c0 -6 -68 -35 -82 -35 -5 0 -8 6 -6 13 5 14 88 36 88 22z
m-5302 -41 c2 -1 -23 -42 -55 -91 -88 -130 -119 -189 -159 -299 -96 -263 -129
-475 -113 -727 l8 -138 63 -66 c35 -37 83 -86 108 -110 46 -45 131 -106 137
-99 2 2 -1 15 -7 30 -12 34 -14 154 -1 141 5 -6 25 -53 45 -105 52 -133 56
-139 138 -197 40 -29 93 -74 117 -100 l43 -48 -6 40 c-8 57 -114 395 -132 422
-28 43 -83 91 -111 96 -15 3 -45 8 -65 12 -53 8 -130 81 -168 158 -30 61 -58
206 -45 227 4 6 20 -1 40 -19 18 -16 61 -44 95 -62 115 -61 179 -147 180 -240
l0 -47 -42 40 c-55 50 -104 86 -93 67 29 -48 65 -84 125 -124 37 -25 74 -54
81 -66 12 -18 14 -7 16 96 3 124 27 253 48 261 10 4 4 18 -21 51 -31 41 -45
83 -26 83 4 0 16 -13 25 -30 26 -43 89 -91 214 -163 95 -54 135 -71 275 -110
89 -25 179 -49 198 -52 56 -11 152 -59 194 -95 37 -33 38 -36 32 -84 -5 -45
-3 -53 19 -71 34 -28 22 -40 -103 -106 -210 -110 -312 -268 -312 -483 0 -26 9
-94 21 -149 23 -115 62 -196 141 -292 66 -81 208 -207 290 -257 37 -23 72 -52
79 -65 7 -13 14 -21 16 -19 8 8 23 232 25 376 2 183 -7 214 -91 295 -28 27
-51 54 -51 60 0 24 129 125 160 125 13 0 14 16 8 112 -3 62 -7 123 -7 134 -1
13 -10 24 -23 28 l-23 6 25 21 c25 21 25 24 25 169 l0 148 -49 71 c-27 40 -45
75 -41 79 7 7 29 -15 96 -98 l36 -44 18 37 c35 74 49 51 15 -24 -16 -37 -18
-59 -14 -139 6 -101 21 -187 36 -207 5 -7 5 -14 -1 -17 -9 -6 -12 -31 -26
-203 -6 -69 -5 -73 15 -73 31 0 116 -46 163 -89 23 -21 53 -45 67 -54 l24 -17
-39 0 c-26 -1 -67 -14 -115 -39 -106 -53 -103 -38 -69 -471 5 -69 12 -140 16
-158 l6 -34 36 34 c20 19 56 50 81 69 90 69 256 223 292 271 88 116 133 266
131 433 -2 204 -89 340 -298 469 -49 31 -114 73 -143 93 l-53 38 35 3 c34 3
36 6 36 37 0 43 9 65 26 65 9 0 14 -17 16 -52 3 -59 2 -58 150 -138 150 -81
264 -228 303 -391 21 -91 19 -237 -5 -329 -27 -103 -26 -109 11 -74 107 100
228 312 256 451 18 84 17 95 -15 284 -8 45 -46 103 -80 123 -16 9 15 -41 50
-80 l19 -21 -53 5 c-87 7 -140 50 -227 182 l-49 75 29 3 c51 6 172 -17 219
-41 25 -13 58 -41 74 -65 25 -35 29 -50 27 -98 -1 -54 9 -99 47 -202 l15 -43
56 138 55 138 1 180 c0 174 -7 233 -33 249 -6 4 -68 -23 -139 -58 -151 -77
-264 -115 -427 -145 -65 -12 -141 -31 -169 -41 l-50 -19 23 24 c31 33 91 59
180 79 95 21 311 92 370 122 57 28 83 57 103 114 8 25 24 70 35 100 11 30 35
136 54 235 33 179 33 180 36 110 4 -94 -24 -291 -52 -368 -13 -34 -26 -77 -29
-95 l-7 -32 28 14 c15 8 45 33 67 56 45 48 95 86 95 72 0 -5 -18 -34 -40 -66
-22 -31 -40 -63 -40 -70 0 -7 9 -39 20 -72 13 -37 23 -97 26 -159 3 -55 8
-106 10 -114 3 -8 16 3 36 30 22 31 34 61 40 102 15 110 64 166 212 244 55 29
102 51 104 48 2 -2 -1 -38 -6 -81 -21 -154 -98 -257 -217 -288 -32 -8 -61 -13
-64 -11 -2 3 24 34 59 70 34 36 60 69 56 72 -3 4 -16 -3 -29 -14 -12 -11 -39
-35 -59 -53 -21 -18 -40 -42 -44 -54 -4 -12 -24 -46 -45 -76 -24 -35 -51 -97
-75 -170 -20 -63 -50 -148 -65 -188 -16 -40 -29 -87 -29 -104 l0 -31 58 55
c31 30 83 73 114 97 61 46 109 116 126 186 6 22 13 54 17 70 l8 30 7 -25 c13
-40 11 -125 -2 -138 -7 -7 -8 -12 -2 -12 6 0 16 6 22 13 7 6 43 32 80 57 39
27 94 78 134 125 81 97 83 107 82 375 0 163 -4 201 -28 315 -41 193 -111 361
-232 557 -30 48 -54 90 -54 93 0 4 55 35 63 35 7 0 101 -150 145 -232 107
-197 183 -481 186 -688 0 -63 -3 -132 -7 -152 -10 -47 1 -48 30 -3 13 19 57
57 98 85 109 73 310 244 345 291 51 71 55 99 25 164 -28 61 -41 117 -49 208
l-5 58 37 -30 c85 -67 112 -117 112 -208 1 -48 3 -54 11 -38 6 11 22 36 34 55
13 19 26 50 30 68 5 25 12 32 31 32 35 0 30 -19 -21 -73 -36 -39 -125 -177
-125 -193 0 -2 30 11 68 29 89 45 164 69 203 65 30 -3 19 -10 -101 -73 -193
-100 -243 -135 -356 -249 -55 -55 -125 -121 -154 -146 -50 -42 -52 -44 -29
-50 13 -3 107 -3 209 1 169 6 194 9 290 38 106 32 193 77 232 119 l22 22 -28
59 c-40 82 -37 134 10 220 20 36 40 70 45 75 5 6 19 -14 35 -49 37 -80 37
-150 1 -229 -15 -32 -27 -60 -27 -62 0 -2 29 10 64 28 61 30 65 30 81 14 10
-9 16 -18 14 -20 -16 -12 -116 -56 -129 -56 -9 0 -41 -21 -71 -47 -30 -25 -85
-61 -124 -80 l-70 -33 180 3 c175 3 183 4 300 41 211 66 306 126 318 201 6 37
52 125 65 125 4 0 13 -15 20 -32 11 -29 14 -31 25 -17 7 9 27 24 45 33 40 21
160 58 172 54 14 -5 -35 -134 -64 -172 -43 -57 -159 -94 -199 -64 -18 14 -18
15 7 45 41 49 30 63 -12 16 -31 -35 -41 -41 -51 -30 -11 10 -13 8 -8 -8 2 -11
8 -27 11 -35 5 -11 -24 -30 -116 -77 -68 -34 -140 -67 -161 -73 -21 -7 -36
-14 -34 -16 6 -6 383 12 552 26 66 5 224 10 351 10 202 0 233 -2 238 -16 10
-26 7 -31 -26 -45 -26 -11 -111 -14 -418 -12 -212 1 -423 -1 -469 -5 l-85 -7
76 -51 c70 -47 81 -51 150 -57 83 -6 135 -24 181 -63 43 -36 90 -101 82 -114
-9 -15 -150 -12 -188 4 -18 7 -61 44 -95 82 -35 40 -81 79 -109 94 -26 13 -64
34 -83 46 -68 41 -139 57 -262 60 -107 2 -117 0 -109 -15 13 -24 40 -46 104
-84 l57 -35 -36 -7 c-28 -5 -41 -2 -58 13 -11 10 -49 38 -83 61 -35 23 -63 46
-63 51 0 12 -535 12 -565 1 -17 -7 -12 -12 35 -36 79 -40 148 -86 200 -134 25
-22 48 -41 53 -41 10 0 9 -32 -2 -48 -6 -11 -24 2 -72 50 -50 50 -88 76 -179
121 -131 66 -211 86 -275 68 -59 -16 -134 -66 -139 -93 -2 -13 -12 -66 -21
-118 -35 -194 -98 -366 -193 -523 -87 -144 -123 -188 -147 -181 -68 21 -67 19
-27 62 49 52 154 228 193 322 43 100 109 293 103 299 -7 7 -60 -46 -135 -136
-70 -84 -119 -120 -198 -148 -57 -20 -178 -113 -252 -194 -32 -35 -80 -100
-106 -145 -126 -218 -207 -327 -353 -474 -45 -46 -80 -87 -78 -91 5 -15 215
45 292 82 82 41 170 104 257 184 31 29 59 53 61 53 3 0 11 -19 18 -41 14 -41
14 -41 -21 -70 -183 -156 -321 -240 -544 -334 -144 -61 -144 -61 -115 -34 14
13 37 37 50 52 l25 29 -40 -19 c-124 -57 -251 -158 -316 -251 -39 -55 -105
-209 -95 -220 4 -3 7 -3 9 -1 2 2 27 42 57 88 30 46 56 79 57 74 2 -5 -16 -54
-40 -109 -65 -146 -72 -182 -70 -321 3 -205 31 -303 114 -397 85 -96 136 -106
533 -106 285 0 493 -10 921 -45 99 -9 205 -15 237 -15 61 0 284 -26 334 -39
28 -8 37 -4 77 31 45 38 47 38 71 23 13 -9 27 -22 29 -30 10 -24 -230 -223
-388 -322 -133 -83 -368 -211 -529 -289 -397 -191 -831 -304 -1261 -329 -55
-3 -117 -8 -137 -11 l-38 -6 0 45 0 45 68 7 c275 27 562 70 707 106 105 26
380 116 426 140 20 10 88 40 150 67 204 88 541 275 666 370 41 31 92 67 112
79 l36 23 -45 -3 c-25 -1 -51 -6 -57 -10 -7 -5 -13 -4 -13 1 0 5 -9 12 -21 15
-14 4 -18 2 -12 -7 4 -6 0 -3 -9 7 -10 11 -18 14 -18 8 0 -7 -8 -7 -26 0 -34
12 -43 4 -18 -17 18 -14 18 -15 -3 -4 -13 6 -23 14 -23 18 0 4 -9 8 -20 9 -11
1 -20 -2 -20 -7 0 -4 -10 -6 -22 -3 -19 4 -20 3 -8 -6 22 -15 7 -13 -26 4 -22
11 -30 12 -36 2 -6 -9 -8 -9 -8 1 0 8 -5 10 -12 5 -18 -10 -42 -10 -50 1 -3 5
-14 2 -23 -7 -20 -20 -22 -20 -31 -5 -4 7 -3 8 4 4 7 -4 12 -3 12 2 0 5 -9 12
-20 15 -14 4 -20 0 -21 -11 0 -10 -3 -12 -5 -5 -3 6 -18 9 -37 7 -23 -4 -28
-2 -17 5 8 5 11 14 6 18 -4 4 -16 -2 -25 -14 -16 -20 -21 -20 -45 -8 -23 12
-26 12 -26 -3 0 -13 -2 -13 -16 4 -13 16 -15 16 -10 1 8 -25 -9 -21 -22 6 -8
17 -11 18 -11 5 -1 -10 -5 -18 -11 -18 -5 0 -10 8 -10 18 0 14 -2 15 -9 2 -6
-8 -7 -19 -4 -25 4 -5 -3 -1 -15 9 -12 11 -25 16 -30 11 -4 -4 -1 -10 6 -12 6
-3 12 -12 12 -21 -1 -15 -2 -15 -11 1 -5 9 -15 17 -20 17 -6 0 -7 -5 -3 -11 5
-8 1 -8 -14 0 -32 17 -47 14 -31 -6 13 -15 11 -16 -13 -10 -23 6 -27 4 -22
-10 3 -11 0 -9 -8 5 -11 17 -17 19 -26 10 -6 -6 -27 -11 -46 -10 -27 1 -38 -4
-47 -19 -10 -19 -11 -20 -23 -3 -7 9 -18 14 -24 10 -7 -4 -12 -2 -12 3 0 10
27 15 56 12 6 -1 19 8 29 19 21 23 41 26 48 8 3 -7 6 -5 6 6 1 19 1 19 22 0
13 -12 23 -14 27 -8 4 6 16 16 27 22 17 9 14 10 -17 5 -26 -4 -38 -2 -38 6 0
7 -5 9 -12 4 -7 -4 -21 -6 -31 -5 -10 2 -27 -7 -38 -19 -18 -21 -22 -22 -41
-10 -19 12 -23 11 -35 -5 -8 -11 -21 -18 -30 -16 -8 2 -12 -1 -8 -7 3 -7 0 -8
-9 -5 -9 3 -14 9 -12 13 2 3 -48 5 -112 3 -117 -3 -117 -3 -94 -23 13 -10 42
-24 65 -30 22 -6 133 -41 246 -79 113 -37 222 -71 241 -75 42 -9 145 -53 138
-60 -2 -2 -26 2 -54 10 -27 8 -98 21 -159 30 -60 9 -135 27 -165 40 -30 13
-114 38 -185 55 -160 40 -166 42 -240 90 -45 29 -73 40 -114 44 -29 3 -79 8
-110 12 l-56 6 60 -57 c75 -70 115 -89 235 -110 128 -21 152 -30 211 -77 66
-52 121 -76 194 -84 39 -5 86 -21 134 -46 73 -37 73 -49 1 -27 -19 5 -76 14
-127 19 -87 8 -99 12 -215 73 -111 58 -130 65 -199 70 -41 4 -103 15 -136 25
l-60 19 17 -45 c43 -112 121 -161 275 -173 81 -6 116 -14 185 -43 47 -20 93
-36 102 -36 24 0 48 -11 48 -21 0 -16 -63 -9 -159 17 -77 21 -251 40 -251 28
0 -2 9 -19 21 -38 30 -51 6 -47 -46 8 -23 24 -71 60 -106 79 -35 20 -79 52
-98 71 -27 28 -57 42 -148 72 -62 20 -116 35 -118 32 -2 -2 1 -23 7 -46 9 -35
27 -57 108 -131 54 -49 134 -112 179 -141 45 -29 86 -61 92 -71 5 -11 7 -19 4
-19 -3 0 -43 20 -89 45 -50 27 -90 43 -100 39 -10 -4 -16 -1 -17 7 0 13 -38
47 -142 126 -71 54 -82 69 -106 143 -20 63 -28 75 -69 103 -72 50 -99 78 -135
139 l-34 57 -7 -82 c-7 -94 -2 -118 50 -219 31 -60 63 -98 183 -216 79 -79
145 -152 146 -163 2 -22 -10 -26 -18 -5 -5 12 -99 89 -133 109 -8 4 -10 -9 -6
-43 8 -89 -8 -93 -32 -8 -20 67 -31 85 -86 144 -34 37 -76 88 -91 113 l-29 45
0 -55 c1 -29 5 -220 10 -423 9 -370 7 -406 -25 -406 -20 0 -24 10 -40 95 -11
57 -15 168 -17 427 l-1 351 -20 -29 c-11 -16 -57 -65 -102 -110 -72 -72 -83
-87 -99 -145 -33 -115 -36 -119 -32 -36 3 42 1 77 -2 77 -4 -1 -25 -14 -47
-30 -55 -40 -114 -72 -127 -68 -6 2 45 51 113 108 151 128 206 183 254 255 48
74 55 100 55 225 l0 105 -38 -64 c-27 -47 -56 -79 -113 -121 -63 -49 -77 -65
-88 -102 -25 -81 -48 -113 -109 -152 -44 -29 -72 -57 -112 -117 -29 -43 -55
-79 -57 -79 -3 0 -2 13 2 30 4 16 4 30 0 30 -7 0 -101 -62 -136 -91 -15 -12
-33 -19 -39 -17 -20 6 44 72 113 116 35 22 79 60 100 85 20 25 57 58 82 73 33
21 53 44 72 82 14 29 23 55 20 59 -3 3 -52 -6 -109 -21 -98 -25 -105 -29 -148
-76 -30 -32 -64 -56 -100 -71 -61 -25 -135 -72 -144 -91 -3 -7 -2 0 1 16 l6
29 -84 -7 c-46 -4 -96 -14 -111 -22 -32 -17 -177 -48 -185 -41 -11 12 10 27
58 42 28 8 75 26 103 39 32 15 88 29 142 36 104 13 183 50 277 132 52 45 67
52 160 75 168 41 233 83 307 195 36 55 115 236 107 244 -2 3 -16 -13 -30 -33
-34 -49 -72 -79 -177 -138 -147 -84 -206 -124 -254 -175 -26 -28 -60 -57 -76
-65 -43 -22 -161 -52 -235 -60 -57 -6 -75 -14 -125 -51 -95 -69 -134 -85 -234
-94 -59 -6 -105 -16 -131 -29 -51 -27 -79 -28 -45 -1 53 42 117 72 174 81 67
11 124 38 182 85 47 38 119 73 152 74 45 0 177 32 203 48 15 9 53 42 86 72
l60 56 -71 -18 c-39 -9 -88 -15 -109 -13 -31 4 -51 -3 -115 -39 -43 -25 -124
-59 -182 -76 -58 -18 -143 -44 -190 -60 -47 -16 -137 -38 -202 -49 -64 -12
-135 -28 -157 -36 -23 -8 -41 -10 -41 -5 0 6 6 10 14 10 8 0 16 4 18 8 6 16
116 60 228 92 181 51 401 127 419 144 14 15 7 16 -74 17 -50 1 -113 2 -142 3
-28 1 -49 -2 -46 -7 2 -4 -5 -7 -16 -7 -11 0 -22 -4 -26 -9 -3 -6 -14 -8 -25
-6 -12 2 -18 0 -15 -5 3 -5 1 -11 -5 -15 -5 -3 -10 -1 -10 5 0 5 -13 9 -30 8
-16 -1 -30 -6 -30 -10 0 -4 -7 -4 -17 -1 -12 5 -14 3 -8 -8 6 -11 5 -12 -6 -2
-16 16 -33 17 -23 1 5 -7 3 -8 -6 -3 -7 4 -30 9 -51 11 -28 3 -41 -1 -48 -14
-5 -9 -13 -14 -17 -10 -4 4 -1 14 6 23 11 13 10 14 -4 9 -9 -3 -16 -14 -17
-23 0 -9 -3 -11 -5 -4 -3 7 -12 9 -20 6 -8 -3 -14 -1 -14 4 0 6 18 18 41 28
35 16 42 17 50 4 7 -12 9 -12 9 1 0 8 11 20 25 26 15 8 23 8 22 2 -1 -6 4 -13
11 -15 7 -3 11 1 10 8 -2 10 7 13 31 12 19 -1 44 3 55 9 11 6 43 17 71 24 l50
12 -55 1 c-30 1 -79 3 -107 5 -48 3 -53 2 -53 -18 -1 -20 -1 -20 -14 3 -10 18
-15 21 -20 10 -5 -11 -7 -11 -12 -1 -5 10 -10 9 -21 -5 -11 -13 -16 -15 -20
-5 -4 10 -8 10 -19 1 -8 -6 -14 -7 -14 -2 0 5 -9 9 -20 9 -13 0 -20 -7 -21
-21 0 -17 -2 -17 -10 5 -7 18 -12 21 -18 11 -10 -16 -22 -16 -32 1 -7 10 -9
10 -9 0 0 -7 -4 -10 -10 -7 -5 3 -10 1 -10 -5 0 -7 -6 -8 -18 -1 -11 6 -24 6
-32 1 -9 -6 -17 -5 -22 3 -6 9 -8 9 -8 -1 0 -9 -7 -11 -20 -7 -11 4 -20 2 -20
-4 0 -6 -5 -11 -11 -11 -6 0 -9 7 -5 15 7 19 1 19 -18 -1 -14 -13 -16 -13 -16
0 0 11 -7 13 -27 9 -16 -3 -35 -6 -43 -6 -8 0 -21 -7 -28 -16 -11 -14 -11 -14
-6 2 5 13 2 16 -10 11 -9 -3 -16 -14 -16 -23 -1 -11 -5 -9 -14 8 -9 17 -15 20
-18 10 -4 -12 -8 -12 -23 1 -17 14 -18 13 -12 -4 6 -16 5 -17 -8 -6 -12 10
-15 10 -15 0 0 -10 -3 -10 -14 -1 -8 7 -16 8 -19 4 -7 -11 -157 -9 -182 2
l-20 8 20 -23 c72 -83 689 -439 850 -490 22 -7 60 -23 85 -35 61 -30 294 -106
461 -150 147 -38 427 -87 604 -105 141 -14 145 -15 145 -48 0 -52 -5 -53 -141
-42 -318 27 -687 108 -999 220 -207 74 -565 249 -775 380 -93 58 -330 235
-377 282 -42 42 -46 57 -21 94 l16 25 36 -34 c47 -45 75 -59 88 -46 6 6 118
19 250 30 131 10 308 25 394 34 190 19 578 35 874 35 335 1 402 15 478 99 86
95 118 208 120 421 2 144 1 146 -35 240 -31 83 -51 150 -43 150 2 0 22 -30 46
-67 51 -78 65 -65 25 23 -39 84 -89 149 -190 247 -128 124 -146 137 -203 143
-26 3 -64 7 -83 9 -94 10 -239 81 -395 195 -148 109 -170 131 -156 157 24 46
34 45 97 -10 80 -70 190 -150 240 -175 38 -19 315 -104 321 -98 2 1 -54 63
-123 137 -156 167 -207 233 -295 382 -76 127 -150 216 -279 332 -61 55 -91 76
-118 80 -60 10 -102 36 -156 99 -28 33 -80 91 -116 129 -80 84 -137 120 -73
46 7 -9 36 -76 62 -150 68 -184 127 -310 200 -417 33 -50 61 -95 61 -101 0
-10 -25 -21 -48 -21 -18 1 -49 40 -120 155 -97 155 -162 326 -196 517 -16 85
-50 152 -102 197 -44 39 -67 45 -165 39 -106 -6 -212 -58 -324 -158 -44 -39
-93 -78 -109 -86 -28 -15 -29 -15 -24 4 10 38 -35 11 -106 -64 -50 -53 -81
-77 -114 -89 -47 -15 -187 -21 -195 -7 -9 14 12 49 56 94 71 73 109 88 253 97
112 8 127 11 159 35 19 15 35 31 35 35 0 13 111 96 167 124 28 15 54 31 58 37
4 7 -63 10 -202 10 -220 0 -346 -8 -338 -21 3 -4 -27 -28 -67 -53 -43 -27
-100 -75 -139 -118 -87 -96 -145 -128 -248 -135 -45 -3 -81 -2 -84 4 -10 16
107 136 159 165 27 15 74 30 104 34 30 4 68 15 85 25 16 9 50 28 75 42 82 46
62 57 -106 57 -73 0 -129 -5 -165 -16 -73 -22 -201 -87 -226 -116 -12 -13 -40
-44 -63 -70 -56 -63 -116 -91 -196 -92 -35 -1 -68 4 -74 10 -18 18 10 63 71
118 58 52 111 70 178 61 44 -6 50 -3 119 45 39 28 72 54 72 59 0 18 -68 21
-490 18 -405 -2 -438 -1 -463 16 -27 18 -28 18 -46 -4 -18 -22 -17 -23 16 -52
41 -36 42 -59 3 -87 l-30 -21 -37 30 c-41 33 -148 70 -343 121 -69 18 -129 37
-134 41 -13 11 28 26 143 50 93 20 188 44 299 76 52 16 52 16 52 56 l0 41 50
-49 c27 -27 50 -54 50 -60 0 -5 -18 -20 -40 -33 -41 -23 -48 -36 -29 -48 6 -3
91 -6 188 -5 187 2 639 -20 831 -40 167 -18 180 -5 53 49 -139 60 -203 98
-203 122 0 11 2 20 4 20 2 0 63 -29 137 -64 74 -35 163 -74 199 -86 79 -26
280 -44 395 -34 l80 7 -54 23 c-30 14 -75 44 -100 67 -27 25 -75 55 -116 72
-76 31 -95 43 -95 56 0 16 57 10 104 -11 25 -10 46 -16 46 -12 0 4 -14 27 -30
52 -41 62 -40 121 3 214 l33 70 37 -71 c42 -80 48 -138 21 -208 -29 -74 -28
-77 18 -124 48 -48 126 -91 209 -115 45 -13 98 -16 284 -14 l229 3 -68 53
c-37 30 -110 94 -161 143 -96 91 -201 165 -340 239 -137 72 -139 84 -5 41 51
-17 108 -39 126 -50 19 -11 34 -19 34 -17 0 9 -90 160 -107 179 -32 37 -53 71
-53 84 0 18 27 16 34 -2 3 -8 27 -42 53 -75 l48 -60 6 68 c3 37 13 81 21 97
21 39 86 101 95 91 5 -4 8 -40 7 -79 -1 -55 -9 -92 -32 -155 l-32 -83 25 -49
c14 -27 39 -65 56 -85 38 -43 196 -170 302 -242 54 -37 83 -65 97 -93 11 -22
28 -40 36 -40 12 0 14 5 8 18 -12 23 -8 233 6 329 34 235 128 482 258 683 l57
87 35 -16 c19 -8 36 -16 38 -17z m4108 -43 c-3 -21 -16 -62 -29 -92 -13 -30
-29 -67 -36 -83 -10 -25 -14 -27 -26 -15 -8 8 -21 32 -28 54 l-14 40 -24 -47
c-14 -29 -30 -48 -40 -48 -18 0 -25 15 -60 125 -12 39 -24 76 -27 83 -3 8 6
12 26 12 27 0 31 -4 37 -38 13 -77 34 -80 55 -7 18 63 44 62 63 -2 17 -57 33
-65 42 -21 9 44 32 78 52 78 13 0 14 -7 9 -39z m544 -11 l5 -45 19 30 c26 41
45 55 73 55 31 0 29 -5 -12 -41 -19 -17 -35 -37 -35 -44 0 -7 18 -36 40 -64
22 -28 40 -57 40 -66 0 -31 -40 -13 -84 38 l-46 52 0 -53 c0 -52 -1 -53 -27
-50 l-28 3 2 115 c2 63 3 116 3 118 0 2 10 2 23 0 18 -2 23 -11 27 -48z m-350
20 c90 -64 43 -210 -68 -210 -54 0 -112 66 -112 127 0 18 12 40 37 65 30 31
44 38 76 38 23 0 50 -8 67 -20z m203 8 c49 -26 60 -69 28 -110 -20 -25 -20
-25 4 -61 l25 -36 -22 -7 c-17 -5 -30 3 -62 37 l-41 43 -3 -30 c-4 -34 -19
-54 -40 -54 -12 0 -14 11 -8 68 4 37 2 88 -2 115 l-9 47 54 0 c30 0 64 -5 76
-12z m-2465 -46 l-1 -47 -96 -30 c-130 -40 -261 -100 -351 -162 -129 -87 -139
-119 -14 -46 96 57 346 168 411 184 27 6 58 18 71 25 22 14 22 14 22 -48 0
-44 8 -81 25 -123 14 -33 25 -61 25 -62 0 -2 -13 -3 -29 -3 -47 0 -269 -68
-332 -101 -32 -17 -75 -46 -96 -64 -21 -18 -65 -47 -98 -65 -33 -18 -86 -55
-117 -82 -31 -26 -59 -48 -62 -48 -3 0 -3 26 0 58 3 31 9 121 13 200 7 133 9
144 32 167 46 45 287 176 409 222 35 13 82 32 105 42 45 21 67 29 77 30 4 1 6
-20 6 -47z m-4524 18 c14 -5 26 -14 26 -20 0 -14 -53 -13 -86 2 l-27 13 24 6
c35 10 35 10 63 -1z m7786 -20 c-14 -11 -33 -20 -42 -20 -29 0 -21 29 10 36
15 3 32 7 37 9 21 5 19 -7 -5 -25z m-7792 -98 c2 -7 -3 -12 -10 -12 -14 0 -98
38 -98 44 0 9 104 -22 108 -32z m5190 16 c14 -14 16 -48 3 -48 -6 0 -17 10
-25 22 -22 31 -4 52 22 26z m2652 4 c0 -4 -20 -18 -45 -30 -34 -17 -45 -18
-45 -8 0 8 17 21 38 29 43 19 52 20 52 9z m-5255 -12 c3 -6 4 -19 0 -30 -7
-23 -35 -16 -35 9 0 29 22 42 35 21z m-1467 -72 c3 -15 -4 -18 -42 -18 -34 0
-46 -4 -46 -15 0 -11 12 -15 43 -15 l42 -1 -24 -19 c-13 -11 -29 -20 -37 -20
-13 0 -19 -15 -26 -65 -2 -12 -11 -20 -23 -20 -19 0 -20 6 -17 90 2 55 8 93
15 97 7 5 34 7 62 6 38 -2 51 -7 53 -20z m150 5 c-2 -13 -15 -19 -46 -21 -53
-4 -54 -18 -2 -27 30 -5 40 -11 40 -26 0 -15 -7 -19 -35 -19 -28 0 -35 -4 -35
-19 0 -16 8 -20 38 -23 30 -2 38 -7 40 -27 3 -22 1 -23 -28 -17 -18 3 -45 6
-60 6 -28 0 -28 0 -35 84 -4 46 -4 89 -1 95 4 6 34 11 67 11 52 0 60 -2 57
-17z m-1388 -3 c0 -5 -4 -10 -10 -10 -5 0 -10 5 -10 10 0 6 5 10 10 10 6 0 10
-4 10 -10z m1062 -90 c3 -81 2 -85 -19 -88 -21 -3 -22 -1 -18 83 3 47 7 91 11
96 14 23 23 -10 26 -91z m2182 73 c-13 -62 -26 -92 -46 -109 -21 -19 -21 -19
-13 1 4 11 14 41 21 68 15 54 21 67 35 67 5 0 7 -12 3 -27z m-2334 -48 l0 -65
46 0 c41 0 45 -2 42 -22 -3 -21 -10 -23 -62 -26 -32 -2 -62 1 -67 5 -4 4 -5
45 -2 91 5 71 8 82 24 82 17 0 19 -8 19 -65z m3873 13 c4 -24 9 -56 13 -73 7
-27 6 -29 -9 -16 -10 7 -17 18 -17 23 0 5 -10 22 -21 38 -21 28 -21 30 -5 55
22 33 32 26 39 -27z m-4714 36 c17 -4 31 -13 31 -21 0 -16 -25 -11 -70 13 -28
15 -13 18 39 8z m7921 1 c0 -5 -75 -45 -85 -45 -3 0 -5 6 -5 14 0 7 15 18 33
24 37 11 57 14 57 7z m-7936 -91 c9 -3 16 -13 16 -21 0 -11 -5 -13 -17 -7 -10
4 -35 9 -55 12 -21 2 -38 8 -38 13 0 10 70 12 94 3z m7929 -14 c-4 -4 -23 -10
-41 -14 -40 -7 -41 15 -1 25 28 7 54 0 42 -11z m-1914 -25 c23 -7 23 -7 -8
-26 -17 -10 -31 -26 -31 -34 0 -8 -4 -15 -10 -15 -5 0 -10 8 -10 18 0 10 -5
23 -12 30 -7 7 -20 12 -30 12 -28 0 -21 15 15 31 25 12 35 12 47 3 8 -6 26
-15 39 -19z m-4094 14 c4 -5 19 -15 33 -20 l27 -11 -26 -13 c-17 -9 -29 -26
-33 -47 l-7 -33 -13 31 c-8 18 -24 34 -37 37 l-23 6 29 31 c31 32 40 36 50 19z
m5534 -37 c3 -1 -5 -9 -17 -18 -13 -9 -22 -26 -23 -42 -1 -27 -1 -27 -15 6 -8
18 -21 35 -29 37 -50 16 -51 17 -20 28 17 5 34 16 38 24 7 12 14 11 35 -9 15
-12 29 -24 31 -26z m-6939 19 l31 -18 -25 -17 c-14 -9 -29 -16 -34 -16 -5 0
-13 -15 -18 -32 l-8 -33 -3 36 c-3 26 -10 38 -24 42 -26 7 -24 19 9 39 34 22
35 22 72 -1z m4890 -161 c-22 -129 -98 -240 -175 -254 -20 -4 -39 -5 -42 -2
-3 3 8 22 24 43 17 21 38 54 47 73 14 30 9 27 -42 -28 -66 -71 -72 -69 -72 21
0 95 79 196 207 265 l58 31 3 -42 c2 -22 -2 -71 -8 -107z m-2758 20 c46 -47
63 -108 59 -205 l-2 -30 -49 53 c-28 29 -50 51 -50 47 0 -15 35 -70 68 -107
l37 -41 -35 8 c-132 27 -206 133 -218 313 l-5 83 79 -41 c43 -23 96 -59 116
-80z m-2659 78 c10 -5 16 -12 13 -15 -6 -6 -116 26 -116 34 0 7 82 -8 103 -19z
m4752 13 c8 -14 -21 -26 -95 -40 -36 -7 -96 -21 -134 -33 -161 -47 -286 -75
-275 -62 22 27 297 117 402 133 87 12 95 12 102 2z m70 -331 c9 -35 21 -73 27
-83 5 -10 8 -21 5 -23 -2 -3 -63 -16 -135 -29 -71 -13 -165 -33 -209 -44 -43
-11 -125 -29 -182 -40 -57 -11 -133 -34 -169 -51 -72 -33 -111 -41 -77 -14 43
34 143 74 234 95 53 12 159 36 236 55 77 18 169 39 205 45 l66 13 -23 79 c-19
66 -23 101 -22 206 l2 126 12 -135 c7 -74 20 -164 30 -200z m3126 304 c-34
-15 -61 -13 -61 6 0 5 21 10 48 9 l47 -1 -34 -14z m-4809 -72 c-8 -100 -34
-236 -52 -272 l-20 -40 27 -6 c16 -3 62 -15 103 -26 166 -44 271 -69 387 -92
118 -23 182 -48 190 -73 3 -8 -12 -5 -41 8 -25 11 -105 31 -178 44 -73 13
-176 35 -228 48 -52 14 -132 33 -178 43 -46 9 -90 23 -99 29 -15 11 -15 14 0
35 21 30 55 185 63 284 4 58 9 75 17 67 6 -6 10 -28 9 -49z m1596 16 c-3 -31
-4 -32 -143 -75 -402 -126 -533 -179 -602 -246 -37 -34 -39 -32 -19 17 29 70
179 170 346 231 85 30 363 104 398 104 20 1 23 -3 20 -31z m2411 -50 c-11 -40
-32 -91 -47 -112 -35 -51 -108 -86 -180 -86 l-54 0 7 33 c11 56 53 132 87 157
26 19 170 76 200 79 4 1 -2 -32 -13 -71z m-6304 25 c114 -45 172 -103 190
-189 6 -30 5 -31 -35 -38 -114 -18 -231 86 -256 228 -8 44 -10 44 101 -1z
m2435 16 c252 -60 470 -142 550 -207 71 -58 90 -82 90 -114 l0 -30 -49 44
c-81 72 -187 120 -401 181 -107 30 -212 59 -233 62 -46 9 -67 28 -67 61 0 29
3 29 110 3z m-3286 -20 c18 -16 -2 -20 -48 -8 -25 6 -46 16 -46 21 0 11 80 0
94 -13z m8006 2 c0 -8 -47 -21 -76 -21 -8 0 -14 7 -14 15 0 11 12 15 45 15 25
0 45 -4 45 -9z m-3281 -122 c-7 -4 -81 -26 -164 -49 -158 -44 -402 -123 -446
-146 -14 -7 -51 -34 -82 -59 -58 -47 -70 -44 -45 10 12 27 80 76 163 118 72
36 218 83 385 124 80 19 156 41 170 48 23 13 25 12 28 -12 2 -14 -2 -29 -9
-34z m-4729 19 c0 -19 -23 -23 -79 -12 -42 9 -39 20 5 22 20 1 38 3 40 5 11
11 34 1 34 -15z m408 -14 c111 -32 157 -58 176 -99 24 -49 26 -100 6 -100 -8
0 -21 -6 -28 -12 -7 -7 -29 -13 -48 -13 -73 0 -134 55 -170 154 -28 79 -30
101 -9 92 9 -3 41 -13 73 -22z m3015 -30 c248 -69 310 -92 386 -143 55 -38
111 -105 98 -118 -4 -3 -28 14 -55 39 -56 50 -144 88 -322 138 -137 39 -314
96 -341 110 -27 15 -24 30 6 30 14 0 117 -25 228 -56z m4577 46 c8 -1 2 -6
-15 -11 -16 -5 -36 -7 -43 -4 -21 8 -3 25 21 21 12 -3 29 -5 37 -6z m-3240
-107 c0 -37 8 -34 -195 -78 -281 -62 -358 -85 -443 -131 l-84 -45 19 32 c34
60 131 106 325 154 156 39 331 95 347 111 19 18 31 2 31 -43z m-1420 -19 c73
-25 183 -59 244 -74 61 -15 133 -38 160 -50 57 -28 126 -89 126 -114 0 -14 -6
-11 -29 12 -43 42 -81 57 -247 97 -190 45 -361 93 -396 111 -34 17 -40 64 -9
64 10 0 78 -21 151 -46z m-3340 20 c0 -14 -8 -16 -52 -10 -78 11 -84 26 -10
26 51 0 62 -3 62 -16z m7998 -1 c2 -8 -5 -13 -17 -13 -21 0 -35 13 -24 24 10
10 36 3 41 -11z m-8044 -79 c19 5 26 3 26 -9 0 -10 -10 -15 -30 -15 -16 0 -30
2 -30 4 0 2 -3 13 -6 23 -4 14 -4 15 4 4 6 -9 19 -11 36 -7z m8042 -5 c3 -6 1
-16 -5 -22 -6 -6 -11 -23 -11 -38 0 -15 -5 -31 -12 -35 -8 -5 -9 2 -5 26 4 18
7 43 7 56 0 25 14 32 26 13z m209 -19 c3 -5 1 -19 -5 -30 -10 -19 -7 -23 33
-40 25 -11 116 -38 202 -60 167 -43 225 -63 225 -78 0 -5 -69 -26 -152 -46
-210 -51 -274 -73 -297 -102 -24 -31 -49 -30 -84 1 -29 28 -27 44 11 78 17 15
19 27 15 85 -5 66 -11 78 -53 102 -12 7 -5 18 35 54 53 48 60 52 70 36z
m-8239 -56 c-4 -9 -9 -15 -11 -12 -3 3 -3 13 1 22 4 9 9 15 11 12 3 -3 3 -13
-1 -22z m4055 -122 c-18 -33 -38 -44 -74 -38 -82 13 -92 37 -14 35 30 -1 62 3
73 9 26 15 26 15 15 -6z m-3831 -164 c1 -69 23 -292 41 -418 37 -257 151 -653
254 -881 61 -133 62 -139 29 -188 -15 -23 -29 -39 -32 -36 -10 10 -115 255
-152 355 -138 372 -230 819 -230 1112 l0 67 33 4 c17 2 38 5 45 5 6 1 12 -8
12 -20z m7635 -85 c-23 -396 -164 -982 -306 -1281 l-40 -83 -29 21 c-35 25
-37 42 -10 112 96 247 147 414 216 711 36 157 74 442 74 559 l0 68 51 0 51 0
-7 -107z m158 65 c7 -25 1 -38 -18 -38 -21 0 -27 17 -13 40 16 26 24 25 31 -2z
m-8003 -23 c11 -13 7 -15 -24 -15 -34 0 -44 8 -29 23 11 12 40 8 53 -8z m7045
-24 c22 -6 52 -21 66 -33 32 -27 109 -126 109 -139 0 -14 -127 -10 -164 5 -42
18 -109 77 -137 122 -24 40 -23 43 23 54 34 8 38 8 103 -9z m939 -62 c-8 -14
-24 -10 -24 6 0 9 6 12 15 9 8 -4 12 -10 9 -15z m-8054 -5 c0 -2 -7 -4 -15 -4
-8 0 -15 4 -15 10 0 5 7 7 15 4 8 -4 15 -8 15 -10z m80 1 c0 -10 -10 -15 -30
-15 -29 0 -38 9 -23 23 13 13 53 7 53 -8z m4450 -20 c0 -8 -4 -15 -9 -15 -13
0 -22 16 -14 24 11 11 23 6 23 -9z m2294 -49 c23 -13 52 -39 66 -57 29 -39 60
-87 60 -94 0 -3 -42 -5 -92 -5 -132 1 -175 23 -263 143 l-27 37 107 0 c96 0
113 -3 149 -24z m1264 -38 c21 -18 13 -28 -23 -28 -31 0 -35 3 -35 26 0 22 3
24 23 18 12 -3 28 -11 35 -16z m-8000 -5 c-2 -12 -14 -19 -36 -21 -35 -4 -43
11 -14 27 28 17 54 13 50 -6z m1972 -29 c11 -12 10 -18 -3 -32 -16 -15 -18
-15 -33 0 -19 18 -12 48 9 48 8 0 20 -7 27 -16z m4283 -81 c12 -41 19 -48 48
-56 l34 -10 -29 -8 c-37 -10 -66 -37 -66 -61 0 -10 -4 -18 -10 -18 -5 0 -10
14 -10 30 0 23 -6 33 -25 42 -14 6 -25 14 -25 18 0 4 11 12 25 18 17 8 25 20
25 36 0 24 9 56 16 56 2 0 10 -21 17 -47z m-6243 3 c0 -9 -15 -17 -40 -21 -54
-9 -74 5 -29 21 46 17 69 17 69 0z m1705 -20 c11 -26 22 -35 42 -38 l28 -3
-37 -22 c-26 -15 -37 -30 -40 -49 -4 -38 -28 -44 -28 -7 0 37 -16 53 -52 53
-38 0 -35 15 5 26 22 7 36 19 46 42 8 17 16 32 18 32 2 0 10 -15 18 -34z
m4254 -13 c-9 -10 -15 -10 -25 -2 -17 14 -18 36 -1 42 19 7 39 -23 26 -40z
m2038 33 c13 -13 -8 -18 -46 -11 -54 9 -54 29 0 22 22 -3 43 -8 46 -11z m-547
-101 c0 -3 -9 -5 -21 -5 -13 0 -23 -10 -30 -30 -6 -16 -15 -30 -19 -30 -5 0
-11 14 -15 30 -5 25 -11 30 -36 30 -38 0 -37 14 1 30 17 7 30 20 30 30 0 9 3
19 6 23 5 5 84 -67 84 -78z m-6904 -13 c-9 -10 -16 -26 -16 -35 0 -23 -15 -21
-31 4 -8 11 -30 24 -49 29 l-35 8 32 13 c17 7 37 24 43 37 l11 25 31 -32 c29
-29 30 -33 14 -49z m-541 27 c10 -15 1 -21 -45 -29 -50 -9 -57 15 -7 29 43 13
45 13 52 0z m7969 -5 c33 -13 16 -27 -25 -21 -56 7 -75 27 -27 27 20 0 43 -3
52 -6z m-7939 -93 c7 -13 -27 -31 -59 -31 -32 0 -34 17 -3 30 30 12 55 12 62
1z m7915 -11 c24 -15 -2 -31 -38 -24 -40 8 -43 34 -4 34 15 0 34 -5 42 -10z
m-4252 -21 c4 -19 -19 -31 -38 -19 -18 11 -4 42 17 38 10 -2 19 -10 21 -19z
m561 -33 c9 -11 8 -18 -4 -30 -31 -31 -74 -10 -52 25 14 22 40 25 56 5z m2901
-425 c0 -237 -4 -432 -8 -435 -4 -2 -125 -7 -267 -10 -200 -5 -272 -3 -310 7
l-50 13 -5 427 -5 427 323 0 322 0 0 -429z m-7114 374 c-21 -16 -84 -31 -92
-22 -10 10 50 36 81 36 28 0 29 0 11 -14z m7868 0 c26 -19 15 -29 -23 -20 -30
6 -38 15 -24 28 10 11 26 8 47 -8z m-5828 -14 c74 -34 134 -127 134 -207 -1
-46 -33 -105 -83 -151 -74 -68 -158 -78 -238 -27 -151 94 -154 289 -7 373 63
37 131 41 194 12z m2354 -11 c0 -5 -7 -10 -15 -10 -8 0 -15 5 -15 10 0 6 7 10
15 10 8 0 15 -4 15 -10z m1491 -7 l34 -18 -44 -3 c-50 -4 -59 1 -41 23 15 18
10 19 51 -2z m119 7 c0 -5 -10 -15 -22 -21 -23 -12 -23 -12 -4 10 21 23 26 26
26 11z m-220 -21 c0 -5 -9 -9 -20 -9 -19 0 -26 11 -14 23 8 8 34 -3 34 -14z
m-4648 -76 c2 -43 2 -80 0 -83 -5 -7 -209 -13 -225 -7 -8 3 -11 29 -9 86 l4
81 113 0 113 0 4 -77z m4066 60 c-5 -25 -28 -28 -28 -4 0 12 6 21 16 21 9 0
14 -7 12 -17z m-2558 -3 c0 -5 -6 -10 -14 -10 -8 0 -18 5 -21 10 -3 6 3 10 14
10 12 0 21 -4 21 -10z m947 -6 c9 -23 -13 -40 -32 -24 -12 10 -13 16 -4 26 15
18 28 18 36 -2z m2153 -8 c0 -8 3 -21 6 -29 3 -10 -4 -16 -23 -20 -37 -7 -38
-4 -17 32 19 33 34 40 34 17z m248 -15 c25 -13 30 -31 8 -31 -23 0 -60 35 -51
49 4 8 10 9 14 4 3 -6 16 -15 29 -22z m-5963 -12 c0 -10 -15 -15 -47 -17 -57
-4 -63 12 -10 26 45 12 57 10 57 -9z m5798 -14 c-5 -13 -23 -22 -23 -11 0 15
14 35 21 31 4 -3 6 -12 2 -20z m2022 13 c37 -17 30 -30 -12 -22 -44 8 -53 12
-53 25 0 13 34 11 65 -3z m-1948 -26 c-23 -25 -21 -48 6 -67 19 -13 20 -17 7
-25 -19 -13 -27 -12 -35 0 -4 6 -15 8 -26 5 -16 -5 -19 -1 -19 29 0 30 6 40
33 56 40 25 55 26 34 2z m-3137 -41 c0 -23 -9 -31 -26 -24 -17 6 -18 25 -2 41
14 14 28 6 28 -17z m1570 15 c0 -8 -7 -17 -16 -20 -19 -7 -47 12 -38 25 9 15
54 10 54 -5z m3045 4 c3 -5 1 -10 -4 -10 -6 0 -11 5 -11 10 0 6 2 10 4 10 3 0
8 -4 11 -10z m-2295 -35 c0 -8 -6 -15 -14 -15 -8 0 -16 7 -20 15 -4 10 1 15
14 15 11 0 20 -7 20 -15z m636 -34 c-4 -6 -16 -11 -27 -11 -19 0 -24 15 -13
45 6 15 9 15 27 -3 11 -11 16 -25 13 -31z m310 -7 c-8 -20 -29 -17 -50 8 -18
20 -18 22 -2 34 15 10 21 9 38 -8 11 -11 17 -26 14 -34z m-5971 36 c7 -12 -46
-40 -76 -40 l-22 0 23 25 c24 25 64 33 75 15z m7783 -18 c3 -10 -6 -12 -34
-10 -20 2 -39 9 -42 16 -3 10 6 12 34 10 20 -2 39 -9 42 -16z m-2040 -10 c3
-9 -2 -13 -14 -10 -9 1 -19 9 -22 16 -3 9 2 13 14 10 9 -1 19 -9 22 -16z
m-4475 -237 l2 -220 -49 0 -48 0 1 118 c1 76 -2 117 -8 117 -7 0 -11 -43 -11
-120 l0 -120 -35 0 -35 0 0 135 0 135 -30 0 -30 0 0 -92 c0 -51 4 -110 9 -130
l9 -38 -39 0 -39 0 0 130 0 130 -31 0 -30 0 3 -129 3 -129 -125 -4 c-69 -3
-126 -4 -126 -4 -1 1 -4 100 -5 221 l-4 220 308 0 309 0 1 -220z m1323 194
c19 -17 24 -33 24 -69 0 -81 -43 -116 -121 -99 -67 15 -82 34 -77 96 5 56 26
89 62 97 39 8 89 -3 112 -25z m1014 16 c0 -8 -7 -15 -15 -15 -8 0 -15 7 -15
15 0 8 7 15 15 15 8 0 15 -7 15 -15z m1651 -24 c54 -54 30 -136 -47 -161 -48
-16 -81 -6 -104 33 -22 36 -25 74 -9 111 25 53 113 63 160 17z m413 10 c7 -10
-18 -34 -27 -25 -7 8 3 34 13 34 5 0 11 -4 14 -9z m-3397 -16 c1 -5 -1 -16 -6
-24 -8 -12 -12 -12 -25 -2 -8 7 -12 19 -9 27 6 16 34 15 40 -1z m2691 -8 c2
-10 -3 -17 -12 -17 -10 0 -16 9 -16 21 0 24 23 21 28 -4z m842 14 c0 -6 -4
-13 -10 -16 -5 -3 -10 1 -10 9 0 9 5 16 10 16 6 0 10 -4 10 -9z m127 -68 c-13
-17 -47 -16 -47 1 0 7 -3 29 -6 47 l-6 34 34 -35 c23 -24 31 -39 25 -47z
m-5907 43 c0 -13 -48 -36 -76 -36 -24 0 -15 16 19 33 40 20 57 21 57 3z m5428
2 c-7 -19 -38 -22 -38 -4 0 10 9 16 21 16 12 0 19 -5 17 -12z m-2693 -8 c8
-13 -14 -42 -26 -34 -5 3 -9 14 -9 25 0 20 24 26 35 9z m4968 -4 c23 -18 22
-26 -5 -26 -30 0 -52 15 -44 29 9 15 27 13 49 -3z m-2003 -9 c0 -7 15 -21 34
-31 28 -15 37 -16 54 -5 16 10 24 11 33 2 17 -17 -26 -36 -65 -30 -62 10 -86
25 -86 52 0 16 6 25 15 25 8 0 15 -6 15 -13z m-2280 -26 c0 -5 -3 -17 -6 -25
-5 -13 -9 -14 -20 -5 -21 17 -17 39 6 39 11 0 20 -4 20 -9z m834 -8 c4 -9 2
-21 -3 -26 -15 -15 -41 0 -41 23 0 25 35 28 44 3z m-4224 -67 c0 -15 -57 -33
-68 -21 -9 9 28 35 50 35 10 0 18 -6 18 -14z m7656 0 c10 -8 16 -17 12 -21
-11 -12 -68 6 -68 21 0 18 31 18 56 0z m-2272 -278 c200 -297 395 -581 489
-712 77 -107 96 -140 86 -147 -21 -13 -27 -11 -48 14 -46 53 -223 303 -402
567 -106 157 -221 327 -257 379 l-65 95 23 18 c22 18 22 18 54 -32 17 -27 71
-109 120 -182z m-2990 212 c25 -9 25 -10 -92 -174 -143 -201 -251 -358 -283
-411 -13 -22 -57 -87 -99 -145 -41 -58 -106 -151 -144 -207 -80 -119 -131
-172 -147 -156 -15 15 26 87 159 271 58 81 170 244 250 362 131 196 323 470
328 470 2 0 14 -4 28 -10z m3086 -15 c0 -8 -7 -15 -15 -15 -8 0 -15 7 -15 15
0 8 7 15 15 15 8 0 15 -7 15 -15z m-1352 -23 c4 -23 -4 -27 -27 -13 -17 11 -7
45 12 39 6 -3 13 -14 15 -26z m-4090 6 c-3 -7 -23 -18 -46 -25 -35 -10 -42 -9
-42 2 0 14 41 33 73 34 11 1 17 -4 15 -11z m3455 -20 c9 -34 -3 -41 -24 -14
-24 30 -24 36 0 36 11 0 21 -9 24 -22z m4125 16 c12 -4 22 -13 22 -21 0 -11
-7 -13 -32 -8 -40 9 -48 13 -48 26 0 10 24 12 58 3z m-7538 -99 c0 -13 -8 -17
-62 -29 -40 -9 -34 9 10 32 39 21 52 20 52 -3z m2450 5 c-12 -22 -30 -18 -30
6 0 8 9 14 20 14 18 0 19 -3 10 -20z m2545 0 c0 -8 -8 -16 -17 -18 -13 -2 -18
3 -18 18 0 15 5 20 18 18 9 -2 17 -10 17 -18z m-3376 -4 c11 -13 5 -46 -9 -46
-4 0 -14 8 -23 18 -13 14 -14 21 -5 30 15 15 23 15 37 -2z m4206 -12 c0 -10
-8 -20 -17 -22 -18 -3 -26 27 -11 42 12 11 28 0 28 -20z m1673 10 c12 -8 22
-22 22 -30 0 -12 -8 -11 -40 6 -23 12 -38 25 -35 30 9 14 27 12 53 -6z m-5628
-73 c0 -25 -20 -38 -31 -20 -15 23 -10 39 11 39 13 0 20 -7 20 -19z m-1842
-27 c-4 -20 -85 -47 -94 -32 -8 12 -4 15 42 32 51 19 56 19 52 0z m1081 0 c27
-6 31 -10 31 -41 l0 -34 -311 2 c-266 1 -311 4 -316 17 -10 24 11 46 48 53 46
8 508 11 548 3z m6354 -8 c18 -14 23 -36 8 -36 -17 0 -71 22 -71 29 0 24 36
27 63 7z m-5713 -30 c0 -3 -4 -8 -10 -11 -5 -3 -10 -1 -10 4 0 6 5 11 10 11 6
0 10 -2 10 -4z m3143 -35 c4 -20 14 -31 32 -35 33 -8 32 -22 -3 -34 -19 -7
-31 -20 -38 -42 -12 -41 -28 -40 -34 2 -5 30 -9 33 -42 36 -47 4 -48 14 -5 30
22 8 39 24 50 48 19 39 32 38 40 -5z m-2323 -6 c0 -8 12 -22 26 -31 22 -15 24
-18 9 -27 -9 -5 -25 -23 -35 -40 l-19 -31 -10 27 c-6 15 -22 32 -36 37 -32 12
-31 16 4 35 16 8 32 24 36 35 7 22 25 18 25 -5z m3257 -25 c7 0 13 -4 13 -10
0 -5 -9 -10 -19 -10 -11 0 -28 -12 -39 -27 -20 -27 -21 -27 -28 -8 -11 29 -23
35 -77 35 -30 0 -46 4 -42 10 3 6 21 10 38 10 18 0 48 8 67 18 33 16 36 16 54
0 11 -10 26 -18 33 -18z m-5757 5 c0 -8 -2 -15 -4 -15 -2 0 -20 -7 -41 -15
-36 -16 -36 -16 -33 7 4 31 78 53 78 23z m7355 -6 c26 -15 33 -25 26 -32 -12
-12 -82 22 -89 42 -6 18 24 13 63 -10z m-5875 1 c0 -5 -2 -10 -4 -10 -3 0 -8
5 -11 10 -3 6 -1 10 4 10 6 0 11 -4 11 -10z m1595 0 c8 -13 -5 -13 -25 0 -13
8 -13 10 2 10 9 0 20 -4 23 -10z m-2648 -76 c33 -33 20 -47 -31 -33 -21 6 -41
7 -44 4 -9 -8 43 -51 80 -66 32 -13 38 -51 12 -87 -27 -39 -164 -27 -164 15 0
13 8 15 44 10 24 -4 50 -8 57 -9 7 -2 15 5 17 15 3 13 -9 23 -42 38 -56 24
-69 46 -55 87 19 54 84 68 126 26z m425 -21 c4 -99 -2 -137 -27 -162 -33 -33
-85 -34 -120 -1 -23 22 -25 30 -25 112 0 80 2 89 18 86 14 -3 18 -17 22 -75 6
-84 17 -101 57 -87 26 9 28 14 33 79 3 39 9 76 14 83 15 25 26 11 28 -35z
m310 7 c9 -22 21 -40 26 -40 6 0 19 16 31 35 16 28 27 35 51 35 16 0 30 -3 30
-6 0 -4 -15 -25 -33 -48 -50 -61 -60 -84 -54 -127 5 -38 4 -39 -25 -39 l-30 0
7 48 c6 44 3 52 -34 107 -23 33 -41 63 -41 68 0 4 12 7 28 7 22 0 30 -7 44
-40z m-512 0 c0 -27 -3 -30 -30 -30 l-29 0 -3 -82 c-3 -75 -5 -83 -23 -83 -18
0 -20 8 -23 82 -3 77 -4 81 -27 87 -18 5 -25 13 -25 31 0 25 1 25 80 25 l80 0
0 -30z m362 20 c49 -14 78 -52 78 -102 0 -32 -7 -47 -34 -74 -31 -31 -39 -34
-95 -34 l-61 0 0 110 0 110 38 0 c20 0 54 -5 74 -10z m4978 -35 l0 -45 39 0
c42 0 51 11 51 62 0 25 3 29 23 26 21 -3 22 -6 19 -108 -4 -108 -10 -127 -36
-117 -11 5 -16 20 -16 52 l0 45 -41 0 -41 0 4 -45 c2 -37 0 -45 -14 -45 -9 0
-22 -2 -30 -5 -11 -4 -13 18 -14 110 l0 115 28 0 c27 0 28 -2 28 -45z m310 15
c0 -28 -2 -30 -40 -30 -34 0 -40 -3 -40 -21 0 -17 5 -20 33 -17 32 3 37 0 37
-27 0 -11 -11 -15 -40 -15 -28 0 -40 -4 -40 -14 0 -16 43 -29 68 -22 24 8 44
-8 36 -27 -5 -14 -20 -17 -78 -17 l-71 0 3 104 3 105 57 4 c31 2 60 4 65 5 4
1 7 -11 7 -28z m192 -65 c26 -50 47 -98 48 -107 0 -26 -46 -24 -53 2 -4 16
-14 20 -52 20 -38 0 -48 -4 -52 -20 -7 -26 -43 -27 -43 -1 0 11 9 35 19 53 11
18 29 59 41 91 12 32 27 56 33 55 7 -2 33 -44 59 -93z m582 78 c3 -10 7 -60 8
-111 2 -74 0 -95 -12 -102 -26 -17 -35 -5 -38 48 l-3 52 -39 0 -39 0 -3 -47
c-3 -42 -6 -48 -23 -45 -11 2 -21 5 -21 5 -1 1 -4 48 -6 105 l-5 102 29 0 c27
0 29 -2 26 -37 l-3 -38 40 0 c40 0 40 0 43 43 3 33 7 42 22 42 10 0 21 -8 24
-17z m-7034 -2 c0 -9 -61 -51 -74 -51 -15 0 -4 30 16 44 25 18 58 21 58 7z
m6580 -77 l0 -86 48 4 c42 3 47 1 50 -19 3 -22 0 -23 -72 -23 l-76 0 0 105 0
105 25 0 c25 0 25 -1 25 -86z m240 62 c0 -19 -6 -25 -27 -28 -26 -3 -27 -5
-25 -53 2 -27 5 -62 8 -78 4 -19 1 -29 -11 -33 -30 -12 -39 13 -37 92 l2 76
-37 -4 c-35 -3 -38 -1 -41 25 l-3 27 85 0 c84 0 86 0 86 -24z m433 2 c40 -28
49 -41 35 -49 -24 -15 -78 22 -78 53 0 23 5 23 43 -4z m-7203 -58 c0 -16 -84
-73 -88 -60 -4 12 20 39 53 58 25 14 35 15 35 2z m2108 -35 c-11 -24 -37 -33
-51 -18 -11 10 24 43 44 43 16 0 17 -3 7 -25z m564 -6 c6 -17 24 -39 40 -49
29 -17 29 -18 9 -25 -22 -7 -51 -52 -51 -80 0 -8 -4 -15 -10 -15 -5 0 -10 11
-10 25 0 30 -32 65 -59 65 -32 0 -34 19 -4 26 39 9 50 20 57 54 7 38 14 38 28
-1z m4488 9 c35 -25 38 -38 11 -38 -23 0 -51 25 -51 46 0 19 6 18 40 -8z
m-2765 -19 c9 -16 26 -34 38 -38 22 -9 22 -9 -4 -16 -15 -3 -32 -19 -39 -33
l-13 -27 -6 25 c-4 14 -17 30 -29 36 l-23 11 26 17 c14 9 25 25 25 36 0 28 7
25 25 -11z m-4350 -57 c-6 -7 -76 -32 -88 -32 -15 0 5 21 36 40 23 14 34 16
44 8 8 -6 11 -13 8 -16z m7073 -28 c13 -20 21 -38 18 -42 -10 -9 -64 51 -59
65 8 20 16 16 41 -23z m-4113 -30 c8 -20 24 -38 35 -41 28 -7 25 -17 -9 -29
-22 -9 -30 -20 -35 -48 -8 -42 -26 -48 -26 -8 0 36 -9 47 -45 59 l-30 11 36
15 c27 12 38 24 42 47 8 39 13 38 32 -6z m1147 -31 c7 -6 22 -13 33 -15 17 -4
14 -7 -15 -20 -26 -12 -37 -25 -46 -54 -11 -40 -16 -37 -28 19 -5 21 -14 29
-36 34 -42 8 -46 20 -10 28 23 5 35 16 46 43 l16 37 13 -31 c8 -17 20 -35 27
-41z m-4032 -17 c0 -8 -12 -23 -27 -34 -63 -43 -68 -40 -22 13 33 37 49 44 49
21z m6950 -21 c17 -32 11 -38 -28 -24 -35 12 -38 19 -20 37 18 18 33 14 48
-13z m-6640 -47 c69 -122 284 -395 473 -601 42 -46 77 -89 77 -94 0 -5 -11
-20 -25 -33 l-25 -23 -26 24 c-58 53 -256 273 -316 350 -166 215 -310 410
-306 414 3 3 86 22 103 24 6 0 26 -27 45 -61z m6377 36 c25 -7 23 -9 -174
-274 -136 -184 -415 -508 -439 -509 -5 -1 -23 13 -40 30 -29 30 -29 31 -9 47
91 77 385 438 542 665 28 40 38 47 65 47 18 0 43 -3 55 -6z m-1968 -69 c126
-42 150 -58 197 -131 30 -46 46 -59 125 -100 80 -41 131 -85 117 -100 -5 -5
-95 23 -228 71 -65 23 -85 26 -161 22 -70 -3 -93 -9 -114 -26 -20 -15 -42 -21
-75 -21 -30 0 -52 -6 -60 -15 -7 -8 -18 -15 -24 -15 -18 0 -106 -58 -106 -70
0 -5 7 -10 15 -10 8 0 19 -9 25 -21 11 -19 9 -20 -22 -14 -26 5 -38 2 -52 -14
-16 -17 -17 -23 -6 -36 18 -21 12 -24 -61 -31 -82 -8 -188 -38 -261 -75 -70
-35 -104 -39 -64 -8 29 23 245 123 288 134 15 4 45 29 69 57 40 48 130 112
219 158 54 28 199 60 273 60 31 0 57 4 57 8 0 20 -53 55 -121 82 -76 29 -120
35 -246 32 -64 -2 -76 -5 -106 -31 -19 -17 -47 -31 -67 -33 -30 -3 -36 -7 -40
-33 -3 -17 -12 -30 -20 -31 -8 -1 -25 -2 -37 -2 -13 -1 -32 -11 -44 -23 -20
-20 -20 -22 -3 -40 17 -18 16 -19 -14 -19 -17 0 -50 -7 -71 -16 -63 -25 -69
-12 -14 28 28 20 78 73 112 117 83 108 134 145 243 176 75 21 149 13 277 -30z
m1159 24 l27 -11 -25 -13 c-26 -15 -84 -17 -135 -6 -16 3 -70 0 -118 -7 -49
-8 -91 -11 -95 -8 -3 4 2 14 11 23 36 36 260 51 335 22z m127 12 c-6 -6 -25
-6 -45 -1 l-35 8 45 1 c27 1 40 -3 35 -8z m-5940 -19 c0 -12 -63 -62 -77 -62
-17 0 -7 23 22 52 29 29 55 33 55 10z m2236 -4 c50 -15 112 -68 145 -124 24
-41 29 -44 69 -44 65 0 94 -15 155 -78 47 -48 69 -62 145 -91 50 -19 125 -40
168 -47 75 -12 133 -38 187 -83 23 -19 24 -20 5 -21 -11 0 -49 9 -85 20 -36
11 -90 20 -120 20 -52 -1 -54 -1 -30 -15 24 -13 23 -14 -25 -12 -27 1 -63 -2
-78 -6 -43 -12 -30 13 19 38 36 18 37 19 14 23 -14 1 -47 11 -75 21 -94 35
-212 71 -231 71 -16 0 -16 2 -4 10 8 5 12 11 10 13 -39 30 -109 67 -127 67
-13 0 -32 10 -43 23 -12 12 -28 30 -37 39 -31 34 -106 62 -164 61 -63 0 -147
-36 -186 -79 -12 -13 -28 -24 -36 -24 -20 0 -44 -30 -52 -67 -8 -39 -20 -48
-58 -45 -47 4 -105 -17 -127 -45 l-20 -26 32 -21 33 -21 -65 -5 c-72 -6 -95
-16 -160 -70 -25 -20 -63 -43 -85 -50 -22 -7 -103 -44 -180 -81 -77 -38 -153
-71 -170 -75 l-30 -6 20 20 c11 11 92 57 180 102 132 67 168 91 205 132 30 35
64 60 107 79 47 21 68 37 88 69 25 40 42 50 157 98 15 6 47 39 72 72 24 34 62
77 85 96 74 64 199 90 292 62z m4588 -32 c23 -24 23 -26 5 -26 -26 0 -79 44
-70 58 9 15 32 3 65 -32z m-1769 6 c0 -24 -8 -32 -26 -25 -22 8 -17 43 6 43
13 0 20 -7 20 -18z m-4490 -33 c0 -31 -7 -32 -42 -1 -22 18 -14 32 18 32 20 0
24 -5 24 -31z m588 9 c4 -21 -27 -32 -45 -16 -13 10 -12 14 3 25 22 16 38 12
42 -9z m550 10 c-7 -19 -38 -22 -38 -4 0 10 9 16 21 16 12 0 19 -5 17 -12z
m4550 -11 c2 -11 -3 -17 -17 -17 -23 0 -35 15 -26 31 10 15 39 6 43 -14z
m-283 -7 c6 -10 -96 -83 -104 -74 -7 7 77 84 90 84 4 0 10 -4 14 -10z m-5130
-26 c31 -20 32 -34 3 -34 -22 0 -58 26 -58 42 0 13 29 9 55 -8z m-785 -12 c0
-15 -54 -52 -75 -52 -14 0 -2 24 23 45 32 29 52 32 52 7z m6699 -13 c13 -11
21 -22 18 -25 -7 -8 -67 24 -67 36 0 16 23 11 49 -11z m-610 -99 l25 -13 -43
-20 c-41 -19 -43 -19 -76 -1 -19 10 -35 21 -35 23 0 3 15 17 33 32 31 26 33
27 52 9 11 -9 31 -23 44 -30z m-6035 21 c3 -5 -6 -17 -20 -26 -22 -14 -28 -15
-35 -4 -13 21 -11 27 14 32 12 2 25 5 29 6 4 0 9 -3 12 -8z m6592 -5 c14 -11
16 -18 8 -26 -14 -14 -64 7 -64 27 0 17 31 17 56 -1z m-5991 -41 c35 -36 32
-45 -19 -45 -56 0 -77 21 -51 50 24 26 39 25 70 -5z m-542 -27 c5 -17 -22 -58
-39 -58 -20 0 -17 13 6 28 11 7 20 17 20 24 0 6 -9 3 -20 -7 -23 -21 -39 -13
-20 10 15 18 47 20 53 3z m6470 -22 c15 -12 25 -46 12 -46 -17 0 -75 36 -75
47 0 17 40 16 63 -1z m-4401 -7 c29 -6 58 -16 63 -21 6 -6 -4 -7 -30 -1 -22 4
-75 7 -117 7 -43 0 -78 1 -78 3 0 8 47 22 77 22 18 1 56 -4 85 -10z m-1995
-45 c6 -17 -33 -64 -54 -64 -19 0 -16 17 9 50 24 34 36 37 45 14z m5435 -11
c28 -25 42 -79 28 -113 -24 -57 -143 -83 -174 -38 -22 31 -21 110 2 138 31 39
107 45 144 13z m-4466 -7 c24 -16 26 -23 21 -62 -7 -65 -30 -94 -74 -94 -29 0
-43 8 -76 41 -33 36 -38 46 -33 72 11 52 34 70 88 65 26 -3 59 -13 74 -22z
m5372 -35 c2 -6 -4 -14 -13 -17 -20 -8 -71 38 -60 55 7 13 67 -19 73 -38z
m-2623 -3 c4 -4 5 -14 2 -23 -5 -12 -26 -15 -108 -15 -94 0 -108 -3 -171 -32
-37 -17 -71 -29 -73 -26 -20 20 63 79 140 99 36 9 200 7 210 -3z m1285 -28
c25 -16 88 -52 140 -79 107 -56 302 -180 283 -181 -7 0 -71 25 -141 55 -163
70 -195 71 -336 15 -55 -22 -102 -38 -104 -35 -2 2 20 17 50 34 67 39 168 71
199 64 22 -5 22 -4 9 10 -8 9 -58 32 -110 52 -108 42 -135 42 -208 -2 -26 -15
-55 -26 -64 -25 -22 4 -51 -12 -96 -53 -24 -21 -52 -35 -81 -40 -24 -4 -92
-29 -151 -55 -123 -56 -304 -100 -285 -70 3 6 13 10 21 10 47 0 386 155 459
210 64 48 102 67 200 101 98 35 150 32 215 -11z m-4960 -35 c0 -16 -6 -25 -15
-25 -18 0 -20 21 -3 38 17 17 18 16 18 -13z m6198 5 c31 -19 40 -34 24 -43 -8
-6 -39 18 -61 46 -18 23 -4 22 37 -3z m-4452 -25 c16 -12 17 -14 2 -15 -23 0
-48 11 -48 21 0 14 24 11 46 -6z m-1710 -20 c-21 -16 -32 -13 -21 4 3 6 14 11
23 11 15 -1 15 -2 -2 -15z m6096 -28 c26 -22 26 -22 8 -45 -18 -22 -19 -22
-29 -3 -6 11 -11 27 -11 35 0 9 -5 16 -11 16 -5 0 -7 5 -4 10 9 14 17 12 47
-13z m-5342 3 c17 -9 13 -18 -53 -102 -40 -51 -95 -117 -122 -147 -28 -31 -68
-78 -89 -106 -22 -27 -60 -71 -85 -97 -42 -45 -46 -47 -63 -31 -10 9 -18 22
-18 30 0 15 51 81 135 173 27 31 95 108 150 173 55 64 106 117 113 117 7 0 22
-5 32 -10z m-670 -41 c0 -16 -41 -32 -53 -20 -16 16 21 55 40 40 7 -6 13 -15
13 -20z m5405 -64 c43 -49 120 -133 169 -185 50 -52 105 -116 122 -142 l31
-47 36 25 c37 24 37 24 57 4 22 -22 18 -45 -11 -61 -23 -12 -25 -29 -4 -29 22
0 19 -47 -4 -59 -22 -12 -31 -5 -31 24 0 24 -41 52 -60 40 -8 -5 -2 -18 20
-40 24 -24 30 -38 25 -54 -3 -12 -10 -21 -15 -21 -12 0 -21 31 -15 51 4 13 1
19 -9 19 -10 0 -16 -9 -16 -23 0 -13 -9 -32 -20 -42 -26 -24 -25 -29 5 -43 39
-18 72 -14 89 9 8 12 19 18 25 14 6 -3 11 -1 11 4 0 6 10 10 23 8 17 -2 22 3
22 23 1 14 5 53 9 88 8 59 10 62 27 47 9 -9 41 -76 69 -148 54 -137 65 -159
136 -267 43 -66 64 -120 47 -120 -5 0 -25 16 -44 36 -48 50 -236 173 -350 229
-131 63 -141 74 -132 155 6 61 7 63 44 79 44 18 50 36 16 45 -36 9 -291 289
-374 411 -25 37 -25 39 -7 52 10 7 21 12 24 11 3 -2 41 -43 85 -93z m-4150 40
c25 -11 27 -14 9 -14 -34 -1 -84 11 -84 20 0 13 41 10 75 -6z m1009 -1 c55 -9
106 -21 111 -26 7 -8 4 -9 -9 -4 -27 9 -475 29 -510 22 -16 -4 -26 -3 -22 1
23 24 298 28 430 7z m3686 -61 c0 -7 -6 -13 -13 -13 -20 0 -37 22 -37 48 l0
24 25 -23 c13 -13 25 -30 25 -36z m-5878 35 c3 -7 -8 -23 -23 -36 -23 -19 -29
-20 -29 -8 0 39 42 73 52 44z m71 -72 c6 -15 -1 -26 -15 -26 -4 0 -8 9 -8 20
0 23 15 27 23 6z m5732 -45 c-7 -7 -45 39 -44 54 0 6 11 -3 25 -19 14 -15 22
-31 19 -35z m-87 -27 c-10 -10 -28 6 -28 24 0 15 1 15 17 -1 9 -9 14 -19 11
-23z m-5553 -63 c-13 -14 -15 -12 -15 16 0 17 -5 33 -12 35 -7 3 -9 12 -5 23
6 15 11 12 27 -21 18 -34 18 -40 5 -53z m5495 -3 c0 -4 -7 -5 -15 -2 -8 4 -15
16 -15 28 1 21 1 21 15 2 8 -11 15 -23 15 -28z m-6793 -90 c-3 -8 -6 -5 -6 6
-1 11 2 17 5 13 3 -3 4 -12 1 -19z m2577 -10 c-3 -4 -13 -7 -22 -7 -16 1 -16
2 0 6 11 3 15 11 12 21 -5 14 -4 14 4 2 6 -8 8 -18 6 -22z m124 18 c3 -3 -12
-5 -32 -4 -21 1 -32 5 -25 9 12 7 47 4 57 -5z m-515 -10 c4 -10 1 -13 -8 -9
-8 3 -12 9 -9 14 7 12 11 11 17 -5z m3057 -16 c0 -5 -4 -10 -10 -10 -5 0 -10
5 -10 10 0 6 5 10 10 10 6 0 10 -4 10 -10z m725 -10 c3 -6 -1 -7 -9 -4 -18 7
-21 14 -7 14 6 0 13 -4 16 -10z m89 2 c2 -4 -4 -8 -14 -8 -10 0 -16 4 -14 8 3
4 9 8 14 8 5 0 11 -4 14 -8z m-4758 -76 c23 -23 54 -50 69 -61 25 -18 27 -23
16 -43 -6 -12 -19 -22 -28 -22 -20 0 -53 28 -53 46 0 7 -15 21 -32 33 -18 11
-50 38 -71 59 -36 36 -37 41 -21 50 24 14 66 -8 120 -62z m4084 53 c0 -5 -4
-8 -9 -5 -5 3 -12 -1 -15 -10 -4 -9 -9 -14 -13 -11 -7 8 15 37 28 37 5 0 9 -5
9 -11z m100 7 c0 -2 -7 -6 -15 -10 -8 -3 -15 -1 -15 4 0 6 7 10 15 10 8 0 15
-2 15 -4z m105 -6 c3 -5 1 -10 -4 -10 -6 0 -11 5 -11 10 0 6 2 10 4 10 3 0 8
-4 11 -10z m-4055 -9 c0 -5 -7 -12 -16 -15 -14 -5 -15 -4 -4 9 14 17 20 19 20
6z m882 -47 c-5 -9 -8 -1 -9 23 -1 33 0 35 8 15 5 -13 5 -30 1 -38z m4138 26
c0 -16 -4 -30 -9 -30 -12 0 -24 37 -16 50 12 20 25 10 25 -20z m-4160 6 c0 -2
-6 -9 -14 -15 -11 -9 -16 -9 -22 0 -4 8 -3 9 4 5 7 -4 12 -2 12 3 0 6 5 11 10
11 6 0 10 -2 10 -4z m3300 0 c0 -3 -4 -8 -10 -11 -5 -3 -10 -1 -10 4 0 6 5 11
10 11 6 0 10 -2 10 -4z m-4560 -42 c6 -14 10 -40 10 -58 0 -37 22 -87 47 -107
9 -8 43 -15 77 -16 34 -1 68 -2 76 -3 23 -1 -24 -37 -102 -76 -104 -53 -243
-139 -329 -206 -44 -34 -82 -59 -85 -56 -13 13 12 60 77 149 74 99 134 212
168 317 11 34 23 67 26 72 11 17 25 11 35 -16z m480 -35 c0 -29 -38 -13 -45
19 -4 21 -3 21 21 6 13 -9 24 -20 24 -25z m4877 -5 c3 -8 2 -19 -3 -24 -12
-11 -48 16 -39 29 9 16 35 13 42 -5z m-5267 -28 c0 -17 -28 -41 -37 -32 -10 9
16 58 27 51 6 -3 10 -12 10 -19z m480 -43 c0 -8 -5 -24 -12 -36 -11 -21 -12
-21 -19 13 -4 19 -5 38 -3 42 7 12 34 -3 34 -19z m-413 -3 c7 -10 9 -22 4 -25
-10 -6 -41 21 -41 36 0 16 25 10 37 -11z m5124 -11 c11 -11 18 -27 15 -34 -4
-10 -12 -7 -34 13 -28 25 -33 42 -11 42 5 0 18 -9 30 -21z m-6342 -35 c3 -3 0
-9 -7 -16 -8 -8 -15 -8 -27 2 -22 19 -18 32 8 24 12 -3 24 -8 26 -10z m1705
-27 c-3 -12 -11 -28 -17 -35 -20 -25 -31 15 -12 44 19 29 39 22 29 -9z m4559
-2 c24 -21 26 -28 17 -46 -13 -24 -11 -25 -44 23 -22 32 -24 49 -7 48 3 0 19
-12 34 -25z m-4463 -38 c0 -22 -46 -71 -59 -63 -12 8 3 39 33 72 12 14 26 9
26 -9z m4400 -59 c11 -18 -6 -37 -19 -22 -21 24 -50 82 -44 88 7 6 43 -32 63
-66z m224 9 c18 -29 -8 -43 -40 -22 -26 17 -27 18 -9 32 22 16 35 13 49 -10z
m-4864 -2 c0 -23 -35 -37 -50 -20 -16 19 -4 35 26 35 14 0 24 -6 24 -15z m328
-2 c-3 -5 -10 -23 -17 -40 -12 -31 -34 -43 -45 -25 -8 14 32 72 50 72 8 0 14
-3 12 -7z m4206 -27 c25 -33 34 -66 19 -66 -7 0 -32 34 -66 87 -18 30 22 11
47 -21z m-4125 -20 c9 -11 7 -15 -10 -19 -15 -4 -19 -11 -15 -24 7 -22 -8 -48
-23 -39 -15 10 -14 22 5 62 18 37 26 41 43 20z m4015 -21 c3 -8 19 -23 36 -33
28 -17 29 -20 14 -33 -14 -11 -20 -9 -45 21 -28 35 -37 60 -20 60 5 0 11 -7
15 -15z m-3935 -62 c-25 -59 -36 -72 -44 -50 -7 16 7 50 33 80 27 31 32 18 11
-30z m3872 0 c28 -27 38 -53 20 -53 -9 0 -61 64 -61 74 0 12 13 5 41 -21z
m-3766 -23 c3 -5 -1 -20 -9 -32 -9 -12 -16 -30 -16 -40 0 -10 -5 -18 -10 -18
-20 0 -23 32 -7 66 17 34 31 42 42 24z m3665 -20 c0 -11 6 -20 14 -20 15 0 28
-24 19 -34 -12 -12 -33 -6 -33 9 0 9 -7 27 -16 40 -15 23 -15 25 0 25 9 0 16
-8 16 -20z m-100 -23 c0 -8 11 -24 25 -37 25 -24 33 -50 15 -50 -5 0 -16 13
-24 28 -8 16 -22 34 -30 41 -9 7 -13 17 -10 22 8 14 24 11 24 -4z m-3480 -15
c0 -11 -9 -27 -20 -37 -22 -20 -26 -9 -8 30 13 29 28 33 28 7z m67 -64 c-15
-37 -34 -47 -43 -23 -7 18 33 68 47 59 5 -3 3 -19 -4 -36z m3338 3 c8 -16 20
-31 27 -34 7 -2 9 -8 5 -13 -9 -9 -67 51 -67 68 0 18 21 6 35 -21z m-3270 -50
c-6 -39 -18 -51 -29 -33 -6 9 25 84 32 77 2 -2 1 -22 -3 -44z m3208 -43 c-9
-16 -22 -7 -42 32 -30 57 -26 61 13 15 19 -22 32 -43 29 -47z m-3108 5 c0 -42
-15 -67 -29 -45 -6 10 14 92 23 92 4 0 6 -21 6 -47z m2989 0 c28 -28 29 -46 3
-51 -9 -2 -22 9 -31 27 -29 56 -16 68 28 24z m-2880 9 c2 -4 0 -29 -6 -56 -13
-63 -33 -47 -24 18 7 43 18 57 30 38z m2792 -63 c18 -35 18 -39 -2 -39 -14 0
-44 55 -44 81 0 17 28 -9 46 -42z m-116 9 c0 -5 9 -23 21 -39 19 -28 19 -49
-2 -49 -12 0 -39 62 -39 90 0 12 5 18 10 15 6 -3 10 -11 10 -17z m-2561 -2 c8
-10 9 -15 1 -18 -6 -2 -12 -16 -14 -31 -4 -35 -10 -41 -25 -23 -10 12 -10 22
0 51 14 38 21 42 38 21z m2466 -52 c17 -42 19 -64 5 -64 -5 0 -14 17 -19 38
-20 69 -11 85 14 26z m-2365 -9 c0 -19 1 -38 2 -42 2 -11 -25 -14 -40 -5 -10
7 -9 16 3 45 19 47 35 47 35 2z m115 -40 c0 -34 -3 -40 -20 -37 -26 5 -25 3
-18 45 4 28 10 37 22 35 11 -2 16 -14 16 -43z m2159 36 c4 -5 0 -12 -6 -14 -9
-4 -6 -12 10 -25 23 -18 23 -19 7 -36 -10 -9 -21 -14 -25 -9 -12 14 -30 75
-24 84 7 12 31 12 38 0z m-2031 -65 c-4 -63 -43 -89 -43 -28 0 46 11 73 29 70
12 -3 15 -14 14 -42z m1929 5 c9 -22 13 -42 10 -45 -13 -14 -40 -4 -46 17 -19
70 11 93 36 28z m-1806 -13 c-3 -13 -6 -35 -6 -50 0 -20 -5 -28 -18 -28 -29 0
-31 9 -14 56 17 46 50 64 38 22z m1696 -18 c9 -22 15 -40 13 -40 -2 0 -10 -3
-18 -6 -10 -3 -17 4 -21 23 -4 15 -9 36 -12 46 -11 35 21 16 38 -23z m-122 10
c0 -5 -4 -10 -10 -10 -5 0 -10 5 -10 10 0 6 5 10 10 10 6 0 10 -4 10 -10z
m-1474 -26 c-3 -9 -6 -27 -6 -40 0 -15 -6 -24 -15 -24 -8 0 -15 4 -15 9 0 20
23 71 32 71 6 0 7 -7 4 -16z m1364 -51 c-7 -24 -8 -21 -9 22 0 38 2 45 9 28 5
-12 5 -34 0 -50z m110 27 c5 0 7 8 4 18 -5 14 -3 14 10 -2 22 -27 20 -46 -4
-46 -11 0 -20 3 -20 8 0 4 -2 16 -4 27 -2 11 -1 14 1 8 3 -7 8 -13 13 -13z
m-1382 -20 c1 -38 -10 -52 -23 -30 -8 13 4 70 15 70 4 0 8 -18 8 -40z m1177
-5 c0 -22 -5 -40 -12 -43 -9 -2 -13 10 -13 43 0 33 4 45 13 42 7 -2 12 -20 12
-42z m-1053 23 c-7 -7 -12 -27 -12 -45 0 -23 -5 -33 -15 -33 -9 0 -15 9 -15
25 0 32 20 65 39 65 12 0 12 -3 3 -12z m747 -35 l-1 -48 -10 34 c-5 18 -7 40
-4 47 10 27 16 14 15 -33z m201 4 c0 -13 5 -28 11 -34 7 -7 4 -12 -10 -16 -26
-6 -30 0 -24 41 6 37 23 44 23 9z m225 4 c3 -5 1 -12 -5 -16 -5 -3 -10 1 -10
9 0 18 6 21 15 7z m-325 -41 c0 -5 -7 -10 -15 -10 -8 0 -15 5 -15 10 0 6 7 10
15 10 8 0 15 -4 15 -10z m-444 -86 c19 -71 50 -124 72 -124 23 1 47 36 86 127
37 87 60 103 70 50 3 -18 15 -51 26 -73 l20 -39 -25 -19 c-40 -29 -71 -101
-120 -283 -58 -212 -55 -203 -65 -178 -5 11 -27 88 -49 170 -62 231 -70 253
-101 289 l-30 34 21 48 c12 27 28 57 37 67 22 25 39 5 58 -69z m-283 69 c-7
-2 -21 -2 -30 0 -10 3 -4 5 12 5 17 0 24 -2 18 -5z"/>
<path d="M2283 8400 c-18 -11 -33 -26 -33 -34 0 -8 -7 -19 -16 -24 -10 -5 -17
-29 -21 -67 l-6 -58 46 32 c47 32 55 45 37 56 -20 12 -10 26 11 15 11 -7 22
-10 23 -8 1 2 14 18 29 37 26 32 27 35 11 52 -22 24 -41 24 -81 -1z m49 -52
c-7 -7 -12 -8 -12 -2 0 14 12 26 19 19 2 -3 -1 -11 -7 -17z"/>
<path d="M7810 8404 c0 -13 88 -104 138 -143 l52 -41 0 65 c0 36 -3 65 -8 65
-4 0 -15 -9 -25 -20 -9 -11 -21 -20 -27 -20 -17 0 -11 33 11 56 12 12 18 27
14 33 -6 11 -155 16 -155 5z m92 -26 c-7 -7 -12 -8 -12 -2 0 14 12 26 19 19 2
-3 -1 -11 -7 -17z"/>
<path d="M4981 8619 c-86 -26 -177 -115 -212 -208 -29 -78 -23 -162 20 -256
35 -76 84 -133 173 -198 31 -23 68 -60 83 -82 24 -37 26 -47 23 -128 l-3 -88
-111 -107 c-80 -77 -118 -123 -138 -163 -63 -130 -75 -270 -30 -355 14 -27 30
-53 36 -59 6 -6 6 -1 -1 12 -6 12 -11 35 -11 52 0 25 11 38 78 88 42 32 101
69 130 82 l52 24 1 201 c1 111 4 215 8 231 l7 30 12 -35 c7 -20 14 -119 17
-234 l4 -199 123 -78 c133 -85 157 -109 158 -152 0 -44 15 -24 40 53 29 89 24
175 -16 276 -23 56 -42 83 -103 144 -42 42 -101 96 -132 122 -62 51 -79 90
-79 177 0 79 19 111 115 191 158 132 215 229 215 363 0 89 -28 155 -90 211
-69 62 -138 88 -244 92 -50 2 -106 -1 -125 -7z m-71 -95 c0 -3 -19 -31 -41
-62 -35 -48 -40 -52 -34 -27 7 33 50 95 66 95 5 0 9 -3 9 -6z m70 -281 c118
-41 195 -46 328 -24 40 7 76 10 80 6 15 -15 -54 -118 -127 -187 -79 -75 -181
-154 -181 -140 0 5 -29 32 -64 60 -137 112 -207 204 -232 306 l-7 29 49 -7
c27 -4 96 -24 154 -43z"/>
<path d="M5658 8613 c7 -3 16 -2 19 1 4 3 -2 6 -13 5 -11 0 -14 -3 -6 -6z"/>
<path d="M6694 7532 c-30 -20 -25 -97 8 -108 27 -8 48 13 48 51 0 59 -22 81
-56 57z"/>
<path d="M7966 7052 c-16 -3 -18 -11 -14 -54 5 -48 21 -71 43 -65 6 2 11 14
13 28 7 59 13 71 32 66 11 -3 20 -2 20 3 0 10 -70 27 -94 22z"/>
<path d="M7868 7025 c-76 -21 -130 -58 -201 -141 -37 -43 -67 -81 -67 -86 0
-4 9 -8 21 -8 13 0 25 11 34 35 8 19 24 39 36 45 17 10 25 8 45 -11 19 -18 26
-20 39 -9 21 17 19 40 -6 66 -26 27 -19 40 24 49 51 11 125 45 131 61 6 16 6
16 -56 -1z"/>
<path d="M8149 6984 c12 -15 21 -37 21 -51 0 -29 26 -70 52 -84 14 -8 28 -7
49 1 35 15 36 25 5 45 -20 13 -29 14 -46 5 -25 -13 -39 -5 -22 12 28 28 5 66
-51 87 l-29 11 21 -26z"/>
<path d="M7977 6863 c-8 -16 -17 -56 -20 -90 -3 -42 -12 -71 -26 -89 -12 -15
-21 -37 -21 -50 0 -32 47 -84 76 -84 31 0 64 51 64 99 0 27 9 42 50 80 28 26
50 52 50 59 0 24 -30 11 -84 -39 l-56 -51 0 96 c0 99 -9 117 -33 69z m23 -233
c0 -11 -4 -20 -10 -20 -5 0 -10 9 -10 20 0 11 5 20 10 20 6 0 10 -9 10 -20z"/>
<path d="M8344 6776 c-4 -17 -2 -36 5 -47 23 -38 6 -58 -42 -50 -10 2 -29 -50
-21 -58 3 -3 13 -6 22 -7 50 -3 52 -4 52 -34 0 -18 -8 -37 -20 -47 -25 -22
-27 -56 -2 -51 26 5 44 72 45 173 1 67 -3 98 -15 120 l-16 30 -8 -29z"/>
<path d="M7603 6762 c-7 -5 -16 -36 -19 -69 -8 -70 17 -190 46 -226 l18 -22
13 28 c12 26 10 30 -24 65 -48 50 -48 68 3 82 28 8 40 16 40 29 0 23 -23 33
-56 25 -19 -5 -24 -2 -24 12 1 11 7 30 15 44 22 38 17 51 -12 32z"/>
<path d="M8176 6444 c-4 -9 0 -27 9 -40 8 -13 15 -30 15 -39 0 -14 3 -14 28
-1 54 28 56 40 14 70 -44 30 -57 32 -66 10z"/>
<path d="M7766 6441 c-3 -5 -22 -16 -42 -26 -34 -16 -35 -17 -18 -36 23 -26
43 -24 76 8 33 31 37 63 9 63 -11 0 -22 -4 -25 -9z"/>
<path d="M7962 6318 c2 -40 7 -52 21 -54 21 -3 37 31 37 77 0 26 -3 29 -31 29
-30 0 -30 0 -27 -52z"/>
<path d="M1967 6953 c-4 -3 -7 -127 -7 -274 0 -203 -3 -270 -12 -276 -16 -10
235 -19 399 -15 l118 3 1 285 0 284 -246 0 c-136 0 -250 -3 -253 -7z m469 -34
c3 -6 3 -119 -1 -252 l-7 -242 -217 0 -216 0 -3 247 -2 247 22 4 c53 10 417 7
424 -4z"/>
<path d="M2162 6824 c-22 -34 -23 -40 -12 -81 10 -33 10 -50 2 -68 -7 -14 -8
-25 -4 -25 5 0 6 -40 4 -90 -3 -49 -1 -90 2 -90 4 0 16 5 27 10 16 9 19 22 19
85 0 40 5 77 10 80 6 3 10 18 10 33 0 15 9 41 20 57 11 17 20 36 20 44 0 19
-48 81 -63 81 -7 0 -23 -17 -35 -36z"/>
<path d="M2270 6561 c0 -90 0 -91 24 -91 14 0 28 5 31 10 3 6 0 10 -7 10 -11
0 -11 2 0 9 9 5 12 28 10 77 -3 67 -4 69 -30 72 l-28 3 0 -90z"/>
<path d="M6160 5999 c0 -5 5 -7 10 -4 6 3 10 8 10 11 0 2 -4 4 -10 4 -5 0 -10
-5 -10 -11z"/>
<path d="M4071 6013 c-15 -16 -55 -142 -48 -149 3 -3 19 32 36 77 17 45 30 83
29 84 -2 2 -9 -4 -17 -12z"/>
<path d="M2468 6095 c-5 -26 -1 -30 20 -17 7 5 10 16 6 25 -9 24 -21 21 -26
-8z"/>
<path d="M1900 6148 c-27 -29 -25 -54 5 -84 30 -30 58 -26 93 12 28 32 28 39
-3 69 -30 31 -68 32 -95 3z"/>
<path d="M3981 5166 c-6 -24 -11 -114 -12 -199 0 -152 0 -158 34 -259 19 -57
46 -127 59 -157 l24 -55 23 90 c12 49 27 109 32 134 5 25 11 55 14 67 8 32 53
81 95 103 35 18 244 54 238 41 -78 -165 -177 -261 -270 -261 l-32 0 26 28 c73
80 76 114 3 42 -31 -30 -53 -60 -51 -66 3 -7 -2 -34 -10 -61 -10 -29 -16 -91
-17 -158 -1 -127 20 -202 93 -328 37 -66 167 -223 176 -214 3 2 -3 37 -12 78
-24 110 -22 279 5 353 51 145 171 281 312 354 46 24 95 51 107 61 l24 18 -18
62 c-16 58 -20 64 -58 80 -23 10 -140 42 -261 71 -237 57 -323 92 -436 178
-31 23 -60 42 -66 42 -6 0 -16 -20 -22 -44z m129 -220 c0 -8 -4 -18 -10 -21
-5 -3 -10 3 -10 14 0 12 5 21 10 21 6 0 10 -6 10 -14z m547 -111 c1 -5 -2 -17
-7 -25 -9 -13 -12 -12 -25 4 -8 10 -12 23 -9 28 7 11 36 6 41 -7z"/>
<path d="M806 5133 c-4 -5 -19 -8 -33 -8 -15 0 -28 -6 -30 -12 -3 -9 8 -13 36
-13 34 0 41 3 41 20 0 22 -3 24 -14 13z"/>
<path d="M5055 2730 c-3 -5 -2 -10 4 -10 5 0 13 5 16 10 3 6 2 10 -4 10 -5 0
-13 -4 -16 -10z"/>
<path d="M5145 2550 c3 -5 8 -10 11 -10 2 0 4 5 4 10 0 6 -5 10 -11 10 -5 0
-7 -4 -4 -10z"/>
<path d="M5181 2355 c-2 -42 97 -242 150 -306 47 -56 118 -92 248 -125 177
-45 191 -29 73 85 -63 62 -101 88 -193 135 -167 86 -204 114 -261 196 -9 14
-17 21 -17 15z"/>
<path d="M4239 2177 c5 -5 19 -7 32 -5 20 3 19 5 -9 9 -20 3 -29 2 -23 -4z"/>
<path d="M4183 2173 c9 -2 23 -2 30 0 6 3 -1 5 -18 5 -16 0 -22 -2 -12 -5z"/>
<path d="M6530 2151 c0 -5 5 -13 10 -16 6 -3 10 -2 10 4 0 5 -4 13 -10 16 -5
3 -10 2 -10 -4z"/>
<path d="M6260 2130 c0 -5 5 -10 11 -10 5 0 7 5 4 10 -3 6 -8 10 -11 10 -2 0
-4 -4 -4 -10z"/>
<path d="M6390 2120 c0 -5 5 -10 10 -10 6 0 10 5 10 10 0 6 -4 10 -10 10 -5 0
-10 -4 -10 -10z"/>
<path d="M7906 6094 c-37 -36 -4 -114 47 -114 28 0 41 9 55 37 32 59 -55 124
-102 77z"/>
<path d="M8147 6113 c-4 -3 -7 -17 -7 -30 0 -20 5 -23 35 -23 24 0 38 5 42 16
10 28 -49 59 -70 37z"/>
<path d="M5755 5923 c-52 -13 -175 -57 -330 -117 -152 -60 -208 -86 -179 -86
18 0 219 67 344 114 69 26 137 52 152 58 15 6 33 16 39 24 12 14 8 15 -26 7z"/>
<path d="M5313 5600 c-46 -27 -41 -34 5 -8 46 27 48 28 36 28 -5 0 -24 -9 -41
-20z"/>
<path d="M8035 5440 c-3 -5 -2 -10 4 -10 5 0 13 5 16 10 3 6 2 10 -4 10 -5 0
-13 -4 -16 -10z"/>
<path d="M9387 5123 c-17 -16 -5 -33 22 -33 29 0 57 21 44 33 -8 9 -58 9 -66
0z m33 -7 c0 -3 -4 -8 -10 -11 -5 -3 -10 -1 -10 4 0 6 5 11 10 11 6 0 10 -2
10 -4z"/>
<path d="M7821 4296 c-7 -9 -14 -30 -14 -48 -2 -30 1 -33 29 -36 l30 -3 -5 47
c-6 51 -20 64 -40 40z"/>
<path d="M7890 4235 c-18 -21 2 -25 125 -25 140 0 185 7 185 26 0 12 -27 14
-150 13 -101 -2 -154 -6 -160 -14z"/>
<path d="M7868 4142 c-100 -2 -131 -11 -92 -26 9 -3 110 -6 226 -6 194 0 209
1 206 18 -3 15 -17 17 -118 17 -63 0 -163 -1 -222 -3z"/>
<path d="M7760 4044 c0 -20 40 -24 252 -24 136 0 209 4 213 11 4 6 5 12 4 14
-2 2 -109 5 -237 7 -168 2 -232 0 -232 -8z"/>
<path d="M7755 3961 c-10 -17 7 -19 175 -21 243 -4 302 -2 298 11 -5 14 -464
23 -473 10z"/>
<path d="M7752 3868 c4 -10 63 -14 241 -16 206 -2 237 0 237 13 0 13 -32 15
-241 15 -188 0 -240 -3 -237 -12z"/>
<path d="M7760 3775 c0 -13 33 -15 235 -15 202 0 235 2 235 15 0 13 -33 15
-235 15 -202 0 -235 -2 -235 -15z"/>
<path d="M7760 3696 c0 -11 38 -15 194 -21 200 -7 280 -2 273 18 -3 9 -71 13
-235 15 -193 2 -232 0 -232 -12z"/>
<path d="M7948 3623 c-109 -2 -198 -7 -198 -12 0 -14 67 -19 190 -15 63 2 146
4 183 4 51 0 68 3 65 13 -5 14 9 14 -240 10z"/>
<path d="M3093 4219 c-40 -12 -59 -40 -68 -100 -6 -40 -4 -49 20 -78 45 -53
78 -65 136 -50 43 11 54 19 80 62 25 41 28 51 16 61 -8 6 -24 28 -36 49 -39
64 -73 78 -148 56z m62 -25 c51 -51 63 -120 28 -156 -26 -26 -75 -17 -97 17
-15 22 -14 25 2 35 16 11 16 11 0 6 -37 -11 -35 40 3 87 24 31 41 34 64 11z"/>
<path d="M3110 4101 c0 -6 4 -13 10 -16 6 -3 7 1 4 9 -7 18 -14 21 -14 7z"/>
<path d="M2150 4216 c0 -3 4 -16 10 -30 7 -20 16 -26 40 -26 42 0 70 16 70 40
0 18 -7 20 -60 20 -33 0 -60 -2 -60 -4z"/>
<path d="M2030 3790 l0 -130 29 0 29 0 7 105 c9 133 4 155 -35 155 l-30 0 0
-130z"/>
<path d="M2407 3384 c-4 -4 -7 -31 -7 -61 l0 -53 33 0 c20 0 41 8 50 18 20 22
22 65 4 81 -18 14 -70 25 -80 15z"/>
<path d="M7895 3345 c-3 -8 -7 -22 -10 -30 -2 -9 2 -15 10 -15 10 0 15 10 15
30 0 32 -8 40 -15 15z"/>
</g>
</svg>
