<?xml version="1.0" standalone="no"?>
<!DOCTYPE svg PUBLIC "-//W3C//DTD SVG 20010904//EN"
 "http://www.w3.org/TR/2001/REC-SVG-20010904/DTD/svg10.dtd">
<svg version="1.0" xmlns="http://www.w3.org/2000/svg"
 width="500.000000pt" height="500.000000pt" viewBox="0 0 500.000000 500.000000"
 preserveAspectRatio="xMidYMid meet">

<g transform="translate(0.000000,500.000000) scale(0.100000,-0.100000)"
fill="#000000" stroke="none">
<path d="M0 2500 l0 -2500 2500 0 2500 0 0 2500 0 2500 -2500 0 -2500 0 0
-2500z m2524 2188 c16 -46 37 -98 47 -116 14 -24 16 -38 9 -57 -5 -14 -11 -25
-13 -25 -2 0 -18 20 -36 45 -18 25 -36 45 -41 45 -5 0 -20 -18 -32 -40 -27
-46 -31 -48 -45 -18 -8 18 -5 32 13 65 12 24 30 74 40 113 10 38 21 70 24 70
3 0 18 -37 34 -82z m-14 -250 c0 -81 -2 -88 -20 -88 -18 0 -20 7 -20 81 0 84
14 134 31 108 5 -8 9 -53 9 -101z m220 2 c0 -5 -4 -10 -10 -10 -5 0 -10 5 -10
10 0 6 5 10 10 10 6 0 10 -4 10 -10z m-520 -42 c0 -4 -4 -8 -10 -8 -5 0 -10 4
-10 9 0 5 -3 18 -6 28 -5 16 -4 16 10 -1 9 -11 16 -23 16 -28z m50 7 c0 -5 -5
-3 -10 5 -5 8 -10 20 -10 25 0 6 5 3 10 -5 5 -8 10 -19 10 -25z m-110 5 c0
-11 -4 -20 -10 -20 -5 0 -10 9 -10 20 0 11 5 20 10 20 6 0 10 -9 10 -20z m245
10 c3 -5 1 -10 -4 -10 -6 0 -11 5 -11 10 0 6 2 10 4 10 3 0 8 -4 11 -10z m381
-16 c-4 -9 -9 -15 -11 -12 -3 3 -3 13 1 22 4 9 9 15 11 12 3 -3 3 -13 -1 -22z
m56 1 c-2 -14 -6 -25 -8 -25 -2 0 -4 11 -4 25 0 14 4 25 9 25 4 0 6 -11 3 -25z
m58 8 c0 -22 -17 -50 -25 -42 -6 7 11 59 20 59 3 0 5 -8 5 -17z m-790 -38 c0
-17 -2 -17 -10 -5 -5 8 -10 24 -10 35 0 17 2 17 10 5 5 -8 10 -24 10 -35z
m-61 -10 l0 -20 -9 20 c-5 11 -9 27 -9 35 -1 13 0 13 9 0 5 -8 9 -24 9 -35z
m892 14 c-9 -22 -10 -22 -10 -3 -1 11 2 24 6 27 12 12 14 0 4 -24z m69 13 c0
-5 -7 -17 -16 -28 -14 -17 -15 -17 -10 -1 3 10 6 23 6 28 0 5 5 9 10 9 6 0 10
-4 10 -8z m-1010 -40 c0 -7 -4 -10 -10 -7 -5 3 -10 16 -10 28 0 18 2 19 10 7
5 -8 10 -21 10 -28z m1053 8 c-5 -19 -23 -39 -23 -25 0 9 20 45 24 45 2 0 2
-9 -1 -20z m-1113 -10 c6 -11 7 -20 2 -20 -6 0 -12 9 -15 20 -3 11 -3 20 -1
20 2 0 8 -9 14 -20z m1156 -16 c-4 -9 -9 -15 -11 -12 -3 3 -3 13 1 22 4 9 9
15 11 12 3 -3 3 -13 -1 -22z m-1213 -4 c3 -11 1 -18 -4 -14 -5 3 -9 12 -9 20
0 20 7 17 13 -6z m1277 12 c0 -5 -7 -17 -16 -28 -8 -10 -14 -14 -11 -9 2 6 7
18 10 28 7 17 17 23 17 9z m-1320 -45 c0 -16 -18 3 -23 25 -6 22 -5 22 8 4 8
-11 15 -24 15 -29z m457 37 c-3 -3 -12 -4 -19 -1 -8 3 -5 6 6 6 11 1 17 -2 13
-5z m904 -31 c-8 -15 -10 -15 -11 -2 0 17 10 32 18 25 2 -3 -1 -13 -7 -23z
m-1417 -23 c10 -13 9 -13 -6 -1 -10 7 -18 21 -17 30 0 13 1 14 6 1 3 -8 11
-22 17 -30z m336 10 c0 -13 -9 -22 -27 -26 -223 -48 -566 -208 -702 -326 -24
-22 -36 -27 -45 -18 -16 16 1 38 77 95 137 104 382 220 570 270 114 30 127 30
127 5z m957 -25 c135 -44 361 -153 475 -229 121 -81 132 -91 124 -111 -8 -22
-20 -17 -103 43 -91 65 -246 151 -363 201 -90 38 -257 91 -285 91 -16 0 -45
27 -45 42 0 17 73 3 197 -37z m176 17 c-3 -12 -9 -22 -14 -22 -12 0 -11 7 2
32 13 25 20 19 12 -10z m-415 -4 c3 -17 -18 -18 -332 -18 -273 0 -336 2 -336
13 0 8 3 17 7 20 4 4 153 6 332 5 301 -3 326 -4 329 -20z m-1708 -122 c47 -27
87 -50 89 -52 12 -11 -114 -128 -129 -119 -4 2 -17 30 -28 62 -12 32 -44 97
-72 146 -27 48 -50 89 -50 92 0 3 24 -14 53 -38 29 -23 90 -64 137 -91z m594
118 c9 -23 7 -36 -3 -30 -12 8 -21 46 -11 46 4 0 11 -7 14 -16z m1584 -9 c-6
-14 -15 -25 -19 -25 -5 0 -3 11 3 25 6 14 15 25 19 25 5 0 3 -11 -3 -25z m699
-67 c-24 -46 -52 -106 -61 -135 -27 -83 -38 -85 -102 -22 -29 29 -54 56 -54
60 0 4 46 36 103 72 56 36 113 77 126 91 14 14 26 24 29 22 2 -3 -16 -42 -41
-88z m-2338 32 c0 -10 -3 -8 -9 5 -12 27 -12 43 0 25 5 -8 9 -22 9 -30z m1689
15 c-6 -14 -15 -25 -19 -25 -5 0 -3 11 3 25 6 14 15 25 19 25 5 0 3 -11 -3
-25z m-1739 -25 c11 -24 11 -24 -3 -6 -9 11 -16 24 -16 30 0 12 5 7 19 -24z
m635 -57 c11 -134 7 -311 -6 -316 -35 -12 -38 2 -38 192 0 103 3 191 7 194 20
21 31 2 37 -70z m300 67 c84 -19 136 -84 136 -169 0 -69 -20 -106 -101 -182
-80 -75 -81 -101 -3 -173 74 -67 105 -121 111 -193 4 -47 0 -66 -19 -103 -13
-25 -34 -51 -48 -57 -15 -8 -66 -13 -127 -13 -95 0 -103 2 -133 26 -43 37 -60
75 -60 136 0 71 34 140 99 203 43 42 51 55 51 86 0 33 -6 43 -47 76 -25 21
-59 58 -75 82 -24 38 -28 56 -28 112 0 61 3 72 33 111 47 62 115 81 211 58z
m845 -22 c-8 -14 -14 -18 -17 -10 -4 13 17 46 25 38 3 -2 -1 -15 -8 -28z
m-609 -169 l0 -190 -22 3 c-30 4 -32 28 -23 226 7 140 9 152 26 152 18 0 19
-10 19 -191z m-1210 137 c0 -6 -7 -2 -15 8 -8 11 -15 25 -15 30 0 6 7 2 15 -8
8 -11 15 -25 15 -30z m1870 14 c-6 -12 -14 -19 -17 -17 -2 3 1 15 7 27 6 12
14 19 17 17 2 -3 -1 -15 -7 -27z m-1922 -40 c-2 -7 -10 1 -17 16 -12 27 -11
28 4 12 10 -9 16 -21 13 -28z m1972 4 c-18 -21 -24 -10 -9 18 8 14 14 18 17
10 2 -7 -2 -19 -8 -28z m-2024 -1 c16 -21 18 -37 4 -28 -13 8 -33 45 -24 45 4
0 13 -8 20 -17z m504 7 c0 -5 -5 -10 -11 -10 -5 0 -7 5 -4 10 3 6 8 10 11 10
2 0 4 -4 4 -10z m1570 -25 c-7 -9 -15 -13 -18 -10 -3 2 1 11 8 20 7 9 15 13
18 10 3 -2 -1 -11 -8 -20z m-2220 5 c0 -5 -4 -10 -10 -10 -5 0 -10 5 -10 10 0
6 5 10 10 10 6 0 10 -4 10 -10z m1583 -3 c3 -8 1 -20 -4 -28 -8 -12 -10 -12
-18 0 -10 15 -4 41 9 41 4 0 10 -6 13 -13z m797 3 c0 -5 -4 -10 -10 -10 -5 0
-10 5 -10 10 0 6 5 10 10 10 6 0 10 -4 10 -10z m-1605 -9 c7 -12 -12 -24 -25
-16 -11 7 -4 25 10 25 5 0 11 -4 15 -9z m1493 -21 c-7 -11 -16 -20 -20 -20 -5
0 -3 9 4 20 7 11 16 20 20 20 5 0 3 -9 -4 -20z m-408 -10 c0 -5 -2 -10 -4 -10
-3 0 -8 5 -11 10 -3 6 -1 10 4 10 6 0 11 -4 11 -10z m-1360 -10 c0 -5 -2 -10
-4 -10 -3 0 -8 5 -11 10 -3 6 -1 10 4 10 6 0 11 -4 11 -10z m1800 -15 c-7 -9
-15 -13 -18 -10 -3 2 1 11 8 20 7 9 15 13 18 10 3 -2 -1 -11 -8 -20z m40 -30
c-7 -9 -15 -13 -18 -10 -3 2 1 11 8 20 7 9 15 13 18 10 3 -2 -1 -11 -8 -20z
m-590 0 c10 -12 10 -18 -1 -32 -7 -10 -14 -19 -15 -21 -1 -2 -11 5 -23 14 -19
17 -19 19 -3 35 21 22 27 23 42 4z m-1739 -17 c11 -21 11 -22 -4 -9 -10 7 -17
17 -17 22 0 15 9 10 21 -13z m637 -27 c-14 -20 -15 -20 -30 -2 -15 17 -15 20
0 35 14 14 18 14 30 2 12 -12 12 -17 0 -35z m-278 29 c0 -5 -4 -10 -10 -10 -5
0 -10 5 -10 10 0 6 5 10 10 10 6 0 10 -4 10 -10z m2129 -4 c10 -11 0 -28 -49
-83 -121 -136 -359 -463 -544 -750 -29 -44 -52 -44 -30 -1 21 41 329 489 428
623 64 88 175 225 181 225 2 0 8 -6 14 -14z m-2472 -178 c38 -47 53 -73 49
-85 -8 -19 1 -27 -107 96 -133 151 -134 152 -118 162 15 10 69 -43 176 -173z
m2353 156 c0 -8 -5 -12 -10 -9 -6 4 -8 11 -5 16 9 14 15 11 15 -7z m-2400 -4
c0 -5 -2 -10 -4 -10 -3 0 -8 5 -11 10 -3 6 -1 10 4 10 6 0 11 -4 11 -10z
m2075 -10 c3 -5 1 -10 -4 -10 -6 0 -11 5 -11 10 0 6 2 10 4 10 3 0 8 -4 11
-10z m-1755 -10 c0 -5 -2 -10 -4 -10 -3 0 -8 5 -11 10 -3 6 -1 10 4 10 6 0 11
-4 11 -10z m206 -31 c8 -14 -11 -33 -25 -25 -11 7 -4 36 9 36 5 0 12 -5 16
-11z m264 -9 c0 -5 -5 -10 -11 -10 -5 0 -7 5 -4 10 3 6 8 10 11 10 2 0 4 -4 4
-10z m1104 1 c3 -5 -1 -14 -8 -20 -16 -13 -32 2 -21 19 8 12 22 13 29 1z
m-1674 -5 c0 -3 -4 -8 -10 -11 -5 -3 -10 -1 -10 4 0 6 5 11 10 11 6 0 10 -2
10 -4z m-365 -46 c3 -5 1 -10 -4 -10 -6 0 -11 5 -11 10 0 6 2 10 4 10 3 0 8
-4 11 -10z m2695 0 c0 -5 -5 -10 -11 -10 -5 0 -7 5 -4 10 3 6 8 10 11 10 2 0
4 -4 4 -10z m27 -32 c-3 -8 -6 -5 -6 6 -1 11 2 17 5 13 3 -3 4 -12 1 -19z
m-2757 2 c0 -5 -2 -10 -4 -10 -3 0 -8 5 -11 10 -3 6 -1 10 4 10 6 0 11 -4 11
-10z m135 0 c4 -6 -24 -43 -62 -83 -38 -40 -99 -109 -136 -154 -62 -75 -99
-104 -114 -89 -17 16 262 336 293 336 7 0 16 -5 19 -10z m317 -12 c2 -16 12
-24 33 -28 17 -4 40 -12 53 -19 28 -15 62 -68 62 -98 0 -13 8 -24 20 -28 24
-7 27 -25 4 -25 -8 0 -22 -16 -30 -35 -8 -19 -19 -35 -24 -35 -6 0 -4 12 4 28
9 18 11 33 5 44 -6 10 -6 19 0 23 17 10 -9 63 -45 95 -28 24 -44 30 -82 30
-65 0 -105 -27 -128 -85 -16 -43 -16 -51 -3 -88 21 -59 57 -82 129 -82 33 1
63 4 67 9 4 4 -20 34 -54 67 -63 59 -75 79 -49 79 14 0 68 -53 137 -135 19
-22 41 -45 49 -52 13 -11 13 -12 -1 -13 -8 0 -26 11 -39 25 -21 22 -25 23 -44
10 -28 -20 -103 -19 -146 3 -23 11 -45 36 -67 75 l-32 57 18 43 c23 53 65 95
105 105 21 6 32 15 34 30 4 29 20 28 24 0z m358 12 c0 -5 -7 -10 -15 -10 -8 0
-15 5 -15 10 0 6 7 10 15 10 8 0 15 -4 15 -10z m1907 -62 c111 -114 231 -278
203 -278 -25 0 -52 24 -106 96 -31 41 -90 110 -130 153 -55 59 -70 81 -62 89
7 7 15 12 18 12 3 0 38 -33 77 -72z m-764 56 c3 -3 3 -12 0 -20 -4 -11 -9 -12
-19 -3 -8 6 -11 15 -8 20 6 10 18 12 27 3z m839 -36 c-7 -7 -12 -8 -12 -2 0 6
3 14 7 17 3 4 9 5 12 2 2 -3 -1 -11 -7 -17z m-1121 -4 c9 -11 10 -20 2 -32
-14 -22 -53 -22 -67 1 -9 15 -7 21 8 33 25 18 40 18 57 -2z m489 3 c0 -12 64
-37 95 -37 8 0 15 -9 15 -21 0 -11 11 -40 25 -64 l24 -44 -25 -43 c-23 -38
-28 -31 -10 13 5 10 -1 19 -16 27 l-23 11 23 0 c26 1 27 11 6 52 -13 26 -17
29 -31 17 -14 -11 -16 -10 -10 13 5 21 2 28 -19 37 -37 17 -54 15 -64 -10 -7
-18 -9 -19 -9 -5 -1 12 -9 17 -28 17 -41 0 -56 -13 -48 -40 6 -20 5 -21 -14
-11 -33 18 -25 37 23 55 25 9 50 24 56 32 15 17 30 18 30 1z m-1022 -24 c4
-29 -42 -43 -65 -20 -25 25 -9 49 29 45 25 -2 34 -8 36 -25z m-1213 -3 c10
-11 16 -20 13 -20 -3 0 -13 9 -23 20 -10 11 -16 20 -13 20 3 0 13 -9 23 -20z
m2909 -5 c-4 -8 -8 -15 -10 -15 -2 0 -4 7 -4 15 0 8 4 15 10 15 5 0 7 -7 4
-15z m-1003 -75 l-24 -26 -26 26 -26 25 25 26 25 26 25 -26 25 -26 -24 -25z
m-1937 44 c9 -24 7 -28 -9 -14 -17 14 -20 30 -6 30 5 0 12 -7 15 -16z m1060
-3 c3 -5 -1 -14 -8 -20 -16 -13 -32 2 -21 19 8 12 22 13 29 1z m1916 5 c0 -3
-4 -8 -10 -11 -5 -3 -10 -1 -10 4 0 6 5 11 10 11 6 0 10 -2 10 -4z m-1750 -31
c8 -10 11 -67 8 -207 -3 -185 -4 -193 -23 -193 -19 0 -20 8 -23 194 -2 106 -1
200 2 207 7 18 20 18 36 -1z m541 -6 c13 -24 2 -399 -11 -399 -33 0 -35 10
-34 208 0 108 2 200 2 205 4 15 32 6 43 -14z m-1801 -4 c20 -24 6 -28 -15 -5
-10 11 -13 20 -8 20 6 0 16 -7 23 -15z m523 0 c4 -8 2 -17 -3 -20 -6 -4 -10 3
-10 14 0 25 6 27 13 6z m2521 0 c-7 -16 -24 -21 -24 -6 0 8 7 13 27 20 1 1 0
-6 -3 -14z m-2754 -2 c0 -5 -5 -15 -10 -23 -8 -12 -10 -11 -10 8 0 12 5 22 10
22 6 0 10 -3 10 -7z m580 -9 c0 -8 -4 -12 -10 -9 -5 3 -10 10 -10 16 0 5 5 9
10 9 6 0 10 -7 10 -16z m1287 -15 c-3 -12 0 -22 9 -26 11 -4 12 -9 3 -19 -6
-8 -9 -25 -7 -39 7 -35 1 -31 -20 13 -15 32 -16 41 -4 65 15 32 27 36 19 6z
m618 11 c3 -5 2 -10 -4 -10 -5 0 -13 5 -16 10 -3 6 -2 10 4 10 5 0 13 -4 16
-10z m-450 -45 c0 -38 -2 -40 -32 -43 -32 -3 -33 -2 -33 36 0 46 6 54 40 50
22 -3 25 -8 25 -43z m-2355 20 c20 -24 6 -28 -15 -5 -10 11 -13 20 -8 20 6 0
16 -7 23 -15z m3105 -4 c-3 -6 -11 -11 -17 -11 -6 0 -6 6 2 15 14 17 26 13 15
-4z m-3140 -32 c11 -17 -1 -21 -15 -4 -8 9 -8 15 -2 15 6 0 14 -5 17 -11z
m3167 -11 c-7 -7 -12 -8 -12 -2 0 6 3 14 7 17 3 4 9 5 12 2 2 -3 -1 -11 -7
-17z m-2039 -45 c-14 -21 -15 -21 -34 -2 -18 18 -18 20 -1 37 15 17 18 17 33
3 14 -14 14 -19 2 -38z m-858 27 c3 -5 2 -10 -4 -10 -5 0 -13 5 -16 10 -3 6
-2 10 4 10 5 0 13 -4 16 -10z m-295 -15 c11 -13 10 -14 -4 -9 -9 3 -16 10 -16
15 0 13 6 11 20 -6z m423 1 c4 -9 -2 -17 -14 -21 -27 -9 -35 0 -19 20 16 19
26 19 33 1z m2407 -18 c0 -5 -9 -8 -19 -8 -13 0 -19 6 -18 19 1 15 4 17 19 7
10 -6 18 -14 18 -18z m-690 12 c0 -5 -5 -10 -11 -10 -5 0 -7 5 -4 10 3 6 8 10
11 10 2 0 4 -4 4 -10z m1085 -9 c-3 -6 -11 -11 -17 -11 -6 0 -6 6 2 15 14 17
26 13 15 -4z m-928 -21 c-6 -23 10 -39 43 -42 18 -2 25 3 30 22 l7 25 8 -28
c7 -25 11 -27 39 -21 40 8 46 12 46 30 0 9 6 14 13 12 28 -10 8 -33 -47 -55
l-60 -23 -44 25 c-25 14 -51 25 -58 25 -20 0 -17 38 4 43 9 3 19 5 21 6 2 0 1
-8 -2 -19z m-1297 -10 c0 -5 -2 -10 -4 -10 -3 0 -8 5 -11 10 -3 6 -1 10 4 10
6 0 11 -4 11 -10z m2255 -9 c-3 -6 -11 -11 -17 -11 -6 0 -6 6 2 15 14 17 26
13 15 -4z m-3325 -52 c0 -6 -4 -7 -10 -4 -5 3 -10 11 -10 16 0 6 5 7 10 4 6
-3 10 -11 10 -16z m3360 17 c0 -2 -7 -9 -15 -16 -12 -10 -15 -10 -15 4 0 9 7
16 15 16 8 0 15 -2 15 -4z m-2483 -162 c133 -193 129 -187 106 -182 -17 3
-151 190 -208 292 -56 98 1 37 102 -110z m53 136 c0 -5 -5 -10 -11 -10 -5 0
-7 5 -4 10 3 6 8 10 11 10 2 0 4 -4 4 -10z m-320 -21 c0 -5 -7 -9 -15 -9 -15
0 -20 12 -9 23 8 8 24 -1 24 -14z m-649 -6 c13 -16 12 -17 -3 -4 -10 7 -18 15
-18 17 0 8 8 3 21 -13z m2799 8 c0 -12 -20 -25 -27 -18 -7 7 6 27 18 27 5 0 9
-4 9 -9z m377 -6 c64 -19 148 -105 159 -163 14 -74 -31 -168 -105 -219 -39
-27 -124 -38 -177 -24 -116 31 -189 180 -139 285 32 68 124 133 191 135 11 1
43 -6 71 -14z m243 0 c-7 -9 -15 -13 -17 -11 -7 7 7 26 19 26 6 0 6 -6 -2 -15z
m-2696 -30 c3 -8 1 -15 -4 -15 -6 0 -10 7 -10 15 0 8 2 15 4 15 2 0 6 -7 10
-15z m429 -36 c-7 -8 -13 -22 -14 -30 0 -8 -5 -4 -11 9 -6 12 -15 22 -20 22
-5 0 -1 11 7 24 15 23 17 24 34 8 15 -14 16 -19 4 -33z m-699 25 c3 -9 6 -85
6 -170 l0 -154 -161 0 -162 0 6 83 c4 45 7 121 7 170 l0 87 149 0 c127 0 150
-2 155 -16z m1867 -28 c-12 -14 -15 -14 -28 0 -12 12 -13 17 -2 30 11 13 14
13 27 0 12 -12 13 -18 3 -30z m1129 29 c-7 -9 -15 -13 -17 -11 -7 7 7 26 19
26 6 0 6 -6 -2 -15z m-3465 -6 c11 -17 -1 -21 -15 -4 -8 9 -8 15 -2 15 6 0 14
-5 17 -11z m-20 -40 c11 -17 2 -18 -19 -3 -17 12 -17 14 -4 14 9 0 20 -5 23
-11z m3510 1 c-3 -5 -11 -10 -16 -10 -6 0 -7 5 -4 10 3 6 11 10 16 10 6 0 7
-4 4 -10z m-3534 -47 c13 -15 12 -15 -8 -4 -24 12 -29 21 -14 21 5 0 15 -7 22
-17z m2761 -28 c2 -19 -2 -45 -9 -57 -11 -21 -12 -17 -13 35 0 62 15 78 22 22z
m-1366 -24 c-4 -6 -37 -30 -74 -54 -37 -24 -78 -56 -91 -71 -29 -30 -37 -32
-45 -9 -8 20 17 42 123 114 47 31 78 46 84 40 5 -5 6 -14 3 -20z m712 7 c3
-15 -24 -17 -325 -20 -180 -2 -332 0 -337 4 -5 4 -6 14 -3 22 6 15 43 16 334
14 297 -3 328 -5 331 -20z m122 -21 c112 -73 130 -89 130 -114 0 -13 -2 -23
-5 -23 -3 0 -37 25 -77 56 -40 31 -85 62 -100 70 -25 13 -41 54 -20 54 4 0 36
-19 72 -43z m-2245 23 c8 -13 -5 -13 -25 0 -13 8 -13 10 2 10 9 0 20 -4 23
-10z m3590 0 c-3 -5 -11 -10 -16 -10 -6 0 -7 5 -4 10 3 6 11 10 16 10 6 0 7
-4 4 -10z m-890 -30 c-16 -16 -31 -27 -34 -24 -6 6 45 54 56 54 4 0 -6 -13
-22 -30z m-2648 -142 c-67 -206 -95 -340 -110 -523 -1 -23 -7 -31 -26 -33
l-24 -4 7 84 c15 181 88 464 153 591 18 36 28 46 36 38 7 -7 -2 -50 -36 -153z
m2791 106 c16 -12 16 -14 -2 -31 -18 -17 -19 -17 -12 0 3 10 -1 28 -9 40 -8
12 -15 28 -14 37 0 8 5 4 10 -9 5 -13 17 -30 27 -37z m693 -28 c66 -142 139
-453 139 -596 0 -37 -2 -41 -22 -38 -21 3 -24 10 -30 94 -10 126 -40 268 -93
432 -41 127 -54 192 -39 192 3 0 23 -38 45 -84z m-3556 44 c3 -5 2 -10 -4 -10
-5 0 -13 5 -16 10 -3 6 -2 10 4 10 5 0 13 -4 16 -10z m830 -11 c9 -29 -2 -69
-20 -69 -8 0 -15 5 -15 10 0 6 -9 10 -20 10 -11 0 -20 7 -20 15 0 11 8 15 28
13 23 -3 27 0 24 20 -4 28 14 29 23 1z m1133 14 c-87 -2 -229 -2 -315 0 -87 1
-16 3 157 3 173 0 244 -2 158 -3z m1672 3 c0 -3 -4 -8 -10 -11 -5 -3 -10 -1
-10 4 0 6 5 11 10 11 6 0 10 -2 10 -4z m-2704 -36 c13 0 24 -4 24 -10 0 -5 -6
-10 -14 -10 -7 0 -19 -7 -26 -15 -20 -25 -26 -17 -21 28 3 23 6 34 9 25 2 -11
13 -18 28 -18z m1864 -26 c0 -16 6 -24 18 -24 16 -1 16 -1 0 -11 -15 -8 -18
-25 -19 -92 0 -45 -4 -100 -8 -122 -6 -28 -9 9 -10 123 -1 107 2 161 9 157 6
-3 10 -17 10 -31z m-73 -33 c-12 -5 -47 30 -47 48 0 11 8 7 28 -14 15 -17 23
-32 19 -34z m-2737 29 c0 -12 -8 -12 -35 0 -18 8 -17 9 8 9 15 1 27 -3 27 -9z
m1435 -19 c3 -5 1 -12 -5 -16 -5 -3 -10 1 -10 9 0 18 6 21 15 7z m785 -1 c0
-5 -5 -10 -11 -10 -5 0 -7 5 -4 10 3 6 8 10 11 10 2 0 4 -4 4 -10z m-1010 -31
c17 -31 4 -68 -26 -75 -46 -12 -85 51 -52 84 20 20 66 15 78 -9z m1301 11 c30
-16 26 -67 -7 -82 -47 -22 -89 23 -61 66 19 28 37 32 68 16z m-841 -10 c0 -5
-4 -10 -10 -10 -5 0 -10 5 -10 10 0 6 5 10 10 10 6 0 10 -4 10 -10z m152 -32
c-9 -9 -12 -7 -12 12 0 19 3 21 12 12 9 -9 9 -15 0 -24z m1875 26 c-3 -3 -12
-4 -19 -1 -8 3 -5 6 6 6 11 1 17 -2 13 -5z m-3730 -40 c-3 -3 -12 -4 -19 -1
-8 3 -5 6 6 6 11 1 17 -2 13 -5z m1402 -74 c1 -44 -12 -73 -63 -145 -19 -26
-19 -34 -8 -131 6 -56 18 -119 26 -138 20 -49 12 -45 -19 8 -25 42 -26 52 -24
158 1 62 -2 129 -6 149 -8 41 11 93 52 148 24 31 27 32 34 15 4 -10 8 -39 8
-64z m987 -2 c15 -28 20 -138 6 -138 -16 0 -53 32 -66 58 -15 30 -19 54 -17
121 l1 45 31 -30 c17 -16 37 -41 45 -56z m1361 76 c-3 -3 -12 -4 -19 -1 -8 3
-5 6 6 6 11 1 17 -2 13 -5z m-2051 -68 c64 -35 120 -69 124 -77 4 -8 11 -76
15 -152 l7 -138 -45 34 c-48 36 -144 73 -282 106 -53 13 -69 20 -48 20 36 1
142 -20 218 -43 27 -8 51 -14 52 -12 9 8 -89 45 -162 61 -44 10 -83 21 -87 24
-4 4 0 18 10 33 l17 26 125 -49 c68 -26 126 -46 128 -44 8 7 -84 49 -168 76
-81 26 -85 29 -88 58 l-3 31 34 -20 c18 -11 58 -28 88 -39 30 -10 74 -28 98
-40 23 -12 48 -20 54 -18 15 5 -62 44 -160 82 -47 18 -75 35 -79 47 -3 11 -3
22 0 25 6 7 103 -33 191 -78 59 -31 60 -31 36 -5 -13 14 -64 42 -113 62 -82
34 -88 39 -88 65 0 16 2 29 5 29 2 0 57 -29 121 -64z m444 35 c0 -25 -6 -30
-57 -49 -32 -12 -93 -44 -135 -72 -43 -27 -80 -50 -82 -50 -2 0 -1 12 2 26 2
14 20 37 38 52 32 25 210 121 227 122 4 0 7 -13 7 -29z m-1238 -36 c-3 -5 -9
-28 -13 -50 l-6 -40 -2 36 c0 19 -6 40 -11 45 -7 7 -6 19 2 36 l13 27 12 -22
c6 -12 8 -26 5 -32z m-922 26 c0 -5 -9 -7 -20 -4 -11 3 -20 7 -20 9 0 2 9 4
20 4 11 0 20 -4 20 -9z m248 -3 c17 -17 15 -33 -3 -18 -9 7 -19 10 -23 6 -4
-4 5 -17 21 -28 15 -11 27 -25 27 -33 0 -22 -27 -36 -54 -29 -34 8 -33 24 2
24 l27 0 -30 24 c-30 24 -30 24 -11 45 22 24 28 25 44 9z m118 -12 l28 -23 21
25 c16 18 27 23 43 18 30 -10 28 -24 -5 -28 -42 -5 -37 -38 6 -53 28 -9 31
-13 17 -18 -32 -12 -55 -7 -70 15 l-16 22 -16 -22 c-17 -24 -62 -30 -82 -10
-20 20 -14 65 10 82 29 21 32 20 64 -8z m156 -74 c-4 -11 -6 -11 -13 0 -11 16
-12 82 -1 92 8 9 21 -73 14 -92z m114 -9 c-3 -3 -13 0 -21 7 -12 10 -21 10
-41 1 -14 -6 -27 -11 -30 -11 -9 0 7 43 29 80 l21 34 24 -53 c13 -29 21 -55
18 -58z m46 65 c3 -39 6 -43 31 -46 38 -5 23 -22 -19 -22 l-34 0 0 55 c0 65
17 74 22 13z m3093 32 c-3 -5 -14 -10 -23 -9 -14 0 -13 2 3 9 27 11 27 11 20
0z m-2585 -19 c0 -3 -21 -40 -45 -81 -79 -131 -122 -315 -108 -463 6 -69 7
-71 68 -134 35 -34 67 -63 73 -63 6 0 8 17 6 43 l-4 42 28 -60 c20 -42 46 -75
87 -110 67 -57 66 -60 19 90 -29 91 -52 121 -104 135 -20 5 -48 22 -63 37 -26
28 -62 135 -46 141 4 2 33 -13 63 -32 59 -38 91 -84 83 -122 -3 -17 3 -28 18
-38 22 -15 22 -14 29 56 3 38 11 78 16 88 6 12 5 23 -5 36 -23 30 -17 50 6 20
36 -46 147 -103 254 -132 132 -34 179 -60 183 -99 2 -17 9 -36 15 -43 12 -15
7 -19 -48 -49 -61 -32 -105 -75 -131 -129 -24 -49 -26 -63 -21 -128 9 -120 57
-197 188 -302 37 -30 70 -54 72 -54 3 0 8 51 11 113 8 126 0 166 -41 209 l-27
28 24 25 c13 13 31 27 42 31 15 4 18 16 18 63 0 31 -5 62 -12 69 -9 9 -9 15 0
24 7 7 12 41 12 81 0 54 -5 75 -21 99 -12 16 -19 31 -16 34 3 3 15 -9 28 -27
19 -27 24 -29 33 -17 8 11 11 -5 11 -66 0 -45 2 -92 4 -106 2 -14 0 -52 -4
-85 l-7 -60 33 -13 c19 -7 50 -26 69 -42 31 -28 32 -30 12 -30 -34 0 -82 -28
-92 -54 -7 -20 6 -265 15 -275 7 -6 139 105 181 151 58 65 78 119 79 219 0 78
-3 90 -30 135 -22 36 -54 65 -119 109 -54 37 -82 61 -72 63 9 2 16 12 16 22 0
31 17 32 23 1 5 -22 19 -36 60 -59 69 -39 131 -110 153 -174 17 -51 16 -168
-1 -213 -20 -50 67 54 102 123 32 64 38 84 37 136 -1 63 -18 131 -36 142 -6 4
-6 -2 1 -15 10 -19 9 -21 -11 -21 -28 0 -59 24 -93 69 -37 52 -34 64 18 56 48
-8 102 -38 111 -61 3 -9 6 -27 6 -41 0 -30 21 -103 29 -103 3 0 16 26 29 58
18 46 22 78 22 160 0 76 -3 104 -13 108 -7 2 -46 -11 -85 -31 -66 -32 -95 -42
-232 -74 -94 -22 -45 11 60 40 37 10 94 28 125 40 50 19 59 26 76 65 11 24 29
85 40 136 11 51 23 95 26 98 8 8 -7 -109 -24 -178 -8 -35 -13 -66 -10 -68 3
-3 21 9 41 26 39 35 45 33 20 -5 -13 -20 -14 -33 -5 -75 6 -28 11 -67 11 -85
0 -19 4 -35 8 -35 10 0 32 45 32 65 0 33 27 68 79 100 74 47 80 46 70 -12 -11
-56 -34 -91 -77 -116 -47 -28 -59 -17 -26 23 l28 35 -33 -30 c-18 -16 -44 -52
-58 -80 -30 -57 -85 -216 -78 -223 2 -3 28 17 57 43 54 48 87 96 88 128 0 9 5
17 11 17 7 0 10 -13 7 -34 l-4 -35 46 33 c25 18 58 51 74 74 25 35 30 53 34
122 8 148 -29 299 -108 439 -44 77 -46 86 -26 94 19 7 99 -130 130 -225 30
-93 49 -224 40 -275 l-7 -38 29 26 c16 14 54 44 84 66 30 23 75 62 99 87 47
48 48 53 22 155 -18 69 -11 82 26 44 36 -38 48 -102 25 -135 -14 -19 -13 -20
9 -13 13 4 36 14 51 21 15 8 37 14 50 14 15 0 -3 -14 -56 -43 -54 -29 -107
-69 -165 -125 l-86 -83 110 4 c113 5 193 26 243 65 22 17 22 18 6 58 -15 40
-15 44 6 90 20 46 22 48 36 30 16 -23 18 -83 4 -121 -9 -24 -8 -26 7 -20 36
15 53 17 53 7 0 -5 -13 -15 -28 -21 -15 -6 -55 -30 -87 -51 l-60 -40 65 0 c79
0 165 21 240 58 46 23 59 35 78 76 17 35 26 46 32 36 7 -11 14 -10 42 2 62 29
78 31 78 10 0 -36 -43 -86 -83 -96 -44 -11 -53 -5 -37 24 12 22 12 22 -13 4
-13 -10 -22 -24 -20 -31 3 -8 -23 -26 -68 -48 l-74 -35 274 6 c234 6 273 5
269 -7 -4 -11 -48 -15 -234 -19 -126 -3 -228 -9 -227 -14 3 -16 58 -46 85 -46
36 0 78 -17 106 -42 34 -33 28 -48 -19 -48 -36 0 -49 7 -89 44 -26 24 -67 54
-91 66 -46 24 -169 44 -182 30 -5 -4 8 -19 28 -33 20 -14 32 -28 26 -31 -5 -4
-32 9 -59 29 l-49 35 -132 0 c-72 0 -131 -3 -131 -7 0 -5 23 -21 51 -38 56
-33 96 -71 86 -82 -4 -4 -22 7 -40 24 -42 41 -126 82 -180 89 -49 6 -107 -23
-107 -54 0 -44 -43 -183 -80 -257 -49 -100 -81 -141 -103 -132 -14 5 -9 19 33
84 48 75 122 251 100 238 -6 -4 -32 -29 -58 -57 -26 -28 -66 -59 -90 -69 -63
-27 -137 -102 -207 -209 -34 -52 -89 -126 -123 -165 -33 -38 -59 -71 -57 -73
7 -8 121 31 161 54 23 14 62 43 87 65 44 38 46 39 52 18 8 -24 2 -31 -99 -101
-53 -36 -212 -118 -232 -118 -4 0 1 10 12 21 l19 22 -25 -13 c-68 -34 -127
-90 -159 -149 -36 -68 -37 -94 -1 -36 32 51 33 39 5 -31 -14 -32 -25 -78 -25
-101 l0 -43 48 0 c59 0 68 6 97 66 14 27 30 57 37 67 11 15 10 20 -5 32 -18
13 -18 14 1 33 17 17 21 18 26 6 4 -10 19 0 54 36 35 36 57 50 78 51 85 5 144
-14 164 -50 5 -11 10 -37 10 -59 0 -38 1 -40 45 -52 41 -11 95 -52 95 -70 0
-5 25 -22 55 -39 30 -17 55 -36 55 -41 0 -13 0 -13 -49 5 -58 20 -74 12 -66
-34 4 -20 8 -37 10 -39 1 -1 26 6 54 18 28 11 63 20 77 20 21 0 139 -62 231
-120 27 -17 54 0 46 30 -5 20 11 28 21 11 3 -5 31 0 62 10 32 11 71 19 88 19
34 1 31 -2 168 178 45 58 77 92 89 92 11 0 19 -6 19 -14 0 -15 -122 -180 -171
-231 -16 -17 -29 -36 -29 -41 0 -14 45 -56 52 -48 3 3 9 1 13 -5 3 -6 1 -11
-5 -11 -7 0 -9 -13 -4 -38 7 -43 52 -96 68 -83 11 9 38 14 69 12 30 -2 67 -47
67 -81 0 -45 -22 -81 -74 -118 -25 -18 -48 -37 -51 -43 -4 -5 3 -25 15 -44 26
-42 20 -44 -24 -10 l-33 25 -56 -46 c-31 -25 -58 -53 -61 -62 -88 -311 -165
-470 -244 -508 -121 -57 -252 36 -252 178 0 65 29 129 94 212 l46 60 -32 34
-33 33 -5 -26 -5 -27 -19 21 c-11 12 -28 21 -38 21 -24 0 -76 26 -105 53 l-22
20 -13 -27 c-9 -22 -9 -32 1 -48 14 -23 6 -37 -11 -20 -10 10 -15 7 -24 -10
l-11 -21 -13 24 c-12 22 -12 23 3 10 10 -7 17 -10 17 -7 0 6 -29 67 -35 74 -2
2 -26 -8 -54 -22 -28 -14 -61 -26 -73 -26 -13 -1 -60 -11 -105 -23 -63 -17
-86 -29 -104 -51 -18 -23 -20 -30 -8 -36 8 -5 23 -16 34 -24 19 -15 18 -15
-24 -16 -34 0 -57 -9 -105 -41 -48 -32 -68 -40 -94 -37 -27 3 -37 -1 -51 -21
-18 -26 -39 -85 -61 -170 -6 -24 -15 -40 -19 -35 -5 5 -18 47 -31 94 -12 47
-29 97 -38 112 -12 21 -14 34 -7 54 15 41 30 39 43 -5 17 -56 36 -69 57 -37
11 16 14 32 9 43 -7 16 -8 15 -12 -5 -2 -13 -9 -21 -15 -19 -15 5 -24 46 -26
110 0 26 -3 47 -5 47 -3 0 -20 -9 -38 -19 -64 -37 -92 -36 -173 3 -41 20 -82
36 -92 36 -10 0 -51 9 -91 20 -96 27 -99 26 -107 -17 -10 -54 -63 -103 -112
-103 -67 0 -108 39 -136 131 -4 12 -13 15 -30 12 -32 -6 -96 14 -123 38 -20
18 -22 18 -120 -6 -146 -37 -219 -70 -243 -111 -11 -19 -25 -34 -31 -34 -6 0
-38 -25 -71 -57 l-59 -56 0 45 c0 38 -4 47 -24 56 -59 27 -77 119 -37 187 l21
37 -30 -22 c-17 -12 -33 -20 -36 -17 -3 3 17 39 45 81 27 42 57 99 66 126 19
56 30 57 39 5 4 -19 11 -35 17 -35 5 0 9 6 8 13 -1 6 2 20 6 31 5 11 3 26 -3
37 -16 25 -15 32 3 26 10 -5 16 4 20 31 3 20 10 57 15 80 10 43 10 44 -37 96
-55 60 -200 248 -209 269 -8 22 38 31 51 10 16 -26 151 -205 184 -243 16 -19
32 -33 34 -30 9 9 67 194 62 198 -2 2 1 9 6 16 6 6 24 35 40 63 56 101 163
139 264 94 26 -12 49 -20 50 -19 41 67 200 288 206 288 21 0 3 -33 -86 -160
-95 -134 -104 -153 -85 -165 21 -13 50 -86 50 -124 0 -40 0 -40 33 -34 18 3
46 20 63 39 38 40 71 54 130 54 38 0 49 -5 82 -39 21 -22 52 -43 68 -47 16 -4
47 -22 69 -41 35 -30 115 -63 152 -63 19 0 96 -40 90 -47 -3 -3 -22 0 -42 7
-33 11 -75 9 -123 -6 -15 -5 -15 -4 1 9 16 13 12 16 -41 36 -33 11 -64 21 -69
21 -5 0 -18 9 -28 20 -9 10 -33 24 -51 30 -19 7 -34 16 -34 21 0 15 -57 39
-92 39 -18 0 -49 -10 -68 -23 l-35 -22 64 -3 c57 -3 62 -4 45 -17 -18 -13 -16
-15 21 -16 39 -2 39 -2 -10 -8 l-50 -6 3 -48 c3 -32 -1 -56 -13 -73 -14 -21
-14 -28 -3 -41 11 -13 11 -17 0 -21 -7 -2 -25 -15 -40 -29 l-27 -24 152 5
c117 3 158 8 175 20 28 20 80 21 117 2 27 -14 29 -14 67 26 21 22 52 49 69 59
55 34 72 166 35 274 -25 72 -25 78 0 40 12 -18 20 -24 20 -14 0 24 -53 100
-107 152 -43 42 -59 50 -118 62 -71 15 -145 52 -232 117 -55 40 -63 55 -39 64
9 3 41 -16 78 -45 48 -39 82 -58 142 -76 44 -14 81 -23 83 -21 2 1 -29 37 -67
80 -39 42 -96 116 -127 164 -62 96 -161 199 -202 208 -14 4 -59 38 -100 78
-40 39 -68 62 -62 51 6 -11 25 -56 42 -100 16 -44 48 -110 70 -147 39 -66 46
-88 31 -88 -34 0 -112 145 -151 278 -16 57 -37 114 -46 128 -44 67 -153 48
-267 -48 -26 -22 -52 -37 -58 -33 -6 4 -31 -12 -55 -34 -40 -37 -50 -41 -96
-41 -51 0 -51 0 -37 23 24 36 78 67 117 67 51 0 101 16 123 40 11 11 38 33 61
48 l42 27 -118 3 c-136 3 -147 -1 -249 -95 -55 -50 -100 -70 -144 -61 -34 6
58 84 114 98 26 6 61 22 77 35 l30 24 -67 1 c-85 0 -162 -28 -209 -76 -44 -46
-79 -64 -124 -64 -39 0 -42 6 -19 38 20 28 65 52 101 52 30 0 93 33 93 49 0 9
-466 21 -479 13 -2 -1 2 -13 9 -27 21 -39 1 -51 -46 -27 -22 11 -75 30 -119
42 -44 12 -86 26 -94 30 -8 4 34 19 104 36 90 22 119 33 123 46 6 23 15 23 37
-2 17 -19 17 -21 1 -39 -16 -17 -16 -19 6 -25 13 -3 84 -6 158 -6 74 0 189 -5
254 -10 66 -6 121 -8 124 -6 2 3 -26 19 -62 37 -36 18 -66 36 -66 41 0 12 0
12 92 -28 73 -32 95 -37 188 -41 l105 -5 -66 44 c-113 73 -109 70 -71 64 30
-5 43 6 22 19 -20 12 -2 125 20 125 4 0 15 -18 24 -41 14 -33 14 -47 5 -80
-11 -34 -10 -42 7 -60 10 -12 42 -32 69 -45 44 -21 65 -24 165 -24 l115 1 -65
60 c-72 67 -153 125 -218 158 -59 30 -47 37 19 12 29 -11 55 -19 57 -16 2 2
-12 28 -32 58 -46 68 -46 84 -1 32 l34 -40 1 36 c0 35 31 89 51 89 14 0 11
-50 -6 -108 -14 -45 -14 -55 -1 -79 16 -31 61 -75 121 -118 22 -15 56 -43 76
-62 l36 -34 6 103 c6 116 30 205 84 313 48 95 71 125 88 118 8 -3 15 -8 15
-12z m1907 -28 l10 -28 11 28 c6 15 14 27 17 27 3 0 10 -12 16 -27 l11 -28 10
28 c10 29 28 37 28 12 0 -22 -31 -95 -40 -95 -5 0 -12 10 -16 22 l-6 21 -19
-24 -18 -24 -15 37 c-17 40 -21 78 -8 78 5 0 13 -12 19 -27z m203 7 c52 -52
-17 -123 -72 -73 -25 22 -23 59 4 77 30 21 44 20 68 -4z m104 1 c13 -15 15
-24 8 -38 -7 -11 -7 -24 -1 -35 12 -23 -13 -25 -31 -3 -11 13 -14 13 -26 -2
-12 -16 -13 -13 -14 24 0 23 -3 48 -6 57 -9 24 48 21 70 -3z m63 4 c5 -14 8
-14 24 1 24 22 39 9 16 -13 -15 -16 -15 -19 4 -50 24 -38 16 -43 -18 -11 l-23
21 0 -21 c0 -13 -6 -22 -15 -22 -12 0 -15 13 -15 55 0 53 14 73 27 40z m-1279
-16 c-2 -15 -21 -28 -75 -49 -83 -32 -153 -71 -174 -96 -12 -15 -8 -15 21 3
45 26 187 89 220 96 24 6 26 3 38 -45 6 -28 10 -53 8 -55 -2 -2 -36 -12 -75
-23 -65 -18 -127 -47 -118 -56 1 -2 36 7 77 20 92 29 150 40 150 28 0 -11
-217 -65 -231 -57 -5 4 -16 1 -24 -5 -8 -6 -20 -8 -26 -4 -8 4 -9 3 -5 -4 4
-6 -5 -17 -22 -26 -16 -8 -34 -22 -41 -30 -28 -33 -34 -17 -29 74 4 66 10 96
23 110 19 21 133 83 215 116 70 28 72 28 68 3z m-2198 1 c0 -13 -11 -13 -30 0
-12 8 -11 10 8 10 12 0 22 -4 22 -10z m3795 0 c-3 -5 -10 -10 -16 -10 -5 0 -9
5 -9 10 0 6 7 10 16 10 8 0 12 -4 9 -10z m-2548 -62 c-3 -8 -6 -5 -6 6 -1 11
2 17 5 13 3 -3 4 -12 1 -19z m1283 12 c0 -5 -4 -10 -10 -10 -5 0 -10 5 -10 10
0 6 5 10 10 10 6 0 10 -4 10 -10z m1275 0 c-3 -5 -11 -10 -16 -10 -6 0 -7 5
-4 10 3 6 11 10 16 10 6 0 7 -4 4 -10z m-3275 -30 c0 -5 -7 -10 -16 -10 -14 0
-14 -3 -4 -15 8 -9 8 -15 2 -15 -6 0 -14 -9 -17 -20 -9 -27 -25 -25 -25 3 0
46 12 67 36 67 13 0 24 -4 24 -10z m75 0 c-3 -5 -14 -10 -23 -10 -13 -1 -11
-4 7 -14 l23 -13 -23 -7 -24 -7 23 -11 c31 -16 27 -25 -8 -20 -28 4 -30 7 -30
48 0 42 1 44 31 44 17 0 28 -4 24 -10z m-225 -36 c0 -18 5 -24 21 -24 28 0 19
-24 -10 -28 -33 -5 -43 10 -36 52 8 39 25 40 25 0z m70 -9 c0 -25 -4 -45 -10
-45 -11 0 -14 73 -3 83 11 12 13 8 13 -38z m1058 14 c-6 -16 -12 -28 -14 -26
-5 5 13 57 20 57 3 0 0 -14 -6 -31z m-1531 15 c-3 -3 -12 -4 -19 -1 -8 3 -5 6
6 6 11 1 17 -2 13 -5z m2293 -21 c0 -26 -1 -26 -14 -8 -14 20 -12 35 5 35 5 0
9 -12 9 -27z m1550 23 c0 -2 -7 -7 -16 -10 -8 -3 -12 -2 -9 4 6 10 25 14 25 6z
m-3867 -43 c-7 -2 -19 -2 -25 0 -7 3 -2 5 12 5 14 0 19 -2 13 -5z m3874 1 c-3
-3 -12 -4 -19 -1 -8 3 -5 6 6 6 11 1 17 -2 13 -5z m-2921 -12 c7 -5 7 -14 -1
-29 -11 -21 -12 -21 -27 -4 -12 14 -13 22 -5 30 13 13 18 13 33 3z m1988 -1
c11 -17 -18 -30 -36 -17 -10 7 -15 16 -11 19 9 10 41 8 47 -2z m186 -35 l-22
-21 18 35 c10 21 19 30 22 21 2 -7 -6 -23 -18 -35z m509 8 c-8 -10 -15 -11
-30 -1 -18 11 -18 13 -2 24 22 17 49 -3 32 -23z m-3369 18 c0 -4 -8 -12 -18
-18 -13 -8 -20 -8 -29 1 -7 7 -9 16 -6 19 9 9 53 7 53 -2z m2370 -100 c-11
-43 -81 -115 -88 -93 -2 7 1 18 7 24 19 19 12 31 -7 14 -25 -22 -32 -21 -32 4
0 41 33 92 79 121 l46 29 3 -30 c2 -16 -2 -47 -8 -69z m-2645 78 c13 -6 15 -9
5 -9 -8 0 -22 4 -30 9 -18 12 -2 12 25 0z m1271 -17 c47 -30 64 -58 64 -105 0
-30 0 -31 -20 -13 -11 10 -20 14 -20 8 0 -5 9 -18 20 -28 28 -26 19 -29 -24
-9 -24 12 -43 31 -56 59 -19 39 -28 115 -14 115 4 0 26 -12 50 -27z m2621 11
c-3 -3 -12 -4 -19 -1 -8 3 -5 6 6 6 11 1 17 -2 13 -5z m-1573 -23 c9 -14 -17
-29 -90 -52 -106 -32 -226 -80 -256 -101 -38 -26 -35 -9 5 29 45 43 106 72
222 104 117 32 112 31 119 20z m-1841 -60 c37 -39 39 -65 4 -69 -16 -2 -40 4
-53 13 -25 16 -67 92 -58 106 7 12 81 -22 107 -50z m1060 17 c-3 -24 -11 -62
-18 -85 l-13 -42 132 -31 c171 -40 209 -50 203 -56 -3 -3 -22 -1 -44 5 -21 6
-94 22 -163 37 -69 14 -128 29 -132 33 -4 3 -1 31 7 61 8 30 15 70 15 88 0 17
4 32 9 32 5 0 7 -19 4 -42z m113 18 c149 -40 256 -95 267 -136 6 -22 1 -20
-49 17 -36 27 -85 46 -214 83 -67 19 -96 32 -98 43 -4 21 -14 22 94 -7z m1848
2 c-22 -73 -44 -96 -98 -105 -29 -5 -36 -3 -36 11 0 36 32 78 73 96 58 26 70
25 61 -2z m-3504 2 c8 -5 11 -10 5 -10 -5 0 -17 5 -25 10 -8 5 -10 10 -5 10 6
0 17 -5 25 -10z m3907 -6 c-3 -3 -12 -4 -19 -1 -8 3 -5 6 6 6 11 1 17 -2 13
-5z m-1587 -38 c0 -12 -112 -53 -283 -102 -9 -3 -31 -17 -47 -31 -35 -29 -53
-24 -25 7 30 33 133 78 239 104 54 14 101 27 104 30 9 9 12 7 12 -8z m54 -88
c9 -31 24 -25 -194 -73 -69 -15 -133 -32 -143 -37 -10 -5 -21 -7 -24 -4 -11
11 63 35 206 67 l142 32 -5 61 c-4 48 -3 53 3 21 4 -22 11 -52 15 -67z m-2374
82 c0 -5 -10 -10 -22 -10 -19 0 -20 2 -8 10 19 13 30 13 30 0z m223 -14 c75
-27 102 -77 51 -96 -40 -16 -81 15 -102 78 -13 37 -8 39 51 18z m1483 -17
c125 -36 139 -42 177 -77 37 -35 34 -50 -4 -18 -18 15 -72 39 -132 57 -120 36
-187 59 -187 65 0 10 45 2 146 -27z m2201 25 c-3 -3 -12 -4 -19 -1 -8 3 -5 6
6 6 11 1 17 -2 13 -5z m-1577 -43 c0 -16 -18 -23 -117 -46 -65 -15 -142 -38
-172 -51 -30 -13 -56 -22 -58 -20 -12 11 60 49 136 72 47 14 111 34 141 44 70
24 70 24 70 1z m-653 -26 c49 -14 106 -31 127 -38 41 -12 101 -55 91 -65 -2
-3 -13 3 -24 12 -10 10 -79 33 -152 52 -73 20 -141 40 -151 45 -21 11 -14 33
8 25 8 -3 53 -17 101 -31z m-1680 19 c-3 -3 -12 -4 -19 -1 -8 3 -5 6 6 6 11 1
17 -2 13 -5z m0 -40 c-3 -3 -12 -4 -19 -1 -8 3 -5 6 6 6 11 1 17 -2 13 -5z
m4100 -62 c43 -12 90 -24 106 -28 39 -9 33 -22 -15 -34 -105 -28 -154 -44
-174 -57 -18 -12 -23 -11 -34 3 -11 12 -11 20 -2 35 16 26 15 50 -5 78 -16 23
-15 25 7 43 24 19 24 19 31 0 5 -14 29 -25 86 -40z m-2132 -42 c-8 -13 -35
-13 -55 0 -11 7 -5 10 23 10 23 0 36 -4 32 -10z m-1856 -180 c17 -171 71 -375
140 -537 18 -41 20 -55 11 -72 -6 -12 -15 -19 -20 -16 -13 8 -89 207 -120 315
-36 125 -60 266 -60 357 0 64 2 73 18 73 16 0 20 -15 31 -120z m3717 48 c-16
-169 -59 -363 -116 -520 -38 -104 -53 -128 -71 -111 -10 10 -7 28 15 90 68
190 111 374 122 528 7 82 8 85 32 85 25 0 25 0 18 -72z m79 53 c3 -5 1 -12 -5
-16 -5 -3 -10 1 -10 9 0 18 6 21 15 7z m-3910 -11 c3 -5 -1 -10 -9 -10 -9 0
-16 5 -16 10 0 6 4 10 9 10 6 0 13 -4 16 -10z m3458 -21 c23 -12 66 -58 67
-71 0 -14 -60 -9 -90 7 -27 14 -60 51 -60 67 0 12 58 10 83 -3z m-3456 -25
c-3 -3 -12 -4 -19 -1 -8 3 -5 6 6 6 11 1 17 -2 13 -5z m3324 -55 c16 -17 29
-35 29 -40 0 -5 -22 -9 -50 -9 -41 0 -55 5 -85 31 -19 17 -35 35 -35 40 0 5
25 9 56 9 50 0 59 -3 85 -31z m-3321 1 c0 -5 -7 -10 -16 -10 -8 0 -12 5 -9 10
3 6 10 10 16 10 5 0 9 -4 9 -10z m3915 0 c3 -5 -1 -10 -9 -10 -8 0 -18 5 -21
10 -3 6 1 10 9 10 8 0 18 -4 21 -10z m-2945 -20 c0 -5 -4 -10 -10 -10 -5 0
-10 5 -10 10 0 6 5 10 10 10 6 0 10 -4 10 -10z m2090 -35 c0 -7 6 -18 14 -22
11 -6 9 -12 -10 -26 -21 -15 -24 -16 -24 -2 0 8 -4 15 -9 15 -5 0 -4 11 2 25
13 27 27 33 27 10z m-3057 -2 c-7 -2 -19 -2 -25 0 -7 3 -2 5 12 5 14 0 19 -2
13 -5z m850 -47 l-17 -22 -20 21 c-21 20 -21 20 -1 37 18 15 22 15 37 1 16
-14 16 -17 1 -37z m2067 44 c0 -5 -2 -10 -4 -10 -3 0 -8 5 -11 10 -3 6 -1 10
4 10 6 0 11 -4 11 -10z m997 4 c-3 -3 -12 -4 -19 -1 -8 3 -5 6 6 6 11 1 17 -2
13 -5z m-3642 -56 c-5 -12 -11 -13 -29 -5 -20 10 -21 12 -7 27 12 13 19 14 29
5 7 -6 10 -18 7 -27z m3362 31 c8 -8 7 -16 -4 -29 -14 -16 -17 -16 -32 -1 -12
11 -14 20 -6 28 13 15 28 16 42 2z m-3632 -19 c-3 -5 -13 -10 -21 -10 -8 0
-12 5 -9 10 3 6 13 10 21 10 8 0 12 -4 9 -10z m3900 0 c3 -5 -1 -10 -9 -10 -8
0 -18 5 -21 10 -3 6 1 10 9 10 8 0 18 -4 21 -10z m-3885 -50 c-19 -13 -30 -13
-30 0 0 6 10 10 23 10 18 0 19 -2 7 -10z m3875 0 c3 -5 -1 -10 -9 -10 -8 0
-18 5 -21 10 -3 6 1 10 9 10 8 0 18 -4 21 -10z m-2075 -10 c0 -5 -4 -10 -10
-10 -5 0 -10 5 -10 10 0 6 5 10 10 10 6 0 10 -4 10 -10z m270 -20 c0 -5 -7
-10 -15 -10 -8 0 -15 5 -15 10 0 6 7 10 15 10 8 0 15 -4 15 -10z m1420 -187
c0 -109 -4 -204 -9 -211 -9 -16 -268 -29 -287 -15 -8 5 -14 80 -19 216 l-7
207 161 0 161 0 0 -197z m365 167 c3 -5 2 -10 -4 -10 -5 0 -13 5 -16 10 -3 6
-2 10 4 10 5 0 13 -4 16 -10z m-2815 -30 c15 -16 30 -40 32 -54 12 -61 -57
-132 -117 -121 -16 3 -43 19 -60 35 -65 66 -19 170 76 170 33 0 47 -6 69 -30z
m1847 14 c-3 -3 -12 -4 -19 -1 -8 3 -5 6 6 6 11 1 17 -2 13 -5z m-2317 -44 l0
-40 -54 0 c-61 0 -70 7 -61 50 6 29 9 30 61 30 l54 0 0 -40z m1200 26 c0 -3
-4 -8 -10 -11 -5 -3 -10 -1 -10 4 0 6 5 11 10 11 6 0 10 -2 10 -4z m1046 -23
c-10 -10 -19 5 -10 18 6 11 8 11 12 0 2 -7 1 -15 -2 -18z m130 0 c-7 -7 -26 7
-26 19 0 6 6 6 15 -2 9 -7 13 -15 11 -17z m-2926 7 c0 -5 -7 -10 -16 -10 -8 0
-12 5 -9 10 3 6 10 10 16 10 5 0 9 -4 9 -10z m3827 -6 c-3 -3 -12 -4 -19 -1
-8 3 -5 6 6 6 11 1 17 -2 13 -5z m-948 -46 c1 -11 -11 -10 -28 1 -13 8 -13 12
-1 26 13 16 15 16 21 -2 4 -10 8 -21 8 -25z m-769 28 c0 -11 -19 -15 -25 -6
-3 5 1 10 9 10 9 0 16 -2 16 -4z m-2095 -26 c-3 -5 -13 -10 -21 -10 -8 0 -12
5 -9 10 3 6 13 10 21 10 8 0 12 -4 9 -10z m2770 0 c3 -5 1 -10 -4 -10 -6 0
-11 5 -11 10 0 6 2 10 4 10 3 0 8 -4 11 -10z m146 -3 c-1 -12 -15 -9 -19 4 -3
6 1 10 8 8 6 -3 11 -8 11 -12z m886 -3 c-3 -3 -12 -4 -19 -1 -8 3 -5 6 6 6 11
1 17 -2 13 -5z m-3177 -119 c0 -98 -1 -105 -20 -105 -17 0 -20 7 -22 53 l-2
52 -3 -52 c-3 -45 -7 -53 -24 -53 -17 0 -19 7 -19 65 0 54 -3 65 -16 65 -15 0
-16 -9 -11 -66 6 -58 5 -65 -11 -62 -13 3 -18 16 -20 66 -2 44 -7 62 -16 62
-11 0 -13 -15 -8 -65 l5 -65 -67 0 -66 0 0 105 0 105 150 0 150 0 0 -105z
m648 93 c16 -16 15 -53 -2 -67 -20 -17 -67 -10 -79 11 -18 27 7 68 41 68 15 0
33 -5 40 -12z m1300 0 c7 -7 12 -21 12 -33 0 -12 -5 -26 -12 -33 -17 -17 -65
-15 -72 4 -8 21 -8 59 1 67 11 11 58 8 71 -5z m-1458 -8 c0 -5 -2 -10 -4 -10
-3 0 -8 5 -11 10 -3 6 -1 10 4 10 6 0 11 -4 11 -10z m1786 -27 c-4 -4 -11 -1
-16 7 -16 25 -11 35 7 17 9 -9 13 -20 9 -24z m-2891 17 c-3 -5 -14 -10 -23
-10 -15 0 -15 2 -2 10 20 13 33 13 25 0z m1345 0 c0 -5 -5 -10 -11 -10 -5 0
-7 5 -4 10 3 6 8 10 11 10 2 0 4 -4 4 -10z m2425 0 c3 -5 -1 -10 -10 -10 -9 0
-13 5 -10 10 3 6 8 10 10 10 2 0 7 -4 10 -10z m-969 -9 c5 -5 20 -11 34 -14
14 -3 8 -4 -14 -4 -22 1 -41 8 -44 15 -4 14 10 16 24 3z m-716 -11 c0 -5 -4
-10 -10 -10 -5 0 -10 5 -10 10 0 6 5 10 10 10 6 0 10 -4 10 -10z m-2063 -36
c-3 -3 -12 -4 -19 -1 -8 3 -5 6 6 6 11 1 17 -2 13 -5z m3740 0 c-3 -3 -12 -4
-19 -1 -8 3 -5 6 6 6 11 1 17 -2 13 -5z m-1132 -96 c26 -40 106 -158 177 -261
117 -170 141 -213 109 -192 -25 15 -362 510 -354 519 13 12 21 4 68 -66z
m-590 52 c3 -5 1 -10 -4 -10 -6 0 -11 5 -11 10 0 6 2 10 4 10 3 0 8 -4 11 -10z
m-2008 -6 c-3 -3 -12 -4 -19 -1 -8 3 -5 6 6 6 11 1 17 -2 13 -5z m1698 -4 c3
-5 1 -10 -4 -10 -6 0 -11 5 -11 10 0 6 2 10 4 10 3 0 8 -4 11 -10z m2020 0 c3
-5 -1 -10 -9 -10 -8 0 -18 5 -21 10 -3 6 1 10 9 10 8 0 18 -4 21 -10z m-3685
-40 c0 -5 -10 -10 -22 -9 -22 0 -22 1 -3 9 11 5 21 9 23 9 1 1 2 -3 2 -9z
m2440 6 c0 -3 -4 -8 -10 -11 -5 -3 -10 -1 -10 4 0 6 5 11 10 11 6 0 10 -2 10
-4z m-1650 -16 c0 -5 -4 -10 -10 -10 -5 0 -10 5 -10 10 0 6 5 10 10 10 6 0 10
-4 10 -10z m2875 0 c3 -6 -1 -7 -9 -4 -18 7 -21 14 -7 14 6 0 13 -4 16 -10z
m-2755 -30 c0 -5 -2 -10 -4 -10 -3 0 -8 5 -11 10 -3 6 -1 10 4 10 6 0 11 -4
11 -10z m-900 -9 c0 -5 -10 -11 -22 -14 -22 -6 -22 -6 -4 8 23 17 26 18 26 6z
m545 -21 c0 -13 -22 -15 -150 -12 -82 2 -152 5 -154 7 -1 2 0 9 4 15 4 7 55
10 153 8 123 -3 147 -5 147 -18z m3090 10 c8 -13 -5 -13 -25 0 -13 8 -13 10 2
10 9 0 20 -4 23 -10z m-1253 -71 c-17 -17 -20 -18 -25 -5 -4 9 -13 16 -21 16
-12 0 -10 6 7 23 21 22 23 22 40 5 17 -17 17 -19 -1 -39z m-1133 4 c-11 -18
-13 -19 -29 -4 -15 15 -15 17 -1 32 13 14 19 14 29 4 11 -10 11 -16 1 -32z
m-1229 28 c0 -5 -7 -11 -15 -15 -15 -5 -20 5 -8 17 9 10 23 9 23 -2z m2807 1
c9 -6 7 -11 -7 -20 -12 -7 -21 -8 -25 -2 -3 6 -18 10 -33 11 l-27 1 25 8 c33
11 53 11 67 2z m800 -18 c-7 -7 -37 7 -37 17 0 6 9 5 21 -1 11 -7 19 -14 16
-16z m-3389 -33 c3 -9 -2 -11 -17 -6 -29 9 -26 -1 6 -29 24 -20 25 -26 14 -40
-14 -17 -38 -20 -65 -10 -29 11 -17 24 17 18 l32 -5 -27 23 c-27 23 -35 47
-21 62 12 11 56 2 61 -13z m102 4 c0 -8 -7 -15 -15 -15 -11 0 -15 -11 -15 -40
0 -22 -4 -40 -10 -40 -5 0 -10 15 -10 34 0 18 -7 39 -15 46 -25 21 -17 30 25
30 29 0 40 -4 40 -15z m59 -63 c11 2 17 16 19 41 4 49 22 48 22 -1 0 -52 -19
-77 -53 -68 -29 7 -44 50 -31 88 7 20 9 18 17 -20 7 -31 14 -42 26 -40z m132
68 c45 -25 9 -100 -48 -100 -21 0 -23 4 -23 55 0 52 1 55 26 55 14 0 34 -5 45
-10z m59 -5 c0 -8 4 -15 9 -15 5 0 14 7 21 15 7 8 19 15 27 15 11 0 9 -8 -8
-32 -12 -17 -23 -40 -24 -51 -2 -33 -25 -33 -25 0 0 16 -7 38 -15 49 -19 25
-19 34 0 34 8 0 15 -7 15 -15z m2360 -11 c0 -33 33 -30 38 4 7 44 22 21 22
-33 0 -54 -15 -77 -22 -33 -5 34 -38 37 -38 4 0 -16 -6 -26 -15 -26 -12 0 -15
13 -15 55 0 42 3 55 15 55 9 0 15 -10 15 -26z m150 11 c0 -8 -9 -15 -20 -15
-11 0 -20 -4 -20 -10 0 -5 7 -10 15 -10 8 0 15 -4 15 -10 0 -5 -7 -10 -16 -10
-8 0 -12 -4 -9 -10 3 -5 15 -10 26 -10 11 0 17 -4 14 -10 -3 -5 -22 -10 -41
-10 -37 0 -41 12 -28 79 6 26 11 31 35 31 19 0 29 -5 29 -15z m380 -46 c0 -49
-16 -69 -22 -27 -4 33 -34 35 -42 3 -10 -39 -26 -20 -26 31 0 34 4 44 16 44
10 0 14 -6 10 -15 -3 -10 1 -15 13 -15 11 0 21 9 24 21 10 37 27 10 27 -42z
m-3445 41 c-3 -5 -13 -10 -21 -10 -8 0 -12 5 -9 10 3 6 13 10 21 10 8 0 12 -4
9 -10z m3155 -22 c23 -37 28 -80 8 -60 -7 7 -21 12 -33 12 -12 0 -26 -5 -33
-12 -7 -7 -12 -8 -12 -3 0 19 33 95 42 95 4 0 17 -15 28 -32z m66 -8 c5 -31
11 -40 26 -40 10 0 16 -4 13 -10 -3 -5 -19 -10 -36 -10 -28 0 -29 1 -29 50 0
60 17 66 26 10z m114 30 c0 -5 -4 -10 -10 -10 -5 0 -10 -18 -10 -40 0 -22 -4
-40 -10 -40 -5 0 -10 18 -10 40 0 33 -3 40 -20 40 -11 0 -20 5 -20 10 0 6 18
10 40 10 22 0 40 -4 40 -10z m220 0 c8 -5 11 -12 7 -16 -4 -4 -15 0 -24 9 -18
18 -8 23 17 7z m-3530 -35 c-7 -8 -17 -15 -22 -15 -6 0 -5 7 2 15 7 8 17 15
22 15 6 0 5 -7 -2 -15z m1035 -5 c-3 -5 -11 -10 -16 -10 -6 0 -7 5 -4 10 3 6
11 10 16 10 6 0 7 -4 4 -10z m287 -55 l-16 -21 -20 21 c-14 13 -17 21 -9 23 7
2 15 12 18 23 6 19 7 19 25 -3 16 -20 16 -24 2 -43z m2183 54 c11 -17 -1 -21
-15 -4 -8 9 -8 15 -2 15 6 0 14 -5 17 -11z m-3480 -39 c-3 -5 -13 -10 -21 -10
-8 0 -12 5 -9 10 3 6 13 10 21 10 8 0 12 -4 9 -10z m3460 -11 c11 -17 -1 -21
-15 -4 -8 9 -8 15 -2 15 6 0 14 -5 17 -11z m-2001 -52 c-8 -4 -14 -16 -15 -25
0 -12 -3 -11 -9 6 -5 12 -14 22 -20 22 -6 0 -3 11 7 23 l17 24 17 -21 c15 -18
15 -22 3 -29z m-1424 9 c0 -2 -8 -10 -17 -17 -16 -13 -17 -12 -4 4 13 16 21
21 21 13z m3400 -6 c0 -5 -7 -10 -15 -10 -8 0 -15 5 -15 10 0 6 7 10 15 10 8
0 15 -4 15 -10z m-3380 -45 c-7 -9 -15 -13 -18 -10 -3 2 1 11 8 20 7 9 15 13
18 10 3 -2 -1 -11 -8 -20z m2848 16 c9 -5 -18 -10 -70 -13 -90 -6 -104 -4 -67
11 30 12 120 14 137 2z m502 -16 c7 -8 8 -15 2 -15 -5 0 -15 7 -22 15 -7 8 -8
15 -2 15 5 0 15 -7 22 -15z m-3060 -15 c0 -5 -2 -10 -4 -10 -3 0 -8 5 -11 10
-3 6 -1 10 4 10 6 0 11 -4 11 -10z m2640 -5 c0 -2 -10 -10 -22 -16 -21 -11
-22 -11 -9 4 13 16 31 23 31 12z m-2895 -24 c-3 -6 -11 -11 -17 -11 -6 0 -6 6
2 15 14 17 26 13 15 -4z m2985 -50 c0 -13 -27 -21 -45 -15 -18 7 -19 16 -3 32
12 12 48 -1 48 -17z m-2955 9 c-3 -5 -10 -10 -16 -10 -5 0 -9 5 -9 10 0 6 7
10 16 10 8 0 12 -4 9 -10z m3225 0 c0 -5 -4 -10 -9 -10 -6 0 -13 5 -16 10 -3
6 1 10 9 10 9 0 16 -4 16 -10z m-2922 -27 c2 -8 -5 -13 -17 -13 -21 0 -35 13
-24 24 10 10 36 3 41 -11z m-274 -14 c-3 -5 -10 -7 -15 -3 -5 3 -7 10 -3 15 3
5 10 7 15 3 5 -3 7 -10 3 -15z m3166 -4 c14 -16 10 -18 -14 -9 -9 3 -16 10
-16 15 0 14 16 11 30 -6z m-3138 -37 c-7 -7 -12 -8 -12 -2 0 14 12 26 19 19 2
-3 -1 -11 -7 -17z m2666 10 c7 -7 12 -25 12 -40 0 -21 -6 -29 -24 -34 -40 -10
-61 -1 -64 27 -5 45 46 77 76 47z m442 -20 c0 -13 -23 -5 -28 10 -2 7 2 10 12
6 9 -3 16 -11 16 -16z m-3070 -28 c0 -5 -5 -10 -11 -10 -5 0 -7 5 -4 10 3 6 8
10 11 10 2 0 4 -4 4 -10z m3036 -18 c-4 -3 -14 2 -24 12 -16 18 -16 18 6 6 13
-6 21 -14 18 -18z m-38 -30 c6 -18 -15 -14 -22 4 -4 10 -1 14 6 12 6 -2 14
-10 16 -16z m-2956 -14 c-7 -7 -12 -8 -12 -2 0 14 12 26 19 19 2 -3 -1 -11 -7
-17z m1133 -8 c17 -4 -22 -5 -85 -2 -63 3 -117 6 -119 8 -8 7 174 2 204 -6z
m-1085 -14 c0 -3 -4 -8 -10 -11 -5 -3 -10 -1 -10 4 0 6 5 11 10 11 6 0 10 -2
10 -4z m2200 -501 c7 -9 8 -15 2 -15 -5 0 -12 7 -16 15 -3 8 -4 15 -2 15 2 0
9 -7 16 -15z m-136 -75 c-7 -6 -24 22 -23 40 0 9 6 5 14 -10 7 -14 11 -27 9
-30z m-54 -5 c0 -5 -5 -3 -10 5 -5 8 -10 20 -10 25 0 6 5 3 10 -5 5 -8 10 -19
10 -25z m-1110 0 c0 -8 -4 -15 -10 -15 -5 0 -7 7 -4 15 4 8 8 15 10 15 2 0 4
-7 4 -15z m1063 1 c6 -16 -2 -28 -14 -20 -12 7 -11 34 0 34 5 0 11 -6 14 -14z
m-1002 -33 c-9 -16 -10 -14 -11 12 0 21 3 26 11 18 8 -8 8 -16 0 -30z m949 11
c0 -8 -4 -14 -10 -14 -5 0 -10 9 -10 21 0 11 5 17 10 14 6 -3 10 -13 10 -21z
m-885 -13 c-3 -12 -11 -21 -16 -21 -6 0 -8 3 -6 8 2 4 7 16 11 26 9 25 20 13
11 -13z m835 -7 c0 -8 -4 -12 -10 -9 -5 3 -10 13 -10 21 0 8 5 12 10 9 6 -3
10 -13 10 -21z m-787 -9 c-3 -9 -8 -14 -10 -11 -3 3 -2 9 2 15 9 16 15 13 8
-4z m44 -17 c-3 -8 -6 -5 -6 6 -1 11 2 17 5 13 3 -3 4 -12 1 -19z m59 -15
c-11 -11 -19 6 -11 24 8 17 8 17 12 0 3 -10 2 -21 -1 -24z m634 27 c0 -5 -4
-10 -10 -10 -5 0 -10 5 -10 10 0 6 5 10 10 10 6 0 10 -4 10 -10z"/>
<path d="M1101 4084 c-21 -27 -28 -64 -13 -64 14 0 72 71 66 81 -10 17 -32 9
-53 -17z"/>
<path d="M3820 4102 c0 -11 70 -82 81 -82 5 0 9 12 9 26 0 21 -3 24 -21 19
-18 -6 -19 -4 -10 13 6 11 7 22 4 26 -9 9 -63 7 -63 -2z"/>
<path d="M2375 4167 c-82 -81 -72 -163 31 -265 62 -62 64 -65 64 -116 0 -49
-3 -54 -51 -101 -80 -79 -112 -161 -88 -232 11 -35 11 -35 23 -11 6 12 37 40
69 61 l57 38 1 107 c1 87 3 99 10 62 4 -25 8 -75 8 -112 l1 -67 60 -41 c33
-22 65 -50 71 -62 12 -22 12 -22 20 -3 15 38 10 125 -10 163 -10 20 -46 63
-80 94 -58 55 -61 60 -61 105 0 44 4 50 69 118 79 81 99 128 82 193 -12 42
-52 85 -94 101 -16 6 -53 11 -84 11 -52 0 -58 -3 -98 -43z m1 -35 c-18 -16
-18 -16 -6 6 6 13 14 21 18 18 3 -4 -2 -14 -12 -24z m43 -103 c56 -16 93 -20
143 -17 56 4 68 3 68 -10 0 -16 -124 -142 -141 -142 -13 0 -72 50 -106 90 -25
31 -58 100 -46 100 4 0 41 -10 82 -21z"/>
<path d="M3267 3673 c-13 -12 -7 -43 7 -43 19 0 28 14 20 34 -7 17 -16 20 -27
9z"/>
<path d="M3820 3420 c-37 -20 -121 -100 -104 -100 5 0 18 10 28 21 13 16 21
18 29 10 20 -20 30 -12 24 18 -6 26 -3 30 23 36 16 3 34 13 41 21 16 19 1 17
-41 -6z"/>
<path d="M3882 3418 c4 -31 21 -32 35 -3 10 23 9 25 -14 25 -19 0 -24 -4 -21
-22z"/>
<path d="M3980 3418 c0 -3 5 -19 11 -36 11 -33 36 -49 53 -32 8 8 4 12 -12 16
-12 4 -22 12 -22 19 0 7 -7 18 -15 25 -8 7 -15 10 -15 8z"/>
<path d="M3898 3350 c-37 -92 -39 -150 -5 -150 17 0 37 21 37 39 0 8 11 29 26
48 30 39 18 44 -17 7 l-24 -26 -6 49 c-3 26 -8 41 -11 33z"/>
<path d="M4076 3285 c5 -19 2 -25 -10 -25 -9 0 -16 -7 -16 -15 0 -8 7 -15 15
-15 18 0 20 -31 3 -48 -8 -8 -8 -12 -1 -12 6 0 14 7 17 16 10 26 7 124 -4 124
-6 0 -8 -11 -4 -25z"/>
<path d="M3706 3284 c-3 -9 -6 -26 -6 -40 0 -22 2 -23 25 -12 30 14 33 28 4
28 -16 0 -19 4 -14 20 7 24 0 27 -9 4z"/>
<path d="M3710 3198 c0 -8 7 -23 15 -34 14 -19 14 -19 15 2 0 12 -7 27 -15 34
-12 10 -15 10 -15 -2z"/>
<path d="M3778 3136 c-24 -18 -22 -28 4 -24 13 2 24 11 26 21 4 20 -6 21 -30
3z"/>
<path d="M3990 3143 c1 -20 19 -35 35 -29 14 5 15 9 5 21 -13 16 -40 21 -40 8z"/>
<path d="M3890 3085 c0 -14 4 -25 9 -25 12 0 23 29 15 41 -10 18 -24 9 -24
-16z"/>
<path d="M960 3283 c0 -65 -3 -128 -6 -140 -6 -23 -6 -23 120 -23 l126 0 0
140 0 140 -120 0 -120 0 0 -117z m230 -23 l0 -120 -110 0 -110 0 0 120 0 120
110 0 110 0 0 -120z"/>
<path d="M1062 3338 c-15 -15 -17 -182 -2 -173 6 3 10 17 10 29 0 13 8 47 17
75 14 46 15 54 2 67 -12 11 -17 12 -27 2z"/>
<path d="M1110 3206 c0 -45 12 -61 24 -30 10 26 7 51 -9 64 -13 11 -15 6 -15
-34z"/>
<path d="M1976 2915 c-3 -9 -6 -22 -5 -28 0 -7 5 -1 10 12 5 13 8 26 5 28 -2
2 -6 -3 -10 -12z"/>
<path d="M923 2994 c-3 -8 2 -23 11 -32 15 -15 17 -15 32 0 21 21 11 48 -16
48 -11 0 -23 -7 -27 -16z"/>
<path d="M1947 2533 c-16 -15 -7 -190 12 -246 34 -97 37 -98 55 -15 11 49 24
82 39 96 20 19 123 50 133 40 9 -10 -57 -98 -85 -112 -44 -23 -54 -20 -35 12
l17 27 -27 -26 c-24 -22 -28 -36 -33 -101 -7 -94 9 -145 72 -234 25 -35 47
-64 49 -64 2 0 1 43 -2 95 -4 87 -3 98 22 149 30 62 86 117 152 149 42 20 45
24 40 52 -9 42 -25 51 -135 76 -101 23 -183 55 -231 89 -31 22 -34 23 -43 13z"/>
<path d="M375 2500 c-19 -8 -19 -9 3 -9 12 -1 22 4 22 9 0 6 -1 10 -2 9 -2 0
-12 -4 -23 -9z"/>
<path d="M1812 2458 c2 -6 15 -18 29 -27 l24 -15 -24 27 c-26 29 -35 34 -29
15z"/>
<path d="M2895 1557 c-22 -17 -72 -97 -120 -191 -19 -38 -40 -73 -47 -78 -7
-4 -49 -8 -93 -8 -76 0 -150 -11 -162 -24 -16 -15 18 -20 126 -19 l118 2 -34
-92 c-19 -51 -40 -104 -45 -119 -9 -25 -85 -128 -170 -232 -17 -21 -52 -51
-77 -67 -39 -25 -47 -27 -59 -15 -13 12 -13 26 -2 95 12 68 17 80 35 85 45 12
142 93 164 138 27 57 27 73 -4 103 -19 20 -34 25 -74 25 -44 0 -55 -4 -89 -37
-22 -21 -54 -64 -71 -95 -50 -89 -164 -179 -192 -151 -23 23 1 73 52 110 61
43 64 83 7 83 -18 0 -148 -133 -195 -199 -53 -74 -57 -71 -67 43 -8 89 -18
116 -45 116 -22 0 -74 -47 -66 -60 10 -16 -31 -79 -76 -115 -76 -61 -93 -42
-54 61 14 37 33 76 42 86 20 22 11 46 -24 59 -36 13 -70 -2 -84 -38 -6 -16
-17 -59 -26 -96 l-15 -68 28 -41 c16 -22 44 -47 62 -55 42 -18 65 -5 113 62
18 25 34 44 35 42 2 -1 6 -26 9 -55 5 -47 3 -55 -17 -72 -21 -17 -21 -19 -5
-25 9 -4 17 -16 17 -27 0 -47 45 -87 79 -69 10 6 23 30 29 53 13 50 51 113
110 181 33 38 42 44 42 28 0 -55 101 -64 160 -14 17 14 30 23 30 21 0 -1 -5
-30 -10 -63 -12 -73 4 -118 54 -153 71 -48 114 -26 232 123 36 47 68 85 69 85
1 0 -9 -46 -22 -102 -36 -161 -30 -211 32 -244 31 -17 35 -17 59 0 28 18 156
175 216 263 19 29 37 52 40 52 3 0 14 -14 25 -32 11 -18 35 -40 54 -49 30 -15
37 -15 61 -3 15 8 37 29 50 48 22 32 25 34 46 21 31 -21 44 -11 92 64 24 37
58 85 77 107 l34 40 -24 -50 c-13 -27 -27 -78 -31 -112 -6 -62 -6 -63 29 -98
19 -19 44 -35 56 -35 12 0 38 16 60 35 l38 35 7 -39 c7 -48 50 -101 80 -101
35 0 61 25 132 123 37 51 64 84 60 73 -3 -10 -11 -39 -18 -65 -17 -70 -30 -89
-123 -181 -117 -114 -185 -216 -185 -276 0 -36 6 -51 36 -84 46 -51 95 -56
136 -12 51 53 109 189 173 402 l25 85 135 108 c74 60 135 112 135 117 0 35
-52 6 -184 -102 -32 -27 -61 -47 -63 -44 -3 3 14 41 36 86 45 88 46 116 6 126
-46 11 -60 -1 -147 -131 -118 -175 -169 -216 -147 -115 11 51 53 130 110 206
54 74 83 94 135 94 44 0 44 0 44 35 0 29 -4 36 -26 41 -38 10 -112 -3 -143
-25 -31 -22 -141 -145 -141 -157 0 -19 -177 -171 -187 -160 -4 4 -1 28 6 54
12 45 19 71 20 83 1 3 19 30 41 59 48 65 54 111 16 135 -18 12 -30 14 -44 6
-20 -11 -115 -124 -147 -176 -11 -16 -27 -41 -37 -54 -18 -24 -18 -23 -11 25
7 54 45 145 68 164 36 30 2 68 -52 58 -18 -3 -70 -124 -95 -225 -13 -53 -36
-84 -86 -115 -53 -33 -62 -13 -32 73 13 38 32 79 42 91 10 12 18 24 18 28 0
12 -24 28 -53 35 -38 10 -64 -15 -82 -79 -15 -52 -140 -221 -242 -329 -59 -63
-69 -49 -43 59 31 127 164 500 189 526 3 4 38 8 76 9 73 2 105 11 105 32 0 9
-22 11 -81 9 l-81 -4 32 59 c18 32 53 88 78 125 37 56 43 70 32 83 -15 19 -80
20 -105 2z m-413 -475 c-1 -18 -9 -44 -18 -57 -17 -27 -83 -79 -90 -72 -6 6
33 95 59 135 28 41 53 38 49 -6z m-231 -264 c-9 -31 -9 -31 -10 -6 -1 30 11
67 16 51 2 -6 0 -26 -6 -45z m1394 -294 c-39 -108 -92 -212 -117 -227 -29 -19
-48 -1 -48 47 0 34 8 56 39 102 42 63 151 188 157 181 3 -2 -12 -49 -31 -103z"/>
<path d="M1415 1546 c-57 -25 -97 -90 -130 -211 -8 -27 -24 -77 -35 -110 -11
-33 -28 -100 -36 -150 -21 -125 -41 -192 -62 -204 -9 -6 -12 -11 -4 -11 14 0
16 -38 3 -58 -4 -7 -23 -21 -42 -30 -39 -20 -79 -74 -79 -108 0 -30 40 -57 67
-47 11 5 33 23 48 41 37 45 128 88 240 116 93 23 160 53 160 72 0 24 -169 11
-293 -22 -21 -6 -22 -5 -11 22 6 16 35 115 65 219 30 105 66 221 80 258 35 91
83 161 113 165 23 4 24 2 19 -43 -3 -26 -23 -80 -47 -125 -40 -77 -41 -80 -21
-90 27 -15 89 20 116 63 68 112 53 206 -39 247 -49 23 -71 24 -112 6z m-82
-141 c-3 -9 -8 -14 -10 -11 -3 3 -2 9 2 15 9 16 15 13 8 -4z"/>
<path d="M3017 1413 c-15 -20 -25 -38 -23 -40 2 -2 19 4 39 12 26 11 53 13 96
8 74 -7 80 6 16 36 -68 32 -97 28 -128 -16z"/>
<path d="M3066 1318 c-9 -5 -16 -21 -16 -38 0 -38 -16 -80 -41 -106 -18 -19
-19 -25 -7 -43 7 -12 17 -21 21 -21 14 0 72 52 73 64 1 22 16 56 24 56 5 0 14
9 20 21 21 39 -34 90 -74 67z"/>
<path d="M1696 1304 c-3 -9 -4 -19 -1 -24 9 -14 -27 -100 -46 -110 -16 -9 -17
-14 -7 -35 6 -14 16 -25 22 -25 18 1 79 58 73 68 -4 5 7 24 23 43 16 19 29 41
30 50 1 39 -81 68 -94 33z"/>
<path d="M3317 1259 c-16 -10 -16 -11 4 -28 20 -16 26 -16 48 -5 14 8 33 14
41 14 13 1 13 2 0 9 -27 16 -75 21 -93 10z"/>
<path d="M1586 1192 c-3 -5 -2 -18 1 -31 5 -21 7 -21 24 -5 14 13 16 20 8 31
-13 15 -25 17 -33 5z"/>
<path d="M3537 1153 c8 -21 16 -39 17 -40 2 -2 13 8 25 21 l23 24 -30 16 c-46
24 -53 20 -35 -21z"/>
<path d="M1525 1164 c-16 -7 -50 -13 -74 -11 l-44 2 -13 -45 c-7 -24 -12 -45
-11 -46 1 0 32 2 68 6 83 9 118 32 119 78 0 36 -2 36 -45 16z"/>
<path d="M2940 1165 c0 -8 5 -15 11 -15 6 0 17 7 25 15 14 13 13 15 -10 15
-16 0 -26 -6 -26 -15z"/>
<path d="M2875 1139 l-16 -30 33 3 c28 2 34 7 36 31 5 39 -32 37 -53 -4z"/>
<path d="M1390 1035 c0 -2 24 -20 53 -40 52 -35 52 -35 59 -13 11 42 9 51 -12
45 -11 -3 -18 -1 -14 4 3 5 -15 9 -40 9 -25 0 -46 -2 -46 -5z"/>
<path d="M1970 1014 c0 -14 3 -14 15 -4 8 7 15 14 15 16 0 2 -7 4 -15 4 -8 0
-15 -7 -15 -16z"/>
<path d="M2825 1014 c-16 -17 -16 -18 1 -31 20 -14 31 -8 36 21 4 26 -16 31
-37 10z"/>
<path d="M1356 976 c-10 -42 0 -51 51 -47 l47 3 -29 25 c-53 43 -62 45 -69 19z"/>
<path d="M2805 930 c3 -5 8 -10 11 -10 2 0 4 5 4 10 0 6 -5 10 -11 10 -5 0 -7
-4 -4 -10z"/>
<path d="M2023 759 c-25 -25 -12 -37 55 -54 37 -9 73 -19 81 -21 9 -3 11 1 7
12 -3 8 -6 20 -6 26 0 6 -7 8 -15 4 -13 -4 -14 -2 -5 14 10 18 7 20 -27 20
-21 0 -47 3 -58 6 -11 3 -26 -1 -32 -7z"/>
<path d="M2897 706 c-4 -10 0 -12 14 -9 22 6 26 23 5 23 -8 0 -16 -6 -19 -14z"/>
<path d="M1118 573 c7 -3 16 -2 19 1 4 3 -2 6 -13 5 -11 0 -14 -3 -6 -6z"/>
<path d="M3854 2965 c-4 -9 0 -23 9 -32 21 -21 49 -9 45 19 -4 28 -45 38 -54
13z"/>
<path d="M3980 2976 c0 -9 7 -16 16 -16 17 0 14 22 -4 28 -7 2 -12 -3 -12 -12z"/>
<path d="M2677 2846 c-102 -41 -152 -67 -97 -51 41 12 214 77 230 86 12 7 11
8 -5 8 -11 0 -69 -19 -128 -43z"/>
<path d="M4586 2502 c-3 -5 1 -9 9 -9 8 0 15 4 15 9 0 4 -4 8 -9 8 -6 0 -12
-4 -15 -8z"/>
<path d="M3816 2093 c-12 -12 -6 -33 9 -33 8 0 15 6 15 14 0 17 -14 28 -24 19z"/>
<path d="M3875 2071 l-30 -7 32 -8 c40 -9 131 3 112 15 -16 10 -70 10 -114 0z"/>
<path d="M3830 2020 c-33 -5 -14 -7 70 -8 77 -1 110 1 100 8 -17 11 -101 11
-170 0z"/>
<path d="M3810 1970 c37 -12 188 -12 195 0 4 6 -34 10 -107 9 -72 -1 -104 -4
-88 -9z"/>
<path d="M3800 1930 c8 -5 60 -9 115 -9 65 0 93 3 80 9 -29 12 -214 12 -195 0z"/>
<path d="M3810 1890 c-15 -5 21 -8 95 -8 74 0 110 3 95 8 -14 4 -56 8 -95 8
-38 0 -81 -4 -95 -8z"/>
<path d="M3810 1840 c14 -4 57 -8 95 -8 39 0 81 4 95 8 15 5 -21 8 -95 8 -74
0 -110 -3 -95 -8z"/>
<path d="M3830 1799 c65 -11 180 -11 180 1 0 6 -43 10 -112 9 -90 -1 -104 -3
-68 -10z"/>
<path d="M3806 1760 c12 -5 62 -5 110 -1 l89 8 -110 1 c-71 0 -102 -2 -89 -8z"/>
<path d="M1492 2048 c-19 -19 -15 -76 7 -88 34 -18 69 -12 87 16 16 24 16 27
-3 52 -22 30 -70 41 -91 20z m56 -10 c7 -7 12 -25 12 -41 0 -25 -3 -28 -27
-25 -20 2 -29 9 -31 26 -7 46 18 68 46 40z"/>
<path d="M1053 2048 c2 -7 14 -13 27 -13 13 0 25 6 28 13 2 8 -7 12 -28 12
-21 0 -30 -4 -27 -12z"/>
<path d="M996 1913 c-3 -3 -6 -33 -6 -65 0 -45 3 -58 15 -58 12 0 15 13 15 59
0 56 -9 79 -24 64z"/>
<path d="M1176 1653 c-3 -3 -6 -17 -6 -30 0 -20 5 -24 22 -21 29 4 35 34 10
47 -11 6 -22 7 -26 4z"/>
</g>
</svg>
